<?xml version="1.0" encoding="utf-8"?>
<!-- Generator: Adobe Illustrator 19.2.0, SVG Export Plug-In . SVG Version: 6.00 Build 0)  -->
<svg version="1.1" id="Layer_1" xmlns="http://www.w3.org/2000/svg" xmlns:xlink="http://www.w3.org/1999/xlink" x="0px" y="0px"
	 viewBox="0 0 1800 1132.1" enable-background="new 0 0 1800 1132.1" xml:space="preserve">
<g>
	<g>
		<path fill="#FFFFFF" d="M587,58.1"/>
		<path fill="#FFFFFF" d="M1657,360.1"/>
		<path fill="#FFFFFF" d="M613,756.1c0,0,199.3-225,509.7-39.5c-21.7,21.5-83.7,147.5-83.7,147.5S751,954.1,613,756.1z"/>
		<g>
			<g>
				<g>
					<g>
						<path d="M898,1035.8c-0.6,0-1.2-0.3-1.6-0.8L656,699.4c-0.6-0.9-0.4-2.1,0.5-2.7c0.9-0.6,2.1-0.4,2.7,0.5l240.3,335.5
							c0.6,0.9,0.4,2.1-0.5,2.7C898.7,1035.6,898.3,1035.8,898,1035.8z"/>
					</g>
					<g>
						<path d="M898,1034.8c-0.4,0-0.7-0.2-0.9-0.6L699,608.9c-0.2-0.5,0-1.1,0.5-1.3c0.5-0.2,1.1,0,1.3,0.5l198.1,425.3
							c0.2,0.5,0,1.1-0.5,1.3C898.2,1034.7,898.1,1034.8,898,1034.8z"/>
					</g>
					<g>
						<path d="M899.7,1035.8c-0.9,0-1.7-0.6-1.9-1.6l-97.7-468.5c-0.2-1.1,0.5-2.1,1.5-2.3c1.1-0.2,2.1,0.5,2.3,1.5l97.7,468.5
							c0.2,1.1-0.5,2.1-1.5,2.3C900,1035.7,899.8,1035.8,899.7,1035.8z"/>
					</g>
					<g>
						<path d="M898,1034.8C898,1034.8,898,1034.8,898,1034.8c-0.6,0-1-0.4-1-1l4.4-444.7c0-0.5,0.4-1,1-1c0,0,0,0,0,0
							c0.5,0,1,0.4,1,1l-4.4,444.7C898.9,1034.3,898.5,1034.8,898,1034.8z"/>
					</g>
					<g>
						<path d="M898,1035.8c-0.1,0-0.2,0-0.3,0c-1.1-0.2-1.8-1.2-1.6-2.3l78.4-425.3c0.2-1.1,1.2-1.8,2.3-1.6
							c1.1,0.2,1.8,1.2,1.6,2.3l-78.4,425.3C899.7,1035.1,898.9,1035.8,898,1035.8z"/>
					</g>
					<g>
						<path d="M898,1037.4c-0.1,0-0.2,0-0.4-0.1c-0.5-0.2-0.8-0.8-0.6-2.3l162.9-400.7c0.2,0.5,0.8,0.2,1.3,0.4
							c0.5,0.2,0.8,0.8,0.6,0.3l-162.9,400.7C898.7,1037.2,898.3,1037.4,898,1037.4z"/>
					</g>
				</g>
				<g>
					<g>
						<g>
							<path d="M1117.6,300.7c-0.9-1.3-2.9-1.3-3.7,0.1c-1.7,3.3-5.7,5.6-9.6,5.4c-5.2-0.3-9.7-4.1-12.2-8.7
								c-2.5-4.6-3.2-9.9-3.7-15.1c-1.5-16.1-0.8-32.6-4.6-48.3c-7.7-31.6-35-57.5-66.9-63.6c-31.9-6.1-66.8,8-85.6,34.5
								c-2.5,3.6-4.7,7.4-6.6,11.3c-19-45.7-52.9-26.3-52.9-26.3c-8.8-15.7-21-26.6-35.9-33.7c-3.6-1.7-7.5-3.3-11.6-2.3
								c-1.3,0.3-2.5,0.9-3.5,1.9c-2.4,2.4-2.5,5.4-1.7,8.3c-4-2.7-8.2-4.9-12.7-6.5c-3.1-1.1-6.8-1.9-9.5,0
								c-3.1,2.1-3.4,6.5-3.3,10.2c0,0.9,0,1.9,0,2.8c-3.7-8.3-7.9-16.4-13.8-23.4c-3-3.6-6.7-7-11.3-8.1
								c-4.6-1.1-10.2,0.8-11.9,5.2c-8.6-7.6-21.8-9.6-32.3-5c-10.5,4.7-17.9,15.7-18,27.2c-5.6-3.3-13-0.5-17.2,4.7
								c-1.6-0.6-3.3-1.2-4.9-1.9c-3-1.1-6.4-2.2-9.3-0.8c-2.1,1.1-3.4,3.4-3.7,5.8c-0.4,2.4,0,4.7,0.5,7.1c1,5.3,2.3,10.6,3.9,15.8
								c-26.1-6.9-59.9-15.4-73.3-18.8c-1.6-0.4-2.7,1.6-1.5,2.7l73,72.1c-21.2,52-32.4,123.3-5.2,153c13.2,14.4,36.1,13.5,61.2,4.9
								c0.8,3.6,2.9,11.9,7.3,22.2c-10.6,6.3-28.8,13.3-56.2,11.6c-48.5-2.9-40.2,15.2-33.3,28.4c6.3,12.2,17.3,45.3,65.3,32.9
								c10.3,9,27.1,14.8,56.2-1.6c7.7-4.4,14-9,19.1-13.7c8.7,4.6,18.6,8.4,29.9,10.8c34.6,7.4,74.3-3.2,107.3-21.2
								c4.6,3.9,10,7.7,16.4,11.3c38.5,21.7,55.5,4.7,64.4-7.5c45.9,10.7,56.6-21.5,62.9-33.5c6.9-13.2,15.2-31.4-33.3-28.4
								c-18.8,1.1-33.3-1.8-44-5.8c2-5.1,3.1-10.1,3.2-14.8c0.2-22.1-12.5-42.4-31.4-56.1c0.7-6.1,7.1-11.6,13.6-11.7
								c8.1-0.1,15.2,5.6,19.8,12.3c4.6,6.6,7.5,14.4,11.8,21.2c12.1,19.1,36.4,29.5,58.6,25.3c21.6-4.2,39.3-20.9,49.1-40.6
								c4.4-8.8,7.5-18.4,7.7-28.2C1124.2,316,1122.1,307.5,1117.6,300.7z"/>
							<path d="M735.9,519.3c-9.1,0-17.2-2.8-24.2-8.4c-6.9,1.7-13.2,2.4-18.7,2.4c-30.9,0-41.7-22.5-47.4-34.4
								c-0.6-1.2-1.1-2.4-1.7-3.4c-3.5-6.7-8.7-16.8-3.5-24.9c5-7.7,17.9-10.6,40.5-9.2c24.1,1.5,40.7-4,51-9.4
								c-2.5-6.2-4.1-11.5-5.1-15.4c-28.1,8.8-48.7,6.3-61.2-7.3c-27.9-30.5-17.8-101,3.5-154.7l-71.1-70.3
								c-1.8-1.8-2.2-4.4-0.9-6.6c1.2-2.2,3.7-3.3,6.2-2.7c18.8,4.7,44.8,11.3,66.7,17.1c-0.8-3.2-1.5-6.4-2.1-9.6
								c-0.5-2.6-0.9-5.5-0.5-8.4c0.6-3.9,2.8-7.1,5.8-8.6c4.6-2.4,9.7-0.4,12.4,0.6l2.5,0.9c3.9-3.6,9.4-6,14.8-5.3
								c2-11.1,9.5-21,19.9-25.6c10.6-4.7,23.4-3.5,33,2.9c3.6-3.4,9.1-4.5,13.7-3.4c6.1,1.5,10.6,6.1,13.4,9.4
								c3.5,4.2,6.4,8.7,8.8,13c0.7-1.3,1.7-2.4,3.1-3.4c4.9-3.4,11.1-1.2,13.1-0.4c2.6,0.9,5.2,2.1,7.7,3.4
								c0.5-1.6,1.5-3.1,2.7-4.3c1.4-1.4,3.2-2.4,5.3-2.9c5.4-1.3,10.2,0.6,14.2,2.5c15,7.1,27,17.9,35.8,32.2
								c5.2-2.1,15.4-4.9,26.6-1.1c10.1,3.4,18.5,11.4,25,23.7c1-1.7,2.1-3.3,3.2-4.9c19.5-27.6,56.3-42.5,89.5-36.1
								c33.2,6.3,62,33.7,70,66.5c2.7,11,3.2,22.3,3.7,33.2c0.2,5.2,0.5,10.5,1,15.6c0.5,5.5,1.2,9.9,3.2,13.6
								c2.1,3.8,5.6,6.4,8.9,6.6c2.4,0.1,4.9-1.3,5.9-3.3c1-1.9,2.8-3.1,5-3.2c2.2-0.1,4.3,0.9,5.5,2.7v0c4.8,7.2,7.3,16.4,7.1,25.9
								c-0.2,9.4-2.9,19.5-8.1,29.9c-11.3,22.6-30.7,38.6-51.9,42.7c-23.8,4.6-49.6-6.5-62.6-27c-2.1-3.3-3.8-6.7-5.5-10.1
								c-2-3.9-3.9-7.6-6.2-11c-4.7-6.7-10.9-10.6-16.5-10.6c-3.8,0-7.8,2.9-9.2,6.2c19.9,15.3,31.1,36.2,30.8,57.7
								c0,3.9-0.7,8.1-2.1,12.4c11.5,3.7,24.5,5.1,38.7,4.3c22.7-1.4,35.5,1.6,40.5,9.2c5.2,8,0,18.2-3.5,24.9
								c-0.5,1-1.1,2.2-1.7,3.4c-6.5,13.6-20,41.5-63,32.7c-7.4,9.7-26.4,30-67.9,6.6c-5.4-3-10.4-6.4-15-10
								c-37,19.6-76.1,27.1-107.7,20.3c-10.1-2.2-19.7-5.5-28.5-9.9c-5.2,4.5-11.2,8.6-17.8,12.3
								C757.9,515.7,746.3,519.3,735.9,519.3z M712.7,502.8c0.9,0,1.9,0.3,2.6,1c12.6,11.1,29.6,10.4,51.7-2.1
								c7-3.9,13.1-8.3,18.4-13.1c1.2-1.1,3-1.3,4.5-0.6c8.8,4.7,18.6,8.2,28.9,10.4c30.4,6.5,68.5-1.1,104.6-20.8
								c1.4-0.8,3.2-0.6,4.4,0.4c4.7,3.9,10,7.6,15.8,10.9c34.3,19.3,49.7,6.7,59.3-6.4c0.9-1.3,2.5-1.9,4.1-1.5
								c38.9,9.1,50.1-14.1,56.7-27.9c0.6-1.3,1.2-2.5,1.8-3.6c3.4-6.5,6.4-13.1,3.9-17c-1.8-2.8-8.6-7.2-33.5-5.7
								c-16.8,1-32.2-1-45.6-6c-1-0.4-1.8-1.1-2.2-2.1c-0.4-1-0.5-2.1-0.1-3c1.9-4.7,2.8-9.3,2.9-13.4c0.2-19.7-10.6-39-29.7-52.9
								c-1.1-0.8-1.7-2.2-1.6-3.6c0.9-8.1,8.9-15.1,17.4-15.2c0.1,0,0.2,0,0.3,0c8.3,0,16.6,5.1,22.8,14c2.7,3.8,4.7,7.9,6.8,11.9
								c1.7,3.3,3.3,6.4,5.1,9.4c11.2,17.6,34.1,27.4,54.5,23.5c18.8-3.6,36.1-18,46.4-38.5c4.7-9.3,7.1-18.3,7.3-26.5
								c0.1-6.9-1.4-13.6-4.5-19.2c-2.8,3.3-7.2,5.2-11.6,5c-6.1-0.3-12.1-4.5-15.4-10.7c-2.8-5.2-3.6-11-4.1-16.6
								c-0.5-5.3-0.7-10.8-1-16c-0.5-11.1-1-21.5-3.5-31.7c-7.3-29.9-33.6-54.9-63.8-60.6c-30.3-5.8-63.8,7.8-81.6,33
								c-2.3,3.2-4.4,6.9-6.3,10.8c-0.7,1.4-2.1,2.3-3.6,2.2c-1.5,0-2.9-1-3.5-2.4c-5.9-14.3-13.9-23.2-23.6-26.5
								c-12.4-4.2-23.6,2.1-23.7,2.1c-0.9,0.5-2,0.7-3,0.4c-1-0.3-1.9-0.9-2.4-1.9c-8.2-14.5-19.3-25-34.1-32c-3.6-1.7-6.3-2.6-9-2
								c-0.7,0.2-1.2,0.5-1.7,0.9c-0.8,0.7-1.3,1.8-0.7,4.6c0.4,1.6-0.2,3.2-1.6,4.2c-1.3,0.9-3.1,0.9-4.4,0
								c-3.8-2.6-7.8-4.6-11.9-6.1c-3.6-1.3-5.3-1-6-0.5c-1.5,1-1.7,4.5-1.6,7l0,2.8c0,1.9-1.3,3.5-3.1,3.9
								c-1.8,0.4-3.7-0.5-4.4-2.2c-2.9-6.6-7.1-15.2-13.2-22.5c-3.3-3.9-6.2-6.1-9.2-6.9c-2.7-0.7-6.3,0.3-7.3,2.8
								c-0.5,1.2-1.5,2.1-2.7,2.4c-1.2,0.3-2.6,0-3.5-0.9c-7.5-6.6-19-8.3-28.1-4.3c-9.1,4-15.6,13.8-15.7,23.7c0,1.4-0.8,2.7-2,3.4
								c-1.2,0.7-2.7,0.7-3.9,0c-3.9-2.3-9.2,0.1-12.1,3.7c-1.1,1.3-2.8,1.8-4.4,1.2l-4.9-1.9c-1.6-0.6-4.6-1.7-6.1-1
								c-0.8,0.4-1.5,1.5-1.7,2.9c-0.3,1.7,0.1,3.7,0.4,5.7c1,5.1,2.2,10.3,3.8,15.4c0.4,1.4,0,2.8-0.9,3.8c-1,1-2.4,1.4-3.8,1.1
								c-20.2-5.3-45.3-11.7-65.1-16.7l67,66.2c1.1,1.1,1.5,2.8,0.9,4.3c-21.8,53.4-30.8,121.7-5.9,148.9c10.8,11.8,30,13.1,57,3.9
								c1.1-0.4,2.2-0.3,3.2,0.3c1,0.6,1.7,1.5,1.9,2.6c0.8,3.8,2.8,11.7,7,21.4c0.8,1.8,0.1,3.9-1.6,4.9
								c-10.9,6.5-29.9,13.9-58.4,12.1c-24.9-1.5-31.7,2.9-33.5,5.7c-2.5,3.9,0.5,10.5,3.9,17c0.5,1.1,1.1,2.3,1.8,3.6
								c6.8,14.2,18.2,37.9,59.1,27.3C712,502.8,712.4,502.8,712.7,502.8z"/>
						</g>
						<g>
							<g>
								<path fill="#FFFFFF" d="M1116.3,352.5c4.4-8.8,7.5-18.4,7.7-28.2c0.2-8.3-1.9-16.8-6.5-23.6c-0.9-1.3-2.9-1.3-3.7,0.1
									c-1.7,3.3-5.7,5.6-9.6,5.4c-5.2-0.3-9.7-4.1-12.2-8.7s-3.2-9.9-3.7-15.1c-1.5-16.1-0.8-32.6-4.6-48.3
									c-7.7-31.6-35-57.5-66.9-63.6c-31.9-6.1-66.8,8-85.6,34.5c-17.9,25.3-20.2,60.7-6.2,88.2c0.7,1.4-0.3,3.1-2,3.1
									c-4.7,0-9.4,3-11.5,7.3c-2.8,5.6-1.7,12.5,1.4,17.9c3.1,5.4,8.1,9.5,13.3,12.9c10.4,7,22.1,12.2,34.3,15.2
									c1.4,0.3,2.7-0.7,2.7-2.1c-0.3-6.7,6.6-13.1,13.7-13.2c8.1-0.1,15.2,5.6,19.8,12.3s7.5,14.4,11.8,21.2
									c12.1,19.1,36.4,29.5,58.6,25.3C1088.8,388.9,1106.5,372.2,1116.3,352.5z"/>
								<path d="M1057,395c-19.5,0-38.7-10.1-49.2-26.7c-2-3.2-3.7-6.5-5.4-9.8c-1.9-3.8-3.9-7.8-6.4-11.3
									c-2.5-3.6-9.3-11.9-18.8-11.9c-0.1,0-0.1,0-0.2,0c-3.4,0-6.9,1.7-9.4,4.4c-2.2,2.3-3.4,5.1-3.3,7.8c0,1-0.4,1.9-1.1,2.5
									c-0.8,0.6-1.8,0.9-2.8,0.6c-12.4-3-24.1-8.2-34.6-15.3c-4.5-3-10.1-7.3-13.6-13.3c-3.6-6.2-4.2-13.4-1.5-18.8
									c2.3-4.6,7.4-7.8,12.4-7.8c0,0,0,0,0,0c0.4,0,0.8-0.2,1-0.6c0.2-0.3,0.2-0.7,0-1.1c-14.2-28-11.7-63.8,6.2-89.3
									c18.9-26.7,54.5-41.1,86.6-34.9c32.1,6.1,59.9,32.5,67.7,64.3c2.6,10.7,3.1,21.9,3.7,32.7c0.2,5.2,0.5,10.5,1,15.8
									c0.4,4.7,1.1,10.1,3.6,14.7c2,3.8,6.1,7.9,11.4,8.2c3.5,0.2,7.1-1.9,8.7-4.9c0.5-0.9,1.4-1.5,2.5-1.6
									c1.1-0.1,2.2,0.5,2.8,1.4c4.4,6.7,6.8,15.3,6.6,24.2c-0.2,9-2.8,18.6-7.8,28.6l0,0c-10.9,21.8-29.6,37.2-49.8,41.1
									C1064,394.7,1060.5,395,1057,395z M977.2,333.4c7.4,0,14.8,4.6,20.4,12.7c2.5,3.7,4.6,7.7,6.5,11.6c1.6,3.2,3.3,6.6,5.3,9.6
									c12,18.8,35.6,29,57.6,24.8c19.7-3.8,37.8-18.8,48.4-40l0.9,0.4l-0.9-0.4c4.9-9.7,7.4-19.1,7.6-27.8
									c0.2-8.5-2.1-16.7-6.3-23.1c-0.3-0.4-0.8-0.6-1.1-0.6c-0.2,0-0.6,0.1-0.9,0.5c-1.9,3.7-6.3,6.2-10.6,5.9
									c-5.1-0.3-10.1-3.8-13-9.2c-2.7-4.9-3.4-10.6-3.8-15.5c-0.5-5.3-0.7-10.7-1-15.9c-0.5-10.7-1-21.8-3.6-32.3
									c-7.6-31-34.8-56.9-66.1-62.8c-31.4-6-66.2,8.1-84.6,34.2c-17.6,24.8-20,59.9-6.1,87.2c0.5,1,0.4,2.1-0.1,3
									c-0.6,0.9-1.6,1.5-2.7,1.5c0,0,0,0,0,0c-4.3,0-8.7,2.8-10.7,6.8c-2.4,4.9-1.9,11.4,1.4,17c3.3,5.6,8.7,9.7,13,12.6
									c10.4,7,21.8,12.1,34,15c0.4,0.1,0.8,0,1.1-0.2c0.2-0.1,0.4-0.4,0.4-0.9c-0.1-3.2,1.2-6.5,3.8-9.2c2.9-3.1,7-4.9,10.8-5
									C977.1,333.4,977.2,333.4,977.2,333.4z"/>
							</g>
							<g>
								<g>
									<path fill="#FFFFFF" d="M778.3,436.4c0,0-13.3,22.6-54.2,26.5s-31.6,17.9-24.2,28.1s22.6,40.1,69,14
										c46.3-26.1,40.8-61.8,40.8-61.8L778.3,436.4z"/>
									<path d="M735.9,516.4c-19.7,0-29.4-14.1-34.9-22.1c-0.7-1-1.3-1.9-1.9-2.7c-3.5-4.7-8.7-11.9-5.9-18
										c2.8-6.1,12.8-10,30.8-11.6c39.9-3.8,53.4-25.8,53.5-26c0.2-0.4,0.6-0.6,1.1-0.5l31.3,6.9c0.4,0.1,0.7,0.4,0.8,0.8
										c0.1,0.4,5.1,36.6-41.3,62.8C755.8,513.5,744.8,516.4,735.9,516.4z M778.8,437.5c-2.5,3.8-16.9,22.8-54.6,26.4
										c-17,1.6-26.8,5.1-29.2,10.5c-2.1,4.7,1.7,10.5,5.7,16.1c0.6,0.8,1.2,1.7,1.9,2.7c8.3,12.1,23.8,34.7,65.8,11
										c41.7-23.5,40.8-55.2,40.4-60.1L778.8,437.5z"/>
								</g>
								<g>
									<path fill="#FFFFFF" d="M932.2,423.6c0,0,13.3,22.6,54.2,26.5c41,3.9,31.6,17.9,24.2,28.1s-22.6,40.1-69,14
										s-40.8-61.8-40.8-61.8L932.2,423.6z"/>
									<path d="M974.6,503.7c-8.9,0-19.9-2.9-33.4-10.5c-46.4-26.1-41.3-62.4-41.3-62.8c0.1-0.4,0.4-0.7,0.8-0.8l31.3-6.9
										c0.4-0.1,0.8,0.1,1.1,0.5c0.1,0.2,13.6,22.3,53.5,26c18,1.7,28,5.5,30.8,11.6c2.8,6.2-2.5,13.3-5.9,18
										c-0.6,0.8-1.2,1.7-1.9,2.7C1003.9,489.6,994.2,503.7,974.6,503.7z M901.8,431.3c-0.4,4.9-1.4,36.6,40.4,60.1
										c41.9,23.6,57.4,1.1,65.8-11c0.7-1,1.3-1.9,1.9-2.7c4.1-5.5,7.8-11.3,5.7-16.1c-2.4-5.4-12.2-8.9-29.2-10.5
										c-37.7-3.6-52.1-22.6-54.6-26.4L901.8,431.3z"/>
								</g>
								<g>
									<path fill="#FFFFFF" d="M1068.9,451.2c-6.9,13.2-19.1,51-77.9,28.9c-15.1-5.6-26.3-12.6-34.6-19.9
										c-36.3,29.5-92,51.9-138.5,42c-22-4.7-38.7-14.4-51.4-25.9c-8.7,9.5-21.7,19.1-41.2,26.4c-58.8,22-71-15.7-77.9-28.9
										c-6.9-13.2-15.2-31.4,33.3-28.4c27.4,1.7,45.5-5.3,56.2-11.6c-6-13.9-7.7-24.2-7.7-24.2c38.7-102.4,160.7-78.9,160.7-78.9
										c49.5-12.7,105.3,25.5,104.9,71.5c-0.1,4.7-1.2,9.7-3.2,14.8c10.7,4,25.1,6.9,44,5.8C1084.1,419.9,1075.7,438,1068.9,451.2
										z"/>
									<path d="M693.1,510.4c-29.2,0-39.3-21.1-44.9-32.7c-0.6-1.3-1.2-2.5-1.7-3.5c-3.2-6.1-7.9-15.3-3.7-21.9
										c4.3-6.6,16.7-9.2,37.9-7.9c26.6,1.6,44.4-5,54.9-11c-5.7-13.4-7.4-23.5-7.4-23.6c0-0.2,0-0.3,0-0.5
										c20.2-53.3,63.1-72.1,95.6-78.5c33.6-6.6,63.2-1.6,66-1.1c25.3-6.4,54.7,0.3,76.6,17.5c18.8,14.7,29.4,34.8,29.2,55.1
										c-0.1,4.5-1,9.3-2.9,14.2c12.5,4.5,26.9,6.3,42.6,5.4c21.2-1.3,33.6,1.3,37.9,7.9c4.3,6.6-0.5,15.8-3.7,21.9
										c-0.5,1-1.1,2.2-1.7,3.5c-7.3,15.1-22.4,46.5-77.4,25.9c-13.5-5.1-25.1-11.7-34.3-19.6c-35,28.1-91.2,51.8-138.7,41.7
										c-19.7-4.2-36.8-12.8-51.1-25.5c-10.1,10.8-23.9,19.6-41,26C712.7,508.4,702,510.4,693.1,510.4z M671,446
										c-14.4,0-23.4,2.5-26.5,7.3c-3.4,5.2,0,12.7,3.8,20c0.5,1,1.1,2.2,1.7,3.5c7.5,15.7,21.6,44.9,74.9,24.9
										c17.2-6.5,30.9-15.3,40.9-26.2c0.2-0.2,0.4-0.3,0.7-0.3c0.3,0,0.5,0.1,0.7,0.3c14.1,12.9,31.3,21.5,50.9,25.7
										c47.1,10,103.1-13.8,137.7-41.8c0.4-0.3,0.9-0.3,1.3,0c9.1,8,20.7,14.6,34.3,19.8c53.4,20,67.4-9.2,74.9-24.9
										c0.6-1.3,1.2-2.5,1.7-3.5c3.8-7.2,7.1-14.8,3.8-20c-3.8-5.9-16-8.2-36.1-7c-16.4,1-31.4-1-44.4-5.8
										c-0.2-0.1-0.4-0.3-0.6-0.5c-0.1-0.2-0.1-0.5,0-0.8c2-5.1,3-9.9,3.1-14.5c0.2-19.6-10.2-39.1-28.5-53.5
										c-21.6-16.9-50.4-23.5-75.2-17.1c-0.1,0-0.3,0-0.4,0c-0.3-0.1-30.8-5.8-65.5,1.1c-31.9,6.3-74.1,24.7-94,77
										c0.3,1.7,2.2,11.3,7.6,23.7c0.2,0.5,0,1-0.4,1.2c-10.6,6.3-29,13.4-56.7,11.7C677.2,446.1,674,446,671,446z"/>
								</g>
								<g>
									<g>
										<path fill="#FFFFFF" d="M827,325.3c-5.9,5-8.5,12.8-10.8,20.2c-1.5,4.8-3,9.8-2,14.6s5.5,9.4,10.4,8.6
											c-7.5,4-11.3,13.8-8.4,21.8c2.9,8,12.1,13.1,20.4,11.3c-5.5,9.2-3,22.3,5.5,28.8c8.5,6.5,21.7,5.6,29.2-2
											c3.5,8.6,13.7,14,22.8,11.9c9.1-2,16-11.2,15.5-20.5c6.6,5.1,16.5,5.5,23.4,0.9c6.9-4.6,10.4-13.9,8.1-22
											c7.9,3.4,18.3-1,21.2-9.1c3-8.1-2.1-18.2-10.3-20.7c5.4-2.7,8-9.8,5.9-15.4c-2.2-5.6-8.9-9-14.7-7.5
											c1.4-5.7-0.6-12.2-5.1-16c-4.5-3.8-11.2-4.9-16.6-2.6c-5.6-10-20.2-13.6-29.8-7.3c-5.9,3.9-10.1,10.9-17,12.5
											c-5.1,1.1-10.3-1.1-14.8-3.8s-8.6-6.1-13.6-7.6C839.8,319.3,832.2,320.8,827,325.3z"/>
										<path d="M890.2,441.9c-7.8,0-15.7-4.6-19.2-11.7c-7.9,7-21.1,7.6-29.5,1.1c-8.2-6.4-11.1-18.9-6.7-28.3
											c-8.2,0.8-16.7-4.4-19.6-12.2c-2.7-7.5,0.1-16.4,6.2-21.3c-4.1-1-7.4-5-8.3-9.3c-1.1-5.2,0.6-10.7,2-15.1
											c2.1-6.8,4.8-15.3,11.1-20.7l0,0c5.5-4.6,13.5-6.3,20.3-4.1c3.8,1.2,7.2,3.4,10.5,5.6c1.1,0.7,2.2,1.5,3.3,2.1
											c5.5,3.4,10.1,4.6,14,3.7c4.1-0.9,7.2-3.9,10.4-7c2-1.9,4-3.8,6.3-5.3c4.8-3.2,11-4.1,17.2-2.6c5.8,1.4,10.7,4.9,13.6,9.5
											c5.6-2,12.3-0.9,16.8,3c4.4,3.7,6.6,9.8,5.7,15.5c5.9-0.8,12.2,2.8,14.4,8.3c2.1,5.4,0,12.1-4.6,15.5
											c3.4,1.6,6.3,4.4,8.1,8c2.1,4.3,2.5,9.1,1,13.2c-1.5,4.1-4.9,7.6-9.3,9.5c-3.8,1.6-7.9,1.9-11.5,0.9
											c1.5,8-2.1,16.7-8.9,21.3c-6.8,4.5-16.1,4.5-23,0.2c-0.5,9-7.4,17.6-16.3,19.6C892.9,441.8,891.6,441.9,890.2,441.9z
											 M871.3,427.6c0.1,0,0.1,0,0.2,0c0.3,0.1,0.6,0.3,0.7,0.6c3.3,8.2,13.1,13.3,21.7,11.3c8.6-1.9,15.2-10.7,14.8-19.5
											c0-0.4,0.2-0.7,0.5-0.9c0.3-0.2,0.8-0.1,1.1,0.1c6.3,4.9,15.6,5.3,22.3,0.8c6.6-4.4,9.9-13.2,7.7-20.9
											c-0.1-0.4,0-0.8,0.3-1c0.3-0.2,0.7-0.3,1-0.2c3.5,1.5,7.8,1.4,11.7-0.3c3.9-1.7,6.9-4.7,8.2-8.3c1.3-3.6,1-7.9-0.9-11.7
											c-1.9-3.8-5.1-6.6-8.8-7.8c-0.4-0.1-0.7-0.5-0.7-0.9c0-0.4,0.2-0.8,0.5-1c4.9-2.5,7.4-9,5.4-14.2c-2-5.2-8.2-8.3-13.5-6.9
											c-0.3,0.1-0.7,0-0.9-0.2c-0.2-0.2-0.3-0.6-0.3-0.9c1.3-5.4-0.6-11.4-4.8-15c-4.2-3.6-10.5-4.6-15.6-2.4
											c-0.5,0.2-1,0-1.2-0.4c-2.5-4.5-7.2-7.9-12.8-9.3c-5.6-1.4-11.3-0.5-15.6,2.3c-2.1,1.4-4.1,3.3-6,5.1
											c-3.3,3.2-6.7,6.5-11.4,7.5c-4.5,1-9.6-0.3-15.5-3.9c-1.1-0.7-2.3-1.4-3.4-2.2c-3.2-2.1-6.4-4.2-10-5.3
											c-6.2-1.9-13.5-0.5-18.5,3.7l0,0c-5.9,5-8.5,13.2-10.5,19.8c-1.4,4.4-2.9,9.4-2,14.1c0.9,4.3,4.9,8.6,9.3,7.8
											c0.5-0.1,0.9,0.2,1.1,0.7c0.2,0.5,0,1-0.5,1.2c-7.1,3.8-10.7,13-7.9,20.6c2.8,7.6,11.4,12.4,19.3,10.7
											c0.4-0.1,0.8,0.1,1,0.4c0.2,0.3,0.2,0.7,0,1.1c-5.2,8.7-2.8,21.3,5.3,27.5c8,6.2,20.8,5.3,27.9-1.9
											C870.8,427.7,871,427.6,871.3,427.6z"/>
									</g>
									<g>
										<g>
											<path fill="#FFFFFF" d="M866.7,353c-3,2.7-3.5,7.3-2.4,11.1s3.7,7,6.2,10.2c5.1,6.4,10.2,12.9,15.3,19.3
												c8.4-6,15.3-14,20.1-23.1c2.5-4.8,4.5-10.2,3.1-15.4c-1.4-5.5-6.8-9.6-12.5-9.6s-11,4.2-12.5,9.6c-2.6-1.8-5.4-3.4-8.5-4
												S869.1,350.9,866.7,353z"/>
											<path d="M885.8,394.6c-0.3,0-0.6-0.1-0.8-0.4l-15.3-19.3c-2.4-3-5.1-6.5-6.3-10.5c-1.4-4.7-0.4-9.4,2.6-12.1
												c2.4-2.1,6-3,9.7-2.2c2.9,0.6,5.5,2,7.7,3.5c2-5.2,7.4-9.1,13-9.1c0,0,0,0,0,0c6.1,0,11.9,4.4,13.4,10.3
												c1.2,4.6,0.2,9.7-3.2,16.1c-4.9,9.3-12,17.4-20.4,23.5C886.2,394.5,886,394.6,885.8,394.6z M873.1,351.7
												c-2.3,0-4.3,0.7-5.8,2l0,0c-2.8,2.5-3,6.9-2.1,10.1c1.1,3.7,3.6,6.8,6,9.9l14.7,18.6c7.9-5.9,14.5-13.5,19.1-22.3
												c3.1-6,4.1-10.6,3-14.7c-1.3-5.1-6.3-8.9-11.5-8.9c0,0,0,0,0,0c-5.2,0-10.2,3.8-11.5,8.9c-0.1,0.3-0.3,0.6-0.6,0.7
												c-0.3,0.1-0.6,0.1-0.9-0.1c-2.3-1.6-5-3.3-8.1-3.9C874.6,351.8,873.9,351.7,873.1,351.7z"/>
										</g>
										<g>
											<path d="M902.8,384c-0.2,0-0.5-0.1-0.7-0.3l-10.8-10.3c-0.4-0.4-0.4-1,0-1.4c0.4-0.4,1-0.4,1.4,0l10.8,10.3
												c0.4,0.4,0.4,1,0,1.4C903.3,383.9,903,384,902.8,384z"/>
										</g>
										<g>
											<path d="M911,379.2c-0.2,0-0.4-0.1-0.6-0.2l-13.3-10.7c-0.4-0.3-0.5-1-0.1-1.4c0.3-0.4,1-0.5,1.4-0.1l13.3,10.7
												c0.4,0.3,0.5,1,0.1,1.4C911.6,379,911.3,379.2,911,379.2z"/>
										</g>
										<g>
											<path d="M890.2,408.2c-12.7,0-25.9-7.2-34.8-19.3c-9.2-12.5-13.2-27.7-16-42.3c-0.1-0.5,0.2-1,0.8-1.2
												c0.5-0.1,1,0.2,1.2,0.8c2.8,14.4,6.7,29.4,15.7,41.5c9.7,13.1,24.5,20.2,37.9,18.1c14.2-2.2,26.7-15.1,30.5-31.3
												c3-13.2,1.1-28.6-5.8-45.9c-0.2-0.5,0-1.1,0.5-1.3c0.5-0.2,1.1,0,1.3,0.5c7.1,17.6,9.1,33.5,5.9,47
												c-3.9,17-17.1,30.5-32.1,32.8C893.5,408.1,891.9,408.2,890.2,408.2z"/>
										</g>
										<g>
											<path d="M890,417.3c-2.9,0-5.8-0.3-8.7-0.8c-14.7-2.7-28.3-12.1-37.2-25.7c-8.1-12.3-12.3-27.5-12.1-43.9
												c0-0.5,0.4-1,1-1c0,0,0,0,0,0c0.5,0,1,0.4,1,1c-0.2,16.1,3.9,30.9,11.8,42.8c8.7,13.1,21.8,22.2,35.9,24.8
												c15.1,2.8,31.1-2.2,40.8-12.9c7.9-8.6,12.3-21.4,12.4-35.9c0.1-13.1-2.9-26.2-5.9-38.8c-0.1-0.5,0.2-1.1,0.7-1.2
												c0.5-0.1,1.1,0.2,1.2,0.7c3,12.7,6.1,25.8,6,39.2c-0.2,15-4.8,28.2-12.9,37.2C915.6,412.1,902.9,417.3,890,417.3z"/>
										</g>
									</g>
								</g>
								<g>
									<g>
										<path fill="#FFFFFF" d="M684.2,169.7c-3-1.1-6.4-2.2-9.3-0.8c-2.1,1.1-3.4,3.4-3.7,5.8c-0.4,2.4,0,4.7,0.5,7.1
											c1.9,10.1,4.8,20,8.6,29.6c6.2,1.9,13.2,1.1,18.9-2.1c5.6-3.3,9.8-8.9,11.3-15.3c0.8-3.6,0.7-7.6-1-10.8
											c-2.6-4.7-8-7-13.1-8.9C692.2,172.7,688.2,171.2,684.2,169.7z"/>
										<path d="M687.1,213.3c-2.4,0-4.9-0.4-7.2-1.1c-0.3-0.1-0.5-0.3-0.6-0.6c-3.8-9.6-6.8-19.6-8.7-29.7
											c-0.5-2.5-0.9-4.9-0.5-7.4c0.5-2.9,2.1-5.4,4.3-6.5c3.2-1.6,6.9-0.5,10.1,0.7l0,0l12.1,4.5c5.6,2.1,10.9,4.4,13.6,9.3
											c1.7,3.1,2.1,7.2,1.1,11.5c-1.5,6.6-5.9,12.5-11.7,15.9C695.8,212.2,691.5,213.3,687.1,213.3z M681,210.5
											c5.8,1.7,12.4,0.9,17.7-2.2c5.4-3.1,9.4-8.6,10.8-14.7c0.9-3.8,0.5-7.4-0.9-10.1c-2.3-4.3-7.3-6.4-12.6-8.4l-12.1-4.5
											c-2.9-1.1-6-2.1-8.5-0.8c-1.7,0.8-2.9,2.7-3.2,5c-0.3,2.2,0,4.4,0.5,6.8C674.4,191.4,677.3,201.2,681,210.5z"/>
									</g>
									<g>
										<path fill="#FFFFFF" d="M836.2,343.6c-35.8,35.8-133.7,100.2-167.7,63.1c-27.2-29.7-16-101,5.2-153l-73-72.1
											c-1.2-1.2-0.1-3.1,1.5-2.7c18.8,4.7,78.2,19.8,99.6,25.9c22.9-25.2,59.4-30.3,91.9-18.8c0-5.9-0.1-11.9-0.1-17.8
											c0-3.7,0.3-8.1,3.3-10.2c2.7-1.9,6.4-1.1,9.5,0c19.4,7,33.8,24.3,41.1,43.6c1.8,4.7,3.2,9.8,2.6,14.8
											c-0.5,3.6-2.1,7.2-4.8,9.5C870.2,262.9,867.5,312.3,836.2,343.6z"/>
										<path d="M697.5,418.8c-0.5,0-0.9,0-1.4,0c-12.1-0.3-21.6-4.1-28.3-11.5c-27.3-29.9-16.7-100.3,4.8-153.4L600,182.2
											c-0.8-0.8-1-2.1-0.4-3.1c0.6-1,1.7-1.5,2.9-1.3c28.6,7.2,79.1,20.1,99,25.7c21.5-23.3,57.1-30.7,91.2-19.1l-0.1-16.4
											c0-4.2,0.4-8.7,3.8-11.1c3.3-2.3,7.5-1.1,10.4-0.1c18.2,6.5,33.7,23,41.7,44.1c1.6,4.2,3.3,9.7,2.7,15.3
											c-0.5,3.7-2.1,7.1-4.5,9.6c25.1,38,21,87.6-9.7,118.3C810.7,370.5,743.3,418.8,697.5,418.8z M601.8,179.7
											c-0.3,0-0.5,0.2-0.5,0.3c-0.1,0.1-0.2,0.5,0.1,0.8l73,72.1c0.3,0.3,0.4,0.7,0.2,1.1c-21.4,52.6-32.2,122.6-5.4,152
											c6.4,6.9,15.4,10.6,26.9,10.8c41.2,0.9,108.6-43.2,139.4-74c30.2-30.2,34-79.3,9-116.6c-0.3-0.4-0.2-1,0.2-1.3
											c2.4-2.1,4.1-5.4,4.5-8.9c0.6-5.1-1-10.3-2.6-14.3c-7.7-20.6-22.9-36.7-40.5-43c-4-1.4-6.7-1.5-8.7-0.1
											c-2.6,1.8-2.9,5.8-2.9,9.4l0.1,17.8c0,0.3-0.2,0.6-0.4,0.8c-0.3,0.2-0.6,0.2-0.9,0.1c-34.5-12.3-69.3-5.2-90.8,18.5
											c-0.3,0.3-0.6,0.4-1,0.3C682,200,630.8,187,602,179.7C601.9,179.7,601.9,179.7,601.8,179.7z"/>
									</g>
									<g>
										<path fill="#FFFFFF" d="M805.6,179.3c0-1.3,0-2.5,0-3.8c4-0.1,7.5,2.5,10.3,5.3c10.2,10.2,16,24.7,15.5,39.1"/>
										<path d="M831.4,221C831.4,221,831.4,221,831.4,221c-0.6,0-1-0.5-1-1c0.4-14.1-5.3-28.5-15.2-38.4c-3.1-3.1-5.9-4.7-8.6-5
											l0,2.8c0,0.5-0.4,1-1,1c0,0,0,0,0,0c-0.5,0-1-0.4-1-1l0-3.8c0-0.5,0.4-1,1-1c3.5-0.1,7.1,1.7,11,5.6
											c10.4,10.3,16.3,25.2,15.8,39.9C832.4,220.5,831.9,221,831.4,221z"/>
									</g>
									<g>
										<path fill="#FFFFFF" d="M762.8,247.2c15,14.5,33.1,25.8,52.8,32.7c4.2-16.3,3-33.5-0.7-49.9c-3.8-16.4-10.1-32-16.4-47.6
											c-5-12.3-10.1-24.8-18.6-34.9c-3-3.6-6.7-7-11.3-8.1c-4.6-1.1-10.2,0.8-11.9,5.2c-8.6-7.6-21.8-9.6-32.3-5
											c-10.5,4.7-17.9,15.7-18,27.2c-6.4-3.7-15.1,0.4-18.6,6.8s-3.2,14.3-2.2,21.6c3.4,23.3,13.5,45.5,28.8,63.4
											c15.3,17.8,35.8,31.2,58.3,38C774.6,279.7,771.1,262.1,762.8,247.2z"/>
										<path d="M772.6,297.6c-0.1,0-0.2,0-0.3,0c-22.5-6.9-43.4-20.5-58.8-38.3c-15.4-17.9-25.7-40.5-29.1-63.9
											c-1-6.7-1.6-15.2,2.3-22.2c2.1-3.9,6.1-7,10.4-8.2c2.9-0.8,5.7-0.7,8.1,0.3c0.8-11.4,8.1-22,18.6-26.6
											c10.6-4.7,23.4-2.9,32.4,4.3c2.4-4.2,8.1-5.6,12.4-4.6c5.3,1.3,9.3,5.5,11.8,8.5c8.7,10.4,13.8,23,18.8,35.2
											c6.2,15.4,12.7,31.3,16.5,47.7c4.3,18.6,4.5,35.5,0.7,50.4c-0.1,0.3-0.2,0.5-0.5,0.6c-0.2,0.1-0.5,0.2-0.8,0.1
											c-18-6.3-34.8-16.4-49-29.1c6.5,13.9,9.1,29.7,7.4,45c0,0.3-0.2,0.5-0.4,0.7C773,297.6,772.8,297.6,772.6,297.6z
											 M701,166.4c-1.2,0-2.3,0.2-3.2,0.5c-3.8,1-7.3,3.8-9.2,7.3c-3.6,6.5-3,14.6-2.1,21c3.3,23,13.5,45.3,28.6,62.9
											c14.9,17.3,35,30.5,56.7,37.4c1.6-16.4-1.8-33.3-9.8-47.7c-0.2-0.4-0.1-1,0.3-1.3c0.4-0.3,0.9-0.3,1.3,0.1
											c14.5,14.1,32.3,25.2,51.4,32.1c3.4-14.3,3.1-30.6-1-48.4c-3.8-16.3-10.2-32.2-16.4-47.4c-4.9-12.1-10-24.5-18.5-34.7
											c-2.4-2.8-6-6.7-10.8-7.8c-3.9-1-9.2,0.5-10.7,4.6c-0.1,0.3-0.4,0.5-0.7,0.6c-0.3,0.1-0.6,0-0.9-0.2
											c-8.3-7.3-21.1-9.3-31.3-4.8c-10.1,4.5-17.3,15.3-17.5,26.4c0,0.3-0.2,0.7-0.5,0.8c-0.3,0.2-0.7,0.2-1,0
											C704.2,166.7,702.5,166.4,701,166.4z"/>
									</g>
									<g>
										<path fill="#FFFFFF" d="M835.9,156.4c14.9,7.1,27.1,18,35.9,33.7c0,0,43.6-25,59.6,48.5c5-1,10.1,2.5,12.3,7.1
											c2.2,4.6,2.2,9.9,1.8,15c-2.2,24.6-14.5,48.2-33.3,64.2c-18.9,16-44.2,24.2-68.8,22.3c-4-0.3-8.2-0.9-11.6-3
											c-3.5-2-6.2-5.8-6-9.8c5,2.6,11.2,2.8,16.3,0.4c-1.6-0.6-3.2-1.1-4.9-1.7c12.5-11.3,19.7-28.2,19.2-45
											c-0.3-10.3-3.3-20.3-6.2-30.1c-1.4-4.8-2.9-9.6-4.3-14.4c-2.4-8-4.8-16-7.3-24c-5.4-17.2-11.4-34.3-18-51.1
											c-1.6-4-3.2-8.8,0.4-12.3c0.9-0.9,2.2-1.6,3.5-1.9C828.5,153.2,832.3,154.7,835.9,156.4z"/>
										<path d="M850.5,348.3c-2.4,0-4.8-0.1-7.2-0.3c-3.9-0.3-8.3-0.9-12.1-3.1c-4.2-2.4-6.7-6.6-6.5-10.7c0-0.3,0.2-0.6,0.5-0.8
											c0.3-0.2,0.6-0.2,0.9,0c3.9,2,8.6,2.5,12.9,1.3l-2.2-0.8c-0.3-0.1-0.6-0.4-0.6-0.7c-0.1-0.3,0-0.7,0.3-0.9
											c12.3-11.1,19.4-27.7,18.9-44.3c-0.3-10.2-3.3-20.2-6.2-29.9l-4.3-14.4c-2.4-7.9-4.8-16-7.3-24c-5.4-17.1-11.5-34.3-18-51
											c-1.3-3.5-3.6-9.2,0.6-13.4c1-1,2.4-1.7,3.9-2.1c4.5-1.1,8.7,0.6,12.2,2.3h0c15.5,7.3,27.2,18.2,35.8,33.2
											c3.4-1.7,16-7,29.5-1c14.3,6.3,24.5,23.1,30.5,49.7c5.4-0.6,10.3,3.3,12.4,7.7c2.4,5,2.3,10.6,1.9,15.5
											c-2.2,25-14.5,48.6-33.7,64.9C895.5,340.2,873.1,348.3,850.5,348.3z M826.7,335.8c0.4,2.9,2.4,5.6,5.5,7.4
											c3.4,2,7.6,2.5,11.2,2.8c24.5,1.9,49.4-6.1,68.1-22c18.8-15.9,30.8-39,33-63.5c0.4-4.6,0.5-9.9-1.7-14.4
											c-1.9-3.9-6.5-7.5-11.2-6.5c-0.5,0.1-1-0.2-1.2-0.8c-5.8-26.5-15.7-43-29.6-49.2c-14.6-6.5-28.5,1.3-28.6,1.4
											c-0.2,0.1-0.5,0.2-0.7,0.1c-0.3-0.1-0.5-0.2-0.6-0.5c-8.5-15.1-20.1-26-35.4-33.3c0,0,0,0,0,0c-3.4-1.6-7.1-3.1-10.9-2.2
											c-1.2,0.3-2.2,0.8-3,1.6c-3,3-1.8,7.2-0.2,11.2c6.5,16.8,12.6,34,18,51.1c2.5,8,5,16.1,7.3,24l4.3,14.4
											c2.9,9.8,6,19.9,6.2,30.4c0.5,16.6-6.4,33.2-18.3,44.7l3.3,1.1c0.4,0.1,0.6,0.5,0.7,0.9c0,0.4-0.2,0.8-0.6,0.9
											C837.5,337.8,831.7,337.9,826.7,335.8z"/>
									</g>
								</g>
							</g>
						</g>
						<g>
							<g>
								<ellipse transform="matrix(0.2843 -0.9587 0.9587 0.2843 215.3197 980.6978)" cx="764.5" cy="346.1" rx="30.6" ry="21.1"/>
							</g>
							<g>
								<path d="M792.8,328.9L777,337c-0.9,0.5-2,0.1-2.4-0.8l-1.6-3.1c-0.5-0.9-0.1-2,0.8-2.4l15.8-8.1c0.9-0.5,2-0.1,2.4,0.8
									l1.6,3.1C794,327.4,793.7,328.4,792.8,328.9z"/>
							</g>
							<g>
								<path d="M793.1,339.7l-17.7,0.2c-1,0-1.8-0.8-1.8-1.8l0-3.5c0-1,0.8-1.8,1.8-1.8l17.7-0.2c1,0,1.8,0.8,1.8,1.8l0,3.5
									C794.9,338.8,794.1,339.7,793.1,339.7z"/>
							</g>
						</g>
						<g>
							<g>
								<path fill="#FFFFFF" d="M762.1,330.4c-1.9-1.1-4.4-0.4-6.2,0.9c-1.1,0.8-2.1,1.8-2.7,3s-0.7,2.7-0.2,4
									c0.7,1.5,2.4,2.5,4.1,2.6c1.7,0.1,3.4-0.6,4.7-1.7c1.3-1.1,2.3-2.7,2.5-4.4S763.5,331.3,762.1,330.4z"/>
							</g>
							<g>
								<path fill="#FFFFFF" d="M772.1,356c1.8-2,3.3-4.9,2.1-7.4c-0.9-1.9-3.3-2.8-5.3-2.4c-2,0.4-3.7,1.9-4.8,3.7
									c-1.5-1.3-3.1-2.7-5.1-3.2c-2-0.4-4.4,0.5-4.9,2.5c-0.3,1.2,0.2,2.5,0.7,3.7c1.8,4.1,3.5,8.1,5.3,12.2
									C764.4,362.5,768.7,359.8,772.1,356z"/>
							</g>
						</g>
						<g>
							<g>
								<path d="M627,206.1l-1.8-0.8c6.5-14.7-5.6-21.3-6.2-21.5l0.9-1.7C620.1,182.1,634.3,189.6,627,206.1z"/>
							</g>
							<g>
								<path d="M649.3,228.7l-1.5-1.2c5.7-7.3,8.1-14.4,7-21.2c-1.5-9.8-9.7-15.6-9.8-15.6l1.1-1.6c0.4,0.3,8.9,6.3,10.6,16.9
									C657.8,213.3,655.4,221,649.3,228.7z"/>
							</g>
							<g>
								<path d="M674.1,254.3l-1.1-1.6c1-0.7,24.6-16.9,2.3-54.2l1.7-1C700.3,236.4,674.3,254.1,674.1,254.3z"/>
							</g>
							<g>
								<path d="M771.4,297c-0.7-0.3-74.5-27.2-70.5-130.7l2,0.1c-4,102.1,68.5,128.6,69.2,128.8L771.4,297z"/>
							</g>
							<g>
								<path d="M764.6,250c-22-32-9.5-102.9-9-105.9l1.9,0.3c-0.1,0.7-12.9,73.1,8.7,104.4L764.6,250z"/>
							</g>
							<g>
								<path d="M814.3,280.8c-0.7-0.4-68.8-37.5-57.1-138.9l1.9,0.2c-11.6,100,55.4,136.5,56.1,136.9L814.3,280.8z"/>
							</g>
							<g>
								<path d="M762.9,248.6c-0.1,0-0.1,0-0.2,0c-1.6-0.4-38.3-9.4-57.7-81.6c-0.1-0.5,0.2-1.1,0.7-1.2c0.5-0.1,1.1,0.2,1.2,0.7
									c12,44.6,31,64.8,43.6,73.6c-33.3-30.7-26.8-99.9-26.7-100.7c0.1-0.5,0.5-0.9,1.1-0.9c0.5,0.1,0.9,0.5,0.9,1.1
									c-0.1,0.8-7.8,84.2,37.7,107.1c0.4,0.2,0.6,0.7,0.5,1.2C763.7,248.3,763.3,248.6,762.9,248.6z"/>
							</g>
							<g>
								<path d="M838.9,333.3c-0.8,0-1.2-0.1-1.4-0.2c-0.5-0.2-0.8-0.8-0.6-1.3c0.2-0.5,0.8-0.8,1.3-0.6c0.1,0,10.2,2.8,33-33.8
									c23.4-37.4,0.1-106.6-0.1-107.3c-0.2-0.5,0.1-1.1,0.6-1.2c0.5-0.2,1.1,0.1,1.2,0.6c0.2,0.7,23.8,70.7-0.1,108.9
									C853.3,329.9,842.6,333.3,838.9,333.3z"/>
							</g>
							<g>
								<path d="M847.2,344.5c-16.5,0-22-7.7-22.3-8.2c-0.3-0.4-0.2-1.1,0.3-1.4c0.5-0.3,1.1-0.2,1.4,0.3l0,0
									c0.1,0.2,13.2,18.1,61.3-3.3c40.5-18,43.5-71,43.4-88.3c-31.2,92.8-89.5,92.1-90,92.1c-0.5,0-1-0.5-0.9-1c0-0.5,0.5-1,1-1
									c0.6,0,59.6,0.6,89.8-96c0.1-0.4,0.6-0.7,1-0.7c0.5,0.1,0.8,0.4,0.9,0.9c0.1,0.7,5.4,73.7-44.3,95.8
									C870.3,341.9,856.9,344.5,847.2,344.5z"/>
							</g>
							<g>
								<path d="M830.7,220.8c-0.2,0-0.5-0.1-0.7-0.3l-14.7-14c-0.4-0.4-0.4-1,0-1.4c0.4-0.4,1-0.4,1.4,0l14.7,14
									c0.4,0.4,0.4,1,0,1.4C831.2,220.7,830.9,220.8,830.7,220.8z"/>
							</g>
							<g>
								<path d="M1083.5,331.8c-3.1,0-6.2-0.4-9.2-1.1c-13.6-3.4-25.1-14.8-28.6-28.3c-1.9-7.4-1.7-15.2-1.4-22.7
									c0.1-2.6,0.2-5.2,0.2-7.8c0-21.3-6.5-40.6-18.4-54.2c-13.5-15.6-33.9-23-52-18.9c-17.7,4-33.4,19.1-40.9,39.4
									c-0.2,0.5-0.8,0.8-1.3,0.6c-0.5-0.2-0.8-0.8-0.6-1.3c7.8-21,24-36.6,42.4-40.7c18.8-4.2,40,3.5,54,19.6
									c12.2,14,18.9,33.7,18.9,55.5c0,2.6-0.1,5.3-0.2,7.9c-0.3,7.4-0.5,15,1.4,22.1c3.4,12.9,14.3,23.7,27.2,26.9
									c12.9,3.2,27.7-1.1,36.7-10.9c2.7-2.9,4.3-5.6,4.9-8.3c0.8-3.3,0.1-6.6-1.8-8.7c-0.4-0.4-0.3-1,0.1-1.4
									c0.4-0.4,1-0.3,1.4,0.1c2.4,2.6,3.3,6.6,2.3,10.5c-0.8,3-2.5,6-5.4,9.1C1105.5,327.2,1094.5,331.8,1083.5,331.8z"/>
							</g>
							<g>
								<path d="M1014.1,375.3c-0.3,0-0.6-0.1-0.8-0.4c-3.4-4.6-4.8-10.9-4.1-18.7c0.2-2.9,0.7-5.7,1.2-8.5
									c0.5-3.3,1.1-6.8,1.3-10.2c0.7-14.5-6.5-29.4-18.4-37.9c-11.8-8.5-28.2-10.5-41.8-5.2c-13.5,5.3-24.2,18-27.1,32.3
									c-0.1,0.5-0.6,0.9-1.2,0.8c-0.5-0.1-0.9-0.6-0.8-1.2c3-14.9,14.1-28.1,28.3-33.7c14.1-5.6,31.3-3.5,43.7,5.4
									c12.4,8.8,19.9,24.4,19.2,39.6c-0.2,3.5-0.7,7-1.3,10.4c-0.4,2.7-0.9,5.6-1.1,8.4c-0.6,7.4,0.6,13.2,3.8,17.4
									c0.3,0.4,0.2,1-0.2,1.4C1014.5,375.3,1014.3,375.3,1014.1,375.3z"/>
							</g>
							<g>
								<path d="M995.6,344.6C995.6,344.6,995.6,344.6,995.6,344.6c-0.6,0-1-0.5-1-1c0.4-12.5-9.2-24.4-21.5-26.7
									c-12.3-2.2-25.5,5.6-29.5,17.4c-0.2,0.5-0.7,0.8-1.2,0.6c-0.5-0.2-0.8-0.7-0.6-1.2c4.3-12.7,18.5-21.1,31.7-18.7
									c13.2,2.4,23.6,15.3,23.1,28.7C996.6,344.1,996.1,344.6,995.6,344.6z"/>
							</g>
							<g>
								<path d="M1072.9,355.8c-3,0-6-0.3-8.9-0.8c-14.1-2.5-27.5-10.5-37.6-22.6c-7-8.3-12-18.1-17-27.5c-1.1-2.2-2.3-4.4-3.5-6.6
									c-6.1-11.3-13.1-22.8-23.9-30.6c-11.6-8.3-25.8-10.1-36.3-4.5c-0.5,0.3-1.1,0.1-1.3-0.4c-0.3-0.5-0.1-1.1,0.4-1.3
									c11.1-5.9,26.1-4.1,38.3,4.7c11.1,8,18.6,20.3,24.5,31.2c1.2,2.2,2.3,4.4,3.5,6.6c4.9,9.3,9.9,19,16.7,27.1
									c9.8,11.7,22.8,19.5,36.5,21.9c14.6,2.6,30.1-1.6,40.3-10.9c11-9.9,15.7-25.6,11.8-39.1c-0.2-0.5,0.1-1.1,0.7-1.2
									c0.5-0.2,1.1,0.1,1.2,0.7c4.1,14.1-0.9,30.6-12.4,41.1C1097.3,351.5,1085.2,355.8,1072.9,355.8z"/>
							</g>
							<g>
								<path d="M1078.6,338.7c-11,0-22.1-4.2-30.1-11.7c-12.4-11.7-16.7-29-20-45.8l-0.3-1.5c-3.1-16-6.4-32.5-16.7-44.7
									c-9.1-10.7-23.4-16.9-37.5-16.1c-14,0.8-27.6,8.5-35.5,20.1c-0.3,0.4-0.9,0.6-1.4,0.3c-0.4-0.3-0.6-0.9-0.3-1.4
									c8.2-12.1,22.4-20.2,37-20.9c14.6-0.8,29.6,5.7,39.1,16.8c10.7,12.6,14,29.3,17.2,45.5l0.3,1.5c3.3,16.5,7.4,33.5,19.4,44.8
									c10.1,9.5,25.4,13.4,38.9,9.9c13.5-3.5,24.9-14.4,29-27.7c0.2-0.5,0.7-0.8,1.2-0.6c0.5,0.2,0.8,0.7,0.6,1.2
									c-4.4,13.9-16.3,25.3-30.4,29C1085.7,338.3,1082.2,338.7,1078.6,338.7z"/>
							</g>
							<g>
								<path d="M1066.8,371.5c-11.5,0-23.1-3.4-32.2-10.2c-14.2-10.6-22.9-28.9-26.3-42.5c-0.1-0.5,0.2-1.1,0.7-1.2
									c0.5-0.1,1.1,0.2,1.2,0.7c3.3,13.3,11.7,31.2,25.5,41.4c17.7,13.1,44.3,13.1,62,0.1c17.7-13.1,25.5-38.6,18.2-59.3
									c-0.2-0.5,0.1-1.1,0.6-1.2c0.5-0.2,1.1,0.1,1.2,0.6c7.6,21.5-0.5,48-18.9,61.5C1089.7,368.1,1078.2,371.5,1066.8,371.5z"/>
							</g>
						</g>
					</g>
					<g>
						<animate attributeName="opacity" values="0.3;0.6;1;0.3" dur="1.8s" repeatCount="indefinite"/>
						<path fill="none" stroke="#CC3333" stroke-miterlimit="10" d="M662.3,68.2c-0.4,3.7,3.1,6.5,6.2,8.5c4.2,2.8,8.4,5.6,12.6,8.4
							c4.4-5.2,7.3-11.6,8.4-18.3c0.5-3.1,0.3-7.1-2.6-8.6c-1.9-1-4.4-0.4-6.1,0.9c-1.7,1.3-2.9,3.2-3.9,5.1c-2.7-1-5.6-1.9-8.5-1.5
							C665.5,63.2,662.6,65.3,662.3,68.2z"/>
						<path fill="none" stroke="#CC3333" stroke-miterlimit="10" d="M681.1,86.1c-0.2,0-0.4-0.1-0.5-0.2l-12.6-8.4
							c-3.3-2.2-7.1-5.3-6.6-9.5l0,0c0.4-3.5,3.8-5.8,6.9-6.3c2.9-0.4,5.7,0.4,8.2,1.3c1-1.7,2.1-3.4,3.8-4.7c2.2-1.7,5-2.1,7.1-1
							c3.9,2,3.4,7.4,3.1,9.6c-1.1,6.9-4.1,13.4-8.6,18.8C681.7,86,681.4,86.1,681.1,86.1z M663.3,68.3c-0.4,3.2,2.9,5.7,5.7,7.6
							l11.9,7.9c4-5,6.6-10.9,7.6-17.1c0.2-1.4,0.8-6.1-2-7.5c-1.6-0.9-3.7-0.2-5,0.8c-1.6,1.2-2.7,3.1-3.7,4.8
							c-0.2,0.4-0.7,0.6-1.2,0.4c-2.5-0.9-5.3-1.9-8.1-1.5C666.2,64.1,663.6,65.8,663.3,68.3L663.3,68.3z"/>
					</g>
					<g>
						<circle fill="#FFFFFF" cx="596.4" cy="248.7" r="5.5"/>
						<path d="M596.4,255.2c-3.6,0-6.5-2.9-6.5-6.5c0-3.6,2.9-6.5,6.5-6.5s6.5,2.9,6.5,6.5C602.9,252.3,600,255.2,596.4,255.2z
							 M596.4,244.2c-2.5,0-4.5,2-4.5,4.5c0,2.5,2,4.5,4.5,4.5c2.5,0,4.5-2,4.5-4.5C600.9,246.3,598.9,244.2,596.4,244.2z"/>
					</g>
					<g>
						<circle fill="#FFFFFF" cx="632.2" cy="384" r="3.3"/>
						<path d="M632.2,388.3c-2.4,0-4.3-1.9-4.3-4.3c0-2.4,1.9-4.3,4.3-4.3c2.4,0,4.3,1.9,4.3,4.3
							C636.5,386.4,634.6,388.3,632.2,388.3z M632.2,381.7c-1.3,0-2.3,1-2.3,2.3c0,1.3,1,2.3,2.3,2.3c1.3,0,2.3-1,2.3-2.3
							C634.6,382.8,633.5,381.7,632.2,381.7z"/>
					</g>
					<g>
						<circle fill="#FFFFFF" cx="1041" cy="163.2" r="4.8"/>
						<path d="M1041,168.9c-3.2,0-5.7-2.6-5.7-5.7c0-3.2,2.6-5.7,5.7-5.7c3.2,0,5.7,2.6,5.7,5.7
							C1046.8,166.3,1044.2,168.9,1041,168.9z M1041,159.4c-2.1,0-3.8,1.7-3.8,3.8c0,2.1,1.7,3.8,3.8,3.8c2.1,0,3.8-1.7,3.8-3.8
							C1044.8,161.1,1043.1,159.4,1041,159.4z"/>
					</g>
					<g>
						<circle fill="#FFFFFF" cx="760.2" cy="130.3" r="3.3"/>
						<path d="M760.2,134.6c-2.4,0-4.3-1.9-4.3-4.3c0-2.4,1.9-4.3,4.3-4.3c2.4,0,4.3,1.9,4.3,4.3
							C764.5,132.6,762.6,134.6,760.2,134.6z M760.2,128c-1.3,0-2.3,1-2.3,2.3s1,2.3,2.3,2.3c1.3,0,2.3-1,2.3-2.3
							S761.5,128,760.2,128z"/>
					</g>
					<g>
						<circle fill="#FFFFFF" cx="478.3" cy="330.3" r="3.7"/>
						<path d="M478.3,334.9c-2.6,0-4.6-2.1-4.6-4.6s2.1-4.6,4.6-4.6s4.6,2.1,4.6,4.6S480.9,334.9,478.3,334.9z M478.3,327.6
							c-1.5,0-2.7,1.2-2.7,2.7s1.2,2.7,2.7,2.7s2.7-1.2,2.7-2.7S479.8,327.6,478.3,327.6z"/>
					</g>
					<g>
						<path fill="#FFFFFF" d="M607.9,332.3l1.3,10.3c0.1,1.1,0.8,2.1,1.8,2.6l9.2,4.8c2.5,1.3,2.4,4.9-0.1,6.1l-9.4,4.4
							c-1,0.5-1.7,1.4-1.9,2.5l-1.7,10.3c-0.5,2.8-3.9,3.8-5.8,1.8l-7.1-7.6c-0.8-0.8-1.9-1.2-3-1l-10.3,1.5c-2.8,0.4-4.8-2.5-3.5-5
							l5-9.1c0.5-1,0.6-2.2,0.1-3.2l-4.6-9.3c-1.3-2.5,0.9-5.4,3.7-4.8l10.2,2c1.1,0.2,2.2-0.1,3-0.9l7.4-7.3
							C604.2,328.3,607.5,329.5,607.9,332.3z"/>
						<path d="M603.7,377c-1.2,0-2.3-0.5-3.2-1.4l-7.1-7.6c-0.5-0.6-1.3-0.9-2.1-0.7l-10.3,1.5c-1.7,0.2-3.3-0.5-4.2-1.8
							c-1-1.4-1-3.1-0.2-4.6l5-9.1c0.4-0.7,0.4-1.5,0-2.2l-4.6-9.3c-0.7-1.5-0.6-3.3,0.4-4.6c1-1.3,2.7-2,4.3-1.6l10.2,2
							c0.8,0.2,1.6-0.1,2.1-0.6l7.4-7.3c1.2-1.2,2.9-1.6,4.5-1c1.6,0.6,2.7,1.9,2.9,3.6l1.3,10.3c0.1,0.8,0.6,1.5,1.3,1.8l9.2,4.8
							c1.5,0.8,2.4,2.3,2.4,4c0,1.7-1,3.2-2.5,3.9l-9.4,4.4c-0.7,0.3-1.2,1-1.4,1.8l-1.7,10.2c-0.3,1.7-1.4,3-3,3.5
							C604.5,377,604.1,377,603.7,377z M591.6,365.3c1.2,0,2.4,0.5,3.2,1.4l7.1,7.6c0.6,0.7,1.6,0.9,2.5,0.7c0.9-0.3,1.5-1,1.7-1.9
							l1.7-10.3c0.2-1.4,1.2-2.6,2.5-3.2l9.4-4.4c0.9-0.4,1.4-1.2,1.4-2.1c0-0.9-0.5-1.8-1.3-2.2l-9.2-4.8c-1.3-0.7-2.1-1.9-2.3-3.3
							l-1.3-10.3l0,0c-0.1-0.9-0.7-1.7-1.6-2c-0.9-0.3-1.8-0.1-2.5,0.6l-7.4,7.3c-1,1-2.5,1.4-3.9,1.2l-10.2-2
							c-0.9-0.2-1.8,0.2-2.4,0.9c-0.6,0.7-0.7,1.7-0.2,2.5l4.6,9.3c0.6,1.3,0.6,2.8-0.1,4.1l-5,9.1c-0.5,0.8-0.4,1.8,0.1,2.5
							c0.5,0.8,1.4,1.1,2.3,1l10.3-1.5C591.2,365.3,591.4,365.3,591.6,365.3z"/>
					</g>
					<g>
						<path fill="#FFFFFF" d="M1103.6,149.1l3.7,6c0.4,0.6,1.1,1.1,1.8,1.1l7.1,0.4c1.9,0.1,2.9,2.3,1.6,3.8l-4.6,5.4
							c-0.5,0.6-0.7,1.4-0.5,2.1l1.8,6.8c0.5,1.8-1.3,3.5-3.1,2.7l-6.5-2.7c-0.7-0.3-1.5-0.2-2.1,0.2l-5.9,3.8
							c-1.6,1-3.7-0.2-3.5-2.1l0.6-7c0.1-0.8-0.3-1.5-0.8-2l-5.5-4.5c-1.5-1.2-0.9-3.6,0.9-4l6.9-1.6c0.7-0.2,1.3-0.7,1.6-1.4
							l2.5-6.6C1100.2,147.7,1102.6,147.5,1103.6,149.1z"/>
						<path d="M1095.6,180.1c-0.6,0-1.2-0.2-1.7-0.5c-1.1-0.6-1.7-1.8-1.6-3.1l0.6-7c0-0.4-0.1-0.9-0.5-1.1l-5.5-4.5
							c-1-0.8-1.4-2-1.1-3.3c0.3-1.2,1.2-2.2,2.4-2.5l6.9-1.6c0.4-0.1,0.8-0.4,0.9-0.8l2.5-6.6c0.5-1.2,1.5-2,2.8-2.1
							c1.2-0.1,2.4,0.5,3.1,1.6c0,0,0,0,0,0l3.7,6c0.2,0.4,0.6,0.6,1.1,0.6l7,0.4c1.3,0.1,2.3,0.8,2.8,2c0.5,1.2,0.3,2.5-0.5,3.4
							l-4.6,5.4c-0.3,0.3-0.4,0.8-0.3,1.2l1.8,6.8c0.3,1.2-0.1,2.5-1,3.3c-0.9,0.8-2.3,1-3.4,0.6l-6.5-2.7c-0.4-0.2-0.9-0.1-1.2,0.1
							l-5.9,3.8C1096.8,179.9,1096.2,180.1,1095.6,180.1z M1101.6,149c0,0-0.1,0-0.1,0c-0.5,0-0.9,0.4-1.1,0.8l-2.5,6.6
							c-0.4,1-1.2,1.8-2.3,2l-6.9,1.6c-0.5,0.1-0.9,0.5-1,1c-0.1,0.5,0.1,1,0.5,1.3l5.5,4.5c0.8,0.7,1.3,1.7,1.2,2.8l-0.6,7
							c0,0.5,0.2,1,0.6,1.2c0.4,0.3,1,0.3,1.4,0l5.9-3.8c0.9-0.6,2-0.7,3-0.3l6.5,2.7c0.5,0.2,1,0.1,1.4-0.2
							c0.4-0.3,0.5-0.8,0.4-1.3l-1.8-6.8c-0.3-1,0-2.2,0.7-3l4.6-5.4c0.3-0.4,0.4-0.9,0.2-1.4c-0.2-0.5-0.6-0.8-1.1-0.8l-7.1-0.4
							c-1.1-0.1-2.1-0.6-2.6-1.6l-3.7-6C1102.5,149.3,1102.1,149,1101.6,149z"/>
					</g>
					<g>
						<path fill="#FFFFFF" d="M492.9,457.9l3.2,5.2c0.2,0.3,0.4,0.4,0.7,0.4l6.1,0.3c0.7,0,1.1,0.9,0.6,1.5l-4,4.6
							c-0.2,0.2-0.3,0.5-0.2,0.8l1.6,5.9c0.2,0.7-0.5,1.4-1.2,1.1l-5.6-2.3c-0.3-0.1-0.6-0.1-0.8,0.1l-5.1,3.3
							c-0.6,0.4-1.4-0.1-1.4-0.8l0.5-6.1c0-0.3-0.1-0.6-0.3-0.8l-4.7-3.8c-0.6-0.5-0.4-1.4,0.4-1.6l5.9-1.4c0.3-0.1,0.5-0.3,0.6-0.6
							l2.2-5.7C491.5,457.3,492.5,457.2,492.9,457.9z"/>
						<path d="M487.6,479.9c-0.3,0-0.7-0.1-1-0.3c-0.6-0.4-1-1-0.9-1.8l0.5-6.1l-4.7-3.8c-0.6-0.5-0.8-1.2-0.6-1.9
							c0.2-0.7,0.7-1.2,1.4-1.4l5.9-1.4l2.1-5.6c0.3-0.7,0.9-1.1,1.6-1.2c0.7-0.1,1.4,0.3,1.8,0.9c0,0,0,0,0,0l3.2,5.2l6,0.3
							c0.7,0,1.3,0.5,1.6,1.1c0.3,0.7,0.2,1.4-0.3,2l-4,4.6l1.6,5.8c0.2,0.7,0,1.4-0.6,1.9c-0.5,0.5-1.3,0.6-2,0.3l-5.6-2.3l-5,3.3
							C488.4,479.8,488,479.9,487.6,479.9z M492.1,458.5l-2.1,5.6c-0.2,0.6-0.7,1-1.3,1.2l-5.9,1.4l4.8,3.7c0.5,0.4,0.7,1,0.7,1.6
							l-0.5,6.1l5-3.4c0.5-0.3,1.2-0.4,1.7-0.2l5.6,2.3l-1.7-5.8c-0.2-0.6,0-1.2,0.4-1.7l4-4.6l-6-0.2c-0.6,0-1.2-0.4-1.5-0.9
							L492.1,458.5z"/>
					</g>
					<g>
						<path fill="#FFFFFF" d="M536.8,439c0.9,0,1.3,0,2.1,0c4.9-5.1,10.3-9.8,14.5-15.6c3-4.2,5.3-9,5.8-14.1
							c0.5-5.1-0.9-10.6-4.4-14.3s-9.4-5.4-14.1-3.4c-3.7,1.6-6.3,5.6-6.4,9.5c0,1.1-1.2,1.8-2.1,1.2c-2.6-1.8-5.4-3.4-8.5-4.1
							c-4.2-0.9-9.2,0.5-11.1,4.4c-1.3,2.6-1,5.9,0.3,8.6c1.2,2.7,3.3,4.9,5.3,7.1C524.3,425.2,530.6,432.1,536.8,439z"/>
						<path d="M538.9,440C538.9,440,538.9,440,538.9,440l-2.1,0c-0.3,0-0.5-0.1-0.7-0.3l-18.8-20.7c-2-2.2-4.1-4.5-5.4-7.4
							c-1.5-3.3-1.6-6.8-0.3-9.4c2.2-4.4,7.8-5.8,12.2-4.9c3.5,0.7,6.6,2.7,8.8,4.2c0,0,0.2,0.1,0.4,0c0.1,0,0.2-0.1,0.2-0.4
							c0-4.4,2.9-8.7,7-10.4c4.9-2.1,11.2-0.6,15.2,3.6c3.5,3.7,5.3,9.3,4.7,15.1c-0.5,4.8-2.5,9.7-6,14.6c-3,4.3-6.8,8-10.5,11.6
							c-1.4,1.4-2.7,2.7-4.1,4.1C539.5,439.9,539.2,440,538.9,440z M537.3,438l1.3,0c1.2-1.3,2.5-2.5,3.8-3.8
							c3.6-3.6,7.3-7.2,10.3-11.4c3.3-4.6,5.2-9.2,5.6-13.7c0.5-5.2-1-10.2-4.2-13.5c-3.4-3.6-8.9-4.9-13-3.2
							c-3.3,1.4-5.7,5-5.8,8.6c0,0.9-0.5,1.7-1.3,2.2c-0.8,0.4-1.7,0.3-2.4-0.2c-2.1-1.5-5-3.3-8.1-3.9c-3.6-0.8-8.3,0.3-10.1,3.8
							c-1.1,2.1-1,5,0.3,7.7c1.2,2.6,3.2,4.8,5.1,6.9L537.3,438z"/>
					</g>
					<g>
						<path fill="#FFFFFF" d="M1149.8,408.6c1.5-3,2.4-6.5,1.4-9.7c-1-3.2-4.3-5.8-7.6-5.1c-2.1,0.5-3.7,2.1-4.6,4
							c-1,1.9-1.3,4-1.7,6.1c-1.8-2-3.8-4.1-6.4-4.8s-6,0.8-6.2,3.5c-0.2,1.6,0.7,3,1.6,4.3c3.1,4.8,6.2,9.7,9.3,14.5
							C1141.6,419.2,1146.9,414.5,1149.8,408.6z"/>
						<path d="M1135.5,422.4c-0.3,0-0.6-0.2-0.8-0.5l-9.3-14.5c-0.8-1.3-1.9-3-1.7-5c0.1-1.3,0.9-2.5,2.1-3.4c1.5-1.1,3.6-1.4,5.4-1
							c2.3,0.6,4.1,2.1,5.6,3.6c0.3-1.5,0.7-3,1.4-4.4c1.2-2.4,3.1-4,5.3-4.5c3.9-0.9,7.6,2.3,8.7,5.7c1.2,3.8-0.1,7.8-1.5,10.4l0,0
							c-3,6.1-8.4,11-14.9,13.3C1135.7,422.4,1135.6,422.4,1135.5,422.4z M1129.5,399.9c-1,0-1.9,0.3-2.7,0.8
							c-0.5,0.4-1.1,1-1.2,1.9c-0.1,1.2,0.6,2.4,1.4,3.7l8.9,13.8c5.6-2.3,10.4-6.6,13-12.1l0,0c1.1-2.3,2.3-5.8,1.3-9
							c-0.8-2.6-3.6-5-6.4-4.4c-1.6,0.4-3,1.6-4,3.5c-0.9,1.8-1.3,3.8-1.6,5.8c-0.1,0.4-0.3,0.7-0.7,0.8c-0.4,0.1-0.7,0-1-0.3
							c-1.6-1.7-3.5-3.8-6-4.5C1130.2,400,1129.9,399.9,1129.5,399.9z"/>
					</g>
					<g>
						<path fill="#FFFFFF" d="M1098.5,235.6c0.8-2.4,2.2-4.5,3.5-6.8c1.2-2.2,2.2-4.7,2.1-7.2c-0.2-2.5-1.8-5.1-4.3-5.6
							c-2.5-0.5-5.3,2-4.5,4.4c-0.5-1.8-3.2-2.3-4.7-1.2s-2,3.2-1.8,5.1C1089.3,229.4,1094.1,232.8,1098.5,235.6z"/>
						<path d="M1098.5,236.5c-0.2,0-0.4-0.1-0.5-0.1c-4.6-2.9-9.6-6.4-10.3-12c-0.3-2,0.2-4.6,2.2-6c1.1-0.8,2.6-1,3.9-0.5
							c0.2,0.1,0.4,0.1,0.6,0.2c0.2-0.5,0.5-0.9,0.9-1.4c1.2-1.3,3-2,4.7-1.7c3.1,0.6,4.9,3.7,5.1,6.5c0.2,3-1.1,5.7-2.2,7.7
							c-0.3,0.6-0.7,1.2-1,1.7c-0.9,1.6-1.8,3.2-2.4,4.9c-0.1,0.3-0.3,0.5-0.6,0.6C1098.7,236.5,1098.6,236.5,1098.5,236.5z
							 M1092.3,219.6c-0.5,0-1,0.1-1.3,0.4c-1.3,0.9-1.6,2.9-1.4,4.2c0.5,4.3,4.5,7.4,8.4,9.9c0.6-1.4,1.4-2.8,2.1-4.1
							c0.3-0.6,0.7-1.1,1-1.7c1-1.8,2.1-4.2,2-6.7c-0.1-2-1.4-4.3-3.5-4.7c-0.9-0.2-2.1,0.2-2.8,1.1c-0.3,0.3-0.9,1.1-0.6,2.1
							c0,0,0,0,0,0c0.2,0.5-0.1,1.1-0.7,1.2c-0.5,0.2-1.1-0.1-1.2-0.7c0,0,0,0,0,0c-0.2-0.6-0.7-0.9-1-1
							C1092.9,219.6,1092.6,219.6,1092.3,219.6z"/>
					</g>
					<g>
						<path fill="#FFFFFF" d="M979.1,134.1c0.3-2.7,0.3-5.4-0.6-7.9c-0.9-2.5-2.9-4.8-5.5-5.4c-3.6-0.9-7.3,1.6-9.1,4.9
							s-2.1,7.1-2.3,10.8c-2.1-1.4-4.2-2.9-6.7-3.3s-5.4,0.4-6.5,2.7c-0.8,1.7-0.5,3.7,0.4,5.4c0.9,1.6,2.2,3,3.6,4.3
							c5.2,5,10.4,10,15.6,15C974.2,153,978.1,143.7,979.1,134.1z"/>
						<path d="M967.9,161.4c-0.3,0-0.5-0.1-0.7-0.3l-15.6-15c-1.3-1.3-2.8-2.7-3.8-4.5c-1.1-2.1-1.3-4.5-0.4-6.3
							c1.4-2.9,4.9-3.7,7.5-3.2c2.1,0.4,4,1.4,5.7,2.5c0.2-3.2,0.7-6.5,2.3-9.5c1.9-3.4,6-6.4,10.2-5.3c2.7,0.7,5.1,3,6.2,6
							c1,2.9,0.9,6,0.7,8.4c0,0,0,0,0,0c-1,9.8-5,19.3-11.4,26.8C968.5,161.2,968.3,161.4,967.9,161.4
							C968,161.4,968,161.4,967.9,161.4z M953.7,134c-1.7,0-3.6,0.7-4.4,2.3c-0.6,1.2-0.5,2.9,0.3,4.5c0.8,1.5,2.1,2.8,3.4,4
							l14.8,14.3c5.7-7.1,9.4-15.9,10.3-25v0c0.2-2.2,0.3-5-0.6-7.5c-0.9-2.4-2.7-4.3-4.8-4.8c-3.2-0.8-6.5,1.7-8,4.4
							c-1.7,3.1-2,7-2.2,10.4c0,0.4-0.2,0.7-0.5,0.8c-0.3,0.2-0.7,0.1-1-0.1c-1.9-1.3-4-2.7-6.3-3.1C954.4,134,954,134,953.7,134z"
							/>
					</g>
				</g>
				<g>
					<g>
						<path d="M673.5,412.2c-0.4,0-0.8-0.3-0.9-0.7c-0.1-0.2-1.3-4.3-2.6-11.6c-0.1-0.5,0.3-1,0.8-1.1c0.5-0.1,1,0.3,1.1,0.8
							c1.3,7.2,2.5,11.3,2.6,11.3c0.2,0.5-0.1,1.1-0.6,1.2C673.7,412.2,673.6,412.2,673.5,412.2z"/>
					</g>
					<g>
						<path d="M668.5,380c-0.5,0-0.9-0.4-1-0.9c-0.2-3.7-0.3-7.5-0.3-11.2c0-3.2,0.1-6.5,0.2-9.8c0-0.5,0.5-1,1-0.9
							c0.5,0,1,0.5,0.9,1c-0.2,3.2-0.2,6.5-0.2,9.7c0,3.7,0.1,7.5,0.3,11.1C669.5,379.5,669.1,380,668.5,380
							C668.5,380,668.5,380,668.5,380z M670.6,338.4c-0.1,0-0.1,0-0.2,0c-0.5-0.1-0.9-0.6-0.8-1.1c1.1-6.9,2.6-13.8,4.5-20.5
							c0.1-0.5,0.7-0.8,1.2-0.7c0.5,0.1,0.8,0.7,0.7,1.2c-1.8,6.6-3.3,13.5-4.5,20.3C671.5,338,671,338.4,670.6,338.4z M681.8,298.2
							c-0.1,0-0.2,0-0.4-0.1c-0.5-0.2-0.7-0.8-0.5-1.3c2.6-6.4,5.6-12.8,9-19c0.3-0.5,0.9-0.7,1.3-0.4c0.5,0.3,0.7,0.9,0.4,1.3
							c-3.3,6.1-6.3,12.4-8.9,18.8C682.5,297.9,682.2,298.2,681.8,298.2z"/>
					</g>
					<g>
						<path d="M701.7,261.5c-0.2,0-0.4-0.1-0.6-0.2c-0.4-0.3-0.6-0.9-0.2-1.4c2.2-3.2,4.6-6.4,7-9.5c0.3-0.4,0.9-0.5,1.4-0.2
							c0.4,0.3,0.5,1,0.2,1.4c-2.4,3.1-4.7,6.2-7,9.4C702.3,261.3,702,261.5,701.7,261.5z"/>
					</g>
				</g>
				<g>
					<path d="M850.9,497.1c-0.5,0-1-0.4-1-1c0-0.5,0.4-1,1-1c1.9,0,3.9-0.1,5.8-0.3c0.6,0,1,0.4,1,0.9c0,0.5-0.4,1-0.9,1
						C854.9,496.9,852.9,497,850.9,497.1C851,497.1,850.9,497.1,850.9,497.1z M841.1,496.9C841.1,496.9,841.1,496.9,841.1,496.9
						c-2-0.1-4-0.3-6-0.5c-0.5-0.1-0.9-0.5-0.9-1.1c0.1-0.5,0.5-0.9,1.1-0.9c1.9,0.2,3.9,0.4,5.8,0.5c0.5,0,1,0.5,0.9,1
						C842.1,496.5,841.7,496.9,841.1,496.9z M866.5,495.8c-0.5,0-0.9-0.4-1-0.8c-0.1-0.5,0.3-1,0.8-1.1c1.9-0.3,3.8-0.6,5.8-0.9
						c0.5-0.1,1,0.3,1.1,0.8c0.1,0.5-0.3,1-0.8,1.1c-1.9,0.4-3.9,0.7-5.8,0.9C866.6,495.8,866.6,495.8,866.5,495.8z M825.6,495
						c-0.1,0-0.1,0-0.2,0c-1.9-0.4-3.9-0.8-5.8-1.2c-0.5-0.1-0.9-0.7-0.7-1.2c0.1-0.5,0.7-0.9,1.2-0.7c1.9,0.4,3.8,0.8,5.7,1.2
						c0.5,0.1,0.9,0.6,0.8,1.1C826.5,494.7,826.1,495,825.6,495z M881.9,492.8c-0.4,0-0.8-0.3-0.9-0.7c-0.1-0.5,0.2-1.1,0.7-1.2
						c1.9-0.5,3.8-1,5.6-1.5c0.5-0.1,1.1,0.1,1.2,0.7c0.2,0.5-0.1,1.1-0.7,1.2c-1.9,0.6-3.8,1.1-5.7,1.6
						C882.1,492.7,882,492.8,881.9,492.8z M810.4,491.1c-0.1,0-0.2,0-0.3,0c-1.9-0.6-3.8-1.3-5.6-2c-0.5-0.2-0.8-0.8-0.6-1.3
						c0.2-0.5,0.8-0.8,1.3-0.6c1.8,0.7,3.6,1.3,5.5,1.9c0.5,0.2,0.8,0.7,0.6,1.2C811.2,490.9,810.8,491.1,810.4,491.1z M896.9,488.2
						c-0.4,0-0.8-0.2-0.9-0.6c-0.2-0.5,0.1-1.1,0.6-1.3c1.8-0.7,3.7-1.4,5.5-2.1c0.5-0.2,1.1,0,1.3,0.5c0.2,0.5,0,1.1-0.5,1.3
						c-1.8,0.7-3.7,1.4-5.5,2.1C897.1,488.2,897,488.2,896.9,488.2z M795.9,485.3c-0.1,0-0.3,0-0.4-0.1c-1.8-0.9-3.5-1.8-5.3-2.7
						c-0.5-0.3-0.6-0.9-0.4-1.3c0.3-0.5,0.9-0.6,1.3-0.4c1.7,0.9,3.4,1.8,5.2,2.7c0.5,0.2,0.7,0.8,0.5,1.3
						C796.6,485.1,796.3,485.3,795.9,485.3z M911.4,482.2c-0.4,0-0.7-0.2-0.9-0.6c-0.2-0.5,0-1.1,0.5-1.3c1.8-0.8,3.5-1.7,5.3-2.6
						c0.5-0.2,1.1-0.1,1.3,0.4c0.2,0.5,0.1,1.1-0.4,1.3c-1.8,0.9-3.5,1.8-5.3,2.6C911.7,482.1,911.5,482.2,911.4,482.2z
						 M782.4,477.4c-0.2,0-0.4-0.1-0.6-0.2c-1.6-1.1-3.2-2.3-4.8-3.5c-0.4-0.3-0.5-0.9-0.2-1.4c0.3-0.4,0.9-0.5,1.4-0.2
						c1.5,1.2,3.1,2.3,4.7,3.4c0.4,0.3,0.6,0.9,0.3,1.4C783,477.3,782.7,477.4,782.4,477.4z M925.3,474.8c-0.3,0-0.7-0.2-0.8-0.5
						c-0.3-0.5-0.1-1.1,0.4-1.3c1.7-1,3.4-2,5-3c0.5-0.3,1.1-0.2,1.4,0.3s0.2,1.1-0.3,1.4c-1.7,1-3.3,2.1-5.1,3.1
						C925.6,474.8,925.5,474.8,925.3,474.8z M770.1,467.7c-0.2,0-0.5-0.1-0.7-0.3c-1.4-1.3-2.9-2.7-4.3-4.1c-0.4-0.4-0.4-1,0-1.4
						c0.4-0.4,1-0.4,1.4,0c1.4,1.4,2.8,2.8,4.2,4.1c0.4,0.4,0.4,1,0.1,1.4C770.6,467.6,770.4,467.7,770.1,467.7z M938.4,466.3
						c-0.3,0-0.6-0.1-0.8-0.4c-0.3-0.4-0.2-1.1,0.2-1.4c1.6-1.1,3.2-2.3,4.7-3.5c0.4-0.3,1-0.2,1.4,0.2c0.3,0.4,0.2,1-0.2,1.4
						c-1.6,1.2-3.1,2.4-4.8,3.5C938.8,466.3,938.6,466.3,938.4,466.3z M950.8,456.6c-0.3,0-0.5-0.1-0.7-0.3c-0.4-0.4-0.3-1,0.1-1.4
						c1.5-1.3,2.9-2.6,4.4-3.9c0.4-0.4,1-0.3,1.4,0.1c0.4,0.4,0.3,1-0.1,1.4c-1.4,1.3-2.9,2.7-4.4,3.9
						C951.2,456.6,951,456.6,950.8,456.6z M759.3,456.3c-0.3,0-0.6-0.1-0.8-0.4c-1.3-1.5-2.5-3.1-3.7-4.7c-0.3-0.4-0.2-1,0.2-1.4
						c0.4-0.3,1-0.2,1.4,0.2c1.2,1.6,2.4,3.1,3.6,4.6c0.3,0.4,0.3,1-0.1,1.4C759.8,456.2,759.6,456.3,759.3,456.3z M962.1,445.8
						c-0.2,0-0.5-0.1-0.7-0.3c-0.4-0.4-0.4-1,0-1.4c1.3-1.4,2.7-2.9,3.9-4.3c0.4-0.4,1-0.4,1.4-0.1c0.4,0.4,0.5,1,0.1,1.4
						c-1.3,1.5-2.6,2.9-4,4.4C962.6,445.7,962.4,445.8,962.1,445.8z M750.1,443.6c-0.3,0-0.6-0.2-0.8-0.5c-1-1.7-2.1-3.4-3.1-5.1
						c-0.3-0.5-0.1-1.1,0.4-1.3c0.5-0.3,1.1-0.1,1.3,0.4c1,1.7,2,3.4,3,5c0.3,0.5,0.2,1.1-0.3,1.4
						C750.5,443.6,750.3,443.6,750.1,443.6z M972.2,433.8c-0.2,0-0.4-0.1-0.6-0.2c-0.4-0.3-0.5-0.9-0.2-1.4c1.2-1.6,2.3-3.2,3.4-4.8
						c0.3-0.4,0.9-0.6,1.4-0.3c0.4,0.3,0.6,0.9,0.3,1.4c-1.1,1.6-2.3,3.2-3.4,4.8C972.8,433.7,972.5,433.8,972.2,433.8z
						 M742.6,429.9c-0.4,0-0.7-0.2-0.9-0.6c-0.8-1.8-1.7-3.6-2.4-5.4c-0.2-0.5,0-1.1,0.5-1.3c0.5-0.2,1.1,0,1.3,0.5
						c0.8,1.8,1.6,3.6,2.4,5.3c0.2,0.5,0,1.1-0.5,1.3C742.9,429.8,742.7,429.9,742.6,429.9z M980.8,420.7c-0.2,0-0.3,0-0.5-0.1
						c-0.5-0.3-0.6-0.9-0.4-1.3c1-1.7,1.8-3.5,2.7-5.2c0.2-0.5,0.8-0.7,1.3-0.5c0.5,0.2,0.7,0.8,0.5,1.3c-0.8,1.7-1.7,3.5-2.7,5.3
						C981.5,420.5,981.1,420.7,980.8,420.7z M736.7,415.3c-0.4,0-0.8-0.3-0.9-0.7c-1.2-3.6-1.6-5.7-1.7-5.8
						c-0.1-0.5,0.2-1.1,0.7-1.2c0.5-0.1,1.1,0.2,1.2,0.7c0,0,0.5,2.1,1.6,5.6c0.2,0.5-0.1,1.1-0.6,1.2
						C736.9,415.3,736.8,415.3,736.7,415.3z M987.2,406.4c-0.1,0-0.2,0-0.3-0.1c-0.5-0.2-0.8-0.7-0.6-1.2c0.6-1.9,1.2-3.7,1.7-5.6
						c0.1-0.5,0.7-0.8,1.2-0.7c0.5,0.1,0.8,0.7,0.7,1.2c-0.5,1.9-1.1,3.8-1.7,5.7C988,406.2,987.6,406.4,987.2,406.4z M990.6,391.2
						c0,0-0.1,0-0.1,0c-0.5-0.1-0.9-0.5-0.9-1.1c0.2-1.9,0.3-3.9,0.3-5.8c0-0.5,0.4-1,1-1h0c0.5,0,1,0.4,1,1c0,2-0.1,4-0.3,6
						C991.5,390.8,991.1,391.2,990.6,391.2z"/>
				</g>
				<g>
					<path d="M1360.5,607c-8.6-17.8-26.5-34.4-45.9-30.3c10.6-13.6,8.8-34.8-2.6-47.7c-11.4-12.9-30.7-17.6-47.4-13.2
						c-16.7,4.4-30.7,16.8-38.9,32c-8.2,15.2-11.1,32.9-10.4,50.2c-4.6-1.6-10.2,0.1-13.1,4c-2.9,3.9-3,9.7-0.2,13.7
						c-14.3-14.7-35.1-22-55.6-21.2c-183.6-115-400.8-98.8-558.5,33.3c-14.2-14.2-35.9-20.5-55.5-16c-20.2,4.6-37.4,20.6-43.5,40.4
						c-10.8-9-29.6-5.3-36.2,7.1c-4.6-14-12.9-27-25-35.4c-12.1-8.4-28.2-11.5-42-6.2c-13.7,5.3-23.9,19.8-22.5,34.4
						c1.8,17.9,18.5,30,33.7,39.7c-15.2,6.3-26.3,21.6-27.6,38c-1.3,16.4,7.4,33.2,21.5,41.8c-10,6.6-16.3,18.7-15.8,30.7
						c0.4,12,7.4,23.6,17.9,29.6c3.1,21.6,18.3,41,38.5,49.2c20.2,8.2,44.7,4.7,61.8-8.7c17.8,14,43,18,64.3,10.3
						c21.3-7.7,38.1-26.8,43-48.9c0.6,0.6,1.2,1.2,1.9,1.7c-0.6,1.1-1.2,2.2-1.8,3.3c-7.9,15.2-13.1,34.1-4.5,48.8
						c5.2,9,14.6,14.6,23.6,19.8c18.6,10.8,37.4,21.7,57.7,28.9c49.9,17.8,107.9,11.2,152.6-17.1c26.8,23.8,53.9,33.9,85.7,50.3
						c31.9,16.4,69.5,23.6,103.9,13.7c34.5-9.9,64-25.7,65.2-61.5c25.2,7.9,54.6,2.9,74.1-14.9c19.5-17.8,26.8-48.6,15-72.2
						c-1.6-3.2-3.5-6.1-5.7-8.9c6.3-2.2,12-5.9,16.4-10.8c7.6,11.6,22.7,17.7,36.2,14.6c13.5-3,24.6-15,26.5-28.7
						c17.8,14.5,46.2,13.8,63.2-1.6s20.6-43.5,8-62.7c22-11.9,39.2-32.6,47-56.4C1373.2,656.4,1371.4,629.6,1360.5,607z M1062.5,701
						c-5.5,6-6.8,15.5-3,22.7c-12.2-4.4-26.4-0.7-36.6,7.4c-16.1,12.8-22.2,35.8-16.8,55.6c-12.1-7.8-29.2-6.8-40.2,2.6
						c-13.5-33.4-48.4-56.9-84.4-56.8c-36,0.1-70.8,23.7-84.2,57.1c-11.6-9.8-32.6-3.9-37.3,10.6c-18.6-22.7-50.6-31.6-79.6-26.1
						c-1.8-6.4-5.2-12.5-9.6-17.6c-6.7-7.7-15.2-13.3-24.2-18.1c121.6-107.3,290.6-125.5,436.2-42.7
						C1075.8,693.5,1067.5,695.6,1062.5,701z"/>
					<path d="M988.2,991.4c-23.9,0-49.4-5.6-74.3-18.4c-31.6-16.3-58.5-25.9-84.4-49c-45.2,27.5-103.7,33.7-153.5,16
						c-20.7-7.4-39.8-18.5-58.4-29.2c-8.5-5-19.1-11.1-25-21.2c-4.2-7.2-5.4-15.1-4.9-22.9c-7.9,8.8-17.8,15.8-28.9,19.8
						c-21.6,7.8-47,4.1-65.6-9.1c-18.1,12.8-42.7,15.8-63.3,7.4c-21-8.5-36.8-28.1-40.6-50.4c-10.7-6.8-17.8-19.1-18.3-31.8
						c-0.4-11.5,4.7-23,13.2-30.7c-12.6-9.9-20-26.2-18.8-42.3c1.2-15.5,10.4-30.1,23.7-38.2c-14.3-9.7-28-21.6-29.8-38.9
						c-1.6-15.8,9.1-32.3,24.9-38.4c14.3-5.5,31.7-3,45.6,6.6c10.1,7,18.4,17.7,24,30.6c3.8-3.7,8.9-6.3,14.6-7.5
						c6.6-1.3,13-0.4,18.5,2.3c7.7-18.9,24.7-33.6,44.6-38.2c19.6-4.5,41.4,1.2,56.5,14.6c78-64.4,171-101.7,269.1-108
						c100-6.4,200.3,19.9,290.3,76c17.8-0.4,35.3,5,48.8,15c0.5-2.1,1.3-4.2,2.7-5.9c2.9-3.8,7.5-6,12.2-6.2
						c0-17.8,3.7-34.1,11-47.5c9.3-17.1,24.4-29.5,41.4-34c18.8-4.9,39.4,0.9,51.4,14.4c11.2,12.6,13.7,31.4,7,45.8
						c18.3,0.7,34.2,16.7,42.1,33.1c11.3,23.5,13.2,51.3,5.1,76.1c-7.6,23.5-24,44-45.3,56.6c11,20.5,6.6,48.5-10.8,64.2
						c-16.9,15.3-44.1,17.2-63.4,5.3c-4.1,12.7-15,23-28.1,26c-13.7,3.1-28.4-2-37.5-12.5c-2.9,2.6-6.3,4.8-9.9,6.6
						c1.2,1.8,2.2,3.6,3.1,5.4c12.2,24.4,5.4,57.4-15.8,76.8c-18.7,17.1-46.9,23.6-73.2,17c-3.5,33.6-31.3,49.8-67.7,60.2
						C1010.3,990,999.4,991.4,988.2,991.4z M829.9,915.2c0.9,0,1.9,0.3,2.6,1c26.2,23.3,53.3,33.5,84.9,49.8
						c34.9,18,70.8,22.1,101,13.4c35.1-10,61.3-25.7,62.4-57.9c0-1.2,0.7-2.4,1.6-3.1c1-0.7,2.3-0.9,3.4-0.5
						c24.9,7.8,52.5,2.3,70.3-14c18.7-17.1,24.8-46.2,14.1-67.5c-1.4-2.8-3.2-5.6-5.3-8.1c-0.8-1-1.1-2.3-0.7-3.5
						c0.3-1.2,1.3-2.2,2.5-2.6c5.8-2,10.9-5.4,14.8-9.7c0.8-0.9,2-1.4,3.2-1.3c1.2,0.1,2.3,0.7,3,1.8c6.7,10.2,20.2,15.6,32.1,13
						c11.9-2.7,21.8-13.4,23.5-25.4c0.2-1.4,1.1-2.6,2.5-3.1c1.3-0.5,2.8-0.3,3.9,0.6c16.4,13.3,42.5,12.7,58.1-1.5
						c15.7-14.2,19-40,7.4-57.7c-0.6-0.9-0.8-2-0.5-3.1c0.3-1.1,1-2,1.9-2.5c21.2-11.5,37.7-31.2,45.1-54.2
						c7.4-22.9,5.7-48.6-4.7-70.3l0,0c-7.7-16.1-24.1-31.8-41.5-28.1c-1.6,0.3-3.3-0.4-4.1-1.8c-0.9-1.4-0.8-3.2,0.2-4.5
						c9.1-11.7,8-30.8-2.5-42.7c-10-11.4-27.5-16.2-43.5-12c-14.9,3.9-28.2,14.9-36.5,30.1c-7.2,13.3-10.7,30-10,48.1
						c0.1,1.3-0.5,2.5-1.6,3.3c-1,0.8-2.4,1-3.6,0.5c-3-1-6.8,0.1-8.7,2.6c-1.9,2.5-1.9,6.5-0.1,9.1c1.2,1.7,0.9,4-0.7,5.3
						c-1.6,1.3-3.9,1.2-5.3-0.3c-12.9-13.3-32.6-20.8-52.6-20c-0.8,0-1.6-0.2-2.2-0.6c-178.8-112-396.3-99-553.9,33
						c-1.6,1.3-3.9,1.2-5.3-0.2c-13.3-13.3-33.6-19.2-51.8-15c-18.9,4.4-34.9,19.2-40.6,37.7c-0.4,1.3-1.4,2.2-2.6,2.6
						c-1.3,0.4-2.6,0.1-3.6-0.7c-4.2-3.5-10.3-4.9-16.4-3.7c-6.1,1.2-11.3,4.8-13.8,9.6c-0.7,1.4-2.2,2.2-3.8,2.1
						c-1.6-0.1-2.9-1.2-3.4-2.7c-4.8-14.3-13.1-26.2-23.5-33.4c-11.8-8.1-26.4-10.3-38.3-5.8c-12.7,4.9-21.2,17.9-20,30.3
						c1.7,16.2,17.3,27.5,31.9,36.8c1.2,0.8,1.9,2.2,1.8,3.6c-0.1,1.5-1.1,2.7-2.4,3.3c-13.9,5.7-24,19.7-25.2,34.7
						c-1.2,15,6.7,30.3,19.6,38.1c1.1,0.7,1.9,1.9,1.9,3.3c0,1.3-0.6,2.6-1.8,3.3c-8.9,5.9-14.5,16.6-14.1,27.3
						c0.4,10.7,6.6,21,15.9,26.3c1.1,0.6,1.8,1.7,1.9,2.9c2.9,20.3,17.1,38.4,36.1,46.1c19,7.7,41.8,4.5,58-8.2
						c1.4-1.1,3.4-1.1,4.8,0c16.8,13.1,40.5,16.9,60.5,9.7c20-7.2,35.9-25.3,40.5-46.1c0.3-1.4,1.4-2.5,2.8-2.9c1.4-0.4,2.9,0,3.9,1
						c0.5,0.5,1,1,1.6,1.5c1.4,1.2,1.8,3.2,0.9,4.9l-0.4,0.8c-0.4,0.8-0.9,1.6-1.3,2.4c-5.4,10.5-13.3,30.2-4.6,45.1
						c4.9,8.3,14.1,13.7,22.2,18.4c18.2,10.6,37,21.5,57,28.6c48.5,17.3,105.7,10.8,149.2-16.8C828.4,915.4,829.2,915.2,829.9,915.2
						z M760,804c-1.2,0-2.3-0.5-3-1.4c-16.8-20.5-46.5-30.2-75.8-24.7c-2,0.4-4-0.8-4.5-2.8c-1.6-5.7-4.6-11.3-8.8-16
						c-5.4-6.2-12.5-11.5-23.1-17.2c-1.1-0.6-1.9-1.7-2-3c-0.1-1.3,0.3-2.5,1.3-3.4c60.5-53.4,133.6-85.8,211.3-93.6
						c78.2-7.9,157.6,9.6,229.5,50.4c1.7,1,2.5,3.1,1.7,5c-0.8,1.8-2.8,2.8-4.7,2.2c-5.7-1.7-12.4,0.1-16.3,4.3l0,0
						c-4.4,4.8-5.4,12.4-2.4,18.2c0.8,1.4,0.6,3.2-0.5,4.4c-1.1,1.2-2.8,1.7-4.3,1.1c-10.2-3.7-23.1-1-32.8,6.8
						c-14.3,11.4-20.6,32.6-15.4,51.5c0.4,1.6-0.2,3.2-1.5,4.2c-1.3,1-3.1,1-4.4,0.1c-10.7-6.9-26-5.9-35.5,2.2
						c-1,0.8-2.2,1.1-3.5,0.8c-1.2-0.3-2.2-1.2-2.7-2.3c-13-32-46.1-54.3-80.7-54.3c0,0-0.1,0-0.1,0c-34.6,0.1-67.7,22.5-80.6,54.6
						c-0.5,1.2-1.5,2-2.7,2.3c-1.2,0.3-2.5,0-3.5-0.8c-4.5-3.8-11.1-4.9-17.6-3c-6.6,1.9-11.6,6.3-13.4,11.9c-0.4,1.4-1.6,2.4-3,2.6
						C760.4,804,760.2,804,760,804z M697.4,768.5c23.8,0,46.4,8.9,61.6,24.7c3.5-5.3,9.1-9.3,15.9-11.2c7.2-2.1,14.6-1.4,20.6,1.7
						c15.2-32.6,49.9-55.1,86-55.1c0,0,0.1,0,0.1,0c36,0,70.6,22.2,85.9,54.7c9.8-6.1,22.3-7.4,33.2-3.5
						c-2.5-19.7,5.1-40.1,19.7-51.7c9.9-7.9,22.1-11.3,33.2-9.8c-1-7.1,1.1-14.6,5.9-19.9c2.5-2.7,5.6-4.7,9.1-6
						c-139.5-73.3-297-56.4-415.4,45.3c8.8,5.2,15.2,10.3,20.4,16.2c4.1,4.7,7.3,10.1,9.3,15.7C687.9,768.8,692.7,768.5,697.4,768.5
						z"/>
				</g>
				<g>
					<g>
						<path fill="#FFFFFF" d="M760,800.1c4.7-14.5,25.7-20.4,37.3-10.6c13.4-33.4,48.2-57,84.2-57.1c36-0.1,70.9,23.4,84.4,56.8
							c11.5-9.9,29.9-10.4,42-1.3c12-18.2,35.7-27.8,56.9-23.1s38.7,23.4,41.9,45c23.9-11.2,55.2,1.4,67,25
							c11.8,23.6,4.5,54.4-15,72.2s-48.9,22.7-74.1,14.9c-1.2,35.8-30.8,51.6-65.2,61.5c-34.5,9.9-72.1,2.7-103.9-13.7
							s-59-26.5-85.7-50.3c-44.7,28.4-102.7,34.9-152.6,17.1c-20.3-7.2-39.1-18.1-57.7-28.9c-9-5.2-18.4-10.8-23.6-19.8
							c-8.6-14.8-3.4-33.7,4.5-48.8c15-28.7,39.9-53.3,71-62.6S739.5,775,760,800.1z"/>
						<path d="M988.2,988.5c-23.4,0-48.5-5.5-73-18.1c-31.9-16.5-59.1-26.6-85.4-50c-44.7,28-103.1,34.5-152.8,16.8
							c-20.5-7.3-39.5-18.3-57.9-29c-8.2-4.8-18.5-10.7-24-20.2c-9.4-16-2.7-35.9,4.5-49.8c16.3-31.4,42.4-54.4,71.5-63.1
							c32.4-9.7,68.4-0.3,88.5,23c2.7-6.3,8.6-11.3,16.1-13.4c7.7-2.2,15.4-1,21.1,3.2c13.9-33.3,48.6-56.4,84.7-56.5
							c0,0,0.1,0,0.1,0c36,0,70.6,23,84.7,56.2c11.6-9.1,29.3-9.6,41.4-1.1c12.3-17.8,36.2-27.4,57.4-22.7
							c21.4,4.7,38.7,22.9,42.5,44.5c23.8-10.3,54.9,1.6,67.1,25.9c11.6,23.2,5.1,54.8-15.2,73.3c-18.8,17.2-47.6,23.2-73.8,15.4
							c-1.8,33.8-29.3,50.7-65.9,61.2C1009.8,987.1,999.2,988.5,988.2,988.5z M829.9,918.2c0.2,0,0.5,0.1,0.7,0.2
							c26.4,23.5,53.6,33.7,85.5,50.2c35.6,18.3,72.2,22.5,103.2,13.7c36.3-10.4,63.4-27.2,64.5-60.6c0-0.3,0.2-0.6,0.4-0.8
							c0.3-0.2,0.6-0.2,0.9-0.1c25.9,8.1,54.6,2.3,73.1-14.7c19.7-18,26-48.5,14.7-71c-11.9-23.8-42.6-35.3-65.7-24.5
							c-0.3,0.1-0.6,0.1-0.9,0c-0.3-0.1-0.5-0.4-0.5-0.7c-3.1-21-20.4-39.6-41.2-44.1c-20.7-4.6-44.2,5-55.9,22.7
							c-0.1,0.2-0.4,0.4-0.7,0.4c-0.3,0-0.5,0-0.8-0.2c-11.7-8.9-29.7-8.3-40.8,1.3c-0.2,0.2-0.6,0.3-0.9,0.2
							c-0.3-0.1-0.6-0.3-0.7-0.6c-13.4-33.1-47.7-56.2-83.4-56.2c0,0-0.1,0-0.1,0c-35.8,0.1-70,23.3-83.3,56.5
							c-0.1,0.3-0.4,0.5-0.7,0.6c-0.3,0.1-0.6,0-0.9-0.2c-5.2-4.4-12.8-5.8-20.3-3.6c-7.5,2.1-13.3,7.3-15.4,13.8
							c-0.1,0.3-0.4,0.6-0.8,0.7c-0.4,0.1-0.7-0.1-0.9-0.3c-19.3-23.6-55.3-33.3-87.5-23.7c-28.6,8.6-54.3,31.3-70.4,62.2
							c-7,13.4-13.5,32.6-4.5,47.9c5.2,9,14.8,14.5,23.3,19.4c18.3,10.6,37.2,21.6,57.5,28.8c49.4,17.6,107.5,11,151.7-17
							C829.5,918.2,829.7,918.2,829.9,918.2z"/>
					</g>
					<g>
						<g>
							<path fill="#FFFFFF" d="M1197,661.7C964.5,466.9,649.4,519.1,492.1,778.4c-6.3-5.3-12.6-10.6-18.8-15.9
								c164.3-270.9,493.6-325.4,736.5-122C1205.5,647.6,1201.2,654.6,1197,661.7z"/>
							<path d="M492.1,779.4c-0.2,0-0.5-0.1-0.6-0.2l-18.8-15.9c-0.4-0.3-0.5-0.8-0.2-1.3C552,630.7,672.6,545.7,811.8,522.7
								c139.3-23.1,280.8,18.5,398.5,117.1c0.4,0.3,0.5,0.8,0.2,1.3l-12.7,21.1c-0.1,0.2-0.4,0.4-0.7,0.5c-0.3,0-0.6,0-0.8-0.2
								c-112.2-94-247.1-133.6-379.9-111.7c-132.7,22-247.7,103-323.6,228.2c-0.1,0.2-0.4,0.4-0.7,0.5
								C492.2,779.4,492.1,779.4,492.1,779.4z M474.5,762.3l17.3,14.6c76.2-125.1,191.4-206.1,324.3-228.1
								c133-22,268.1,17.5,380.6,111.3l11.7-19.4c-117.1-97.8-257.8-139-396.3-116.1C673.7,547.5,553.8,632,474.5,762.3z"/>
						</g>
						<g>
							<path fill="#FFFFFF" d="M1185,681.7C962.3,495.2,660.5,545.2,509.9,793.5c-6.3-5.3-12.6-10.6-18.8-15.9
								c157.7-259.9,473.6-312.3,706.7-117.1C1193.5,667.6,1189.2,674.6,1185,681.7z"/>
							<path d="M509.9,794.5c-0.2,0-0.5-0.1-0.6-0.2l-18.8-15.9c-0.4-0.3-0.5-0.8-0.2-1.3c76.4-126,192.1-207.5,325.7-229.7
								c133.6-22.1,269.4,17.8,382.4,112.4c0.4,0.3,0.5,0.8,0.2,1.3l-12.7,21.1c-0.1,0.2-0.4,0.4-0.7,0.5c-0.3,0-0.6,0-0.8-0.2
								c-107.5-90-236.7-128-363.8-106.9C693.5,596.6,583.4,674.2,510.7,794c-0.1,0.2-0.4,0.4-0.7,0.5
								C510,794.5,509.9,794.5,509.9,794.5z M492.3,777.4l17.3,14.6c73-119.8,183.3-197.4,310.6-218.5
								c127.3-21.1,256.7,16.8,364.5,106.6l11.7-19.4C1084,566.9,949.1,527.3,816.3,549.3C683.4,571.3,568.4,652.3,492.3,777.4z"/>
						</g>
						<g>
							<path fill="#FFFFFF" d="M1173,701.7C960.1,523.4,671.7,571.2,527.7,808.6c-6.3-5.3-12.6-10.6-18.8-15.9
								c151-249,453.6-299.1,676.8-112.1C1181.5,687.6,1177.2,694.6,1173,701.7z"/>
							<path d="M527.7,809.5c-0.2,0-0.5-0.1-0.6-0.2l-18.8-15.9c-0.4-0.3-0.5-0.8-0.2-1.3c73.2-120.7,184-198.8,312-220
								c128-21.2,258.1,17,366.3,107.6c0.4,0.3,0.5,0.8,0.2,1.3l-12.7,21.1c-0.1,0.2-0.4,0.4-0.7,0.5c-0.3,0-0.6,0-0.8-0.2
								c-102.7-86-226.2-122.3-347.7-102.2C703.2,620.4,598,694.5,528.5,809.1c-0.1,0.2-0.4,0.4-0.7,0.5
								C527.8,809.5,527.7,809.5,527.7,809.5z M510.1,792.4l17.3,14.6c69.8-114.5,175.2-188.6,296.9-208.8
								c121.7-20.2,245.4,16,348.4,101.9l11.7-19.4C1076.8,590.9,947.5,553,820.3,574.1C693.2,595.1,583,672.7,510.1,792.4z"/>
						</g>
						<g>
							<path fill="#FFFFFF" d="M1161,721.7c-203-170-478.1-124.4-615.5,102c-6.3-5.3-12.6-10.6-18.8-15.9
								c144.4-238,433.6-285.9,647-107.2C1169.4,707.6,1165.2,714.6,1161,721.7z"/>
							<path d="M545.5,824.6c-0.2,0-0.5-0.1-0.6-0.2L526,808.4c-0.4-0.3-0.5-0.8-0.2-1.3c70-115.4,175.9-190,298.3-210.3
								c122.4-20.3,246.7,16.3,350.2,102.9c0.4,0.3,0.5,0.8,0.2,1.3l-12.7,21.1c-0.1,0.2-0.4,0.4-0.7,0.5c-0.3,0-0.6,0-0.8-0.2
								c-98-82-215.7-116.6-331.6-97.5c-115.9,19.2-216.2,89.9-282.4,199.2c-0.1,0.2-0.4,0.4-0.7,0.5
								C545.6,824.6,545.6,824.6,545.5,824.6z M527.9,807.5l17.3,14.6C611.8,712.9,712.4,642.3,828.5,623
								c116.1-19.2,234,15.3,332.3,97.1l11.7-19.4c-102.9-85.9-226.4-122.1-348-101.9C702.9,618.9,597.6,693,527.9,807.5z"/>
						</g>
						<g>
							<path fill="#FFFFFF" d="M1149,741.7c-193.2-161.8-455-118.4-585.7,97c-6.3-5.3-12.6-10.6-18.8-15.9
								c137.7-227,413.6-272.7,617.2-102.2C1157.4,727.6,1153.2,734.6,1149,741.7z"/>
							<path d="M563.3,839.7c-0.2,0-0.5-0.1-0.6-0.2l-18.8-15.9c-0.4-0.3-0.5-0.8-0.2-1.3c66.8-110,167.8-181.3,284.6-200.6
								c116.8-19.3,235.4,15.5,334.1,98.2c0.4,0.3,0.5,0.8,0.2,1.3l-12.7,21.1c-0.1,0.2-0.4,0.4-0.7,0.5c-0.3,0-0.6,0-0.8-0.2
								c-93.2-78.1-205.2-111-315.5-92.7c-110.2,18.3-205.7,85.6-268.7,189.5c-0.1,0.2-0.4,0.4-0.7,0.5
								C563.4,839.7,563.4,839.7,563.3,839.7z M545.8,822.5l17.3,14.6c63.4-103.9,159-171.1,269.5-189.4
								c110.5-18.3,222.7,14.5,316.2,92.4l11.7-19.4c-98.1-81.9-215.9-116.4-331.9-97.2C712.6,642.7,612.2,713.4,545.8,822.5z"/>
						</g>
					</g>
					<g>
						<path fill="#FFFFFF" d="M1360.5,607c-8.6-17.8-26.5-34.4-45.9-30.3c10.6-13.6,8.8-34.8-2.6-47.7s-30.7-17.6-47.4-13.2
							s-30.7,16.8-38.9,32c-8.2,15.2-11.1,32.9-10.4,50.2c-4.6-1.6-10.2,0.1-13.1,4c-2.9,3.9-3,9.7-0.2,13.7
							c-23.5-24.3-64.9-28.4-92.7-9.2s-38.7,59.3-24.4,89.9c-7.4-3.3-16.8-1.3-22.4,4.7c-5.5,6-6.8,15.5-3,22.7
							c-12.2-4.4-26.4-0.7-36.6,7.4c-17.8,14.1-23.4,40.7-14.8,61.7c8.6,21,30,35.6,52.5,38.2c22.2,2.6,45.4-6,60.6-22.4
							c6.2,10.7,17.7,18.1,30,19.4c12.3,1.3,25.1-3.7,33.3-12.9c7.6,11.6,22.7,17.7,36.2,14.6c13.5-3,24.6-15,26.5-28.7
							c17.8,14.5,46.2,13.8,63.2-1.6c17-15.4,20.6-43.5,8-62.7c22-11.9,39.2-32.6,47-56.4S1371.4,629.6,1360.5,607z"/>
						<path d="M1068.5,832.3c-2.6,0-5.3-0.1-7.9-0.5c-23.8-2.8-44.7-18-53.3-38.8c-9-21.9-2.5-48.9,15.1-62.9
							c10.4-8.3,24.1-11.4,35.4-8.2c-2.8-7.2-1.2-16,4.1-21.7c5.3-5.7,13.9-7.9,21.3-5.7c-13-30.6-1.8-70.1,25.7-89
							c26.7-18.4,66.2-15.5,90.4,6c-0.7-3.5,0-7.3,2.2-10.3c2.9-3.9,8.1-5.8,12.9-4.7c-0.5-18.5,3.1-35.5,10.6-49.3
							c8.9-16.4,23.3-28.3,39.5-32.5c17.7-4.6,37.2,0.8,48.4,13.5c11.6,13.1,13.2,33.3,4.1,47c19.1-2.5,36.4,14.1,44.6,31.2l0,0
							c11,22.9,12.8,49.8,4.9,74c-7.7,23.8-24.6,44.3-46.5,56.4c12.2,19.5,8.4,47.6-8.8,63.1c-17,15.3-45,16.4-63.2,2.7
							c-2.6,13.3-13.7,24.9-27,27.9c-13.4,3-28.6-2.9-36.5-14c-8.5,8.8-21.1,13.5-33.3,12.3c-12.2-1.2-23.6-8.4-30.1-18.7
							C1107.5,824.2,1088,832.3,1068.5,832.3z M1048.5,722.7c-8.6,0-17.6,3.2-25,9c-16.9,13.5-23.1,39.5-14.5,60.6
							c8.3,20.1,28.6,34.9,51.7,37.6c21.9,2.5,44.8-5.9,59.7-22.1c0.2-0.2,0.5-0.3,0.8-0.3c0.3,0,0.6,0.2,0.7,0.5
							c6,10.4,17.3,17.7,29.2,18.9c12,1.2,24.4-3.6,32.5-12.5c0.2-0.2,0.5-0.4,0.8-0.3c0.3,0,0.6,0.2,0.7,0.4
							c7.3,11.2,22.1,17.2,35.2,14.2c13-2.9,23.9-14.7,25.7-27.9c0-0.3,0.3-0.6,0.6-0.8c0.3-0.1,0.7-0.1,1,0.2
							c17.5,14.2,45.2,13.5,61.9-1.6c16.7-15.1,20.2-42.7,7.9-61.5c-0.2-0.2-0.2-0.5-0.1-0.8c0.1-0.3,0.2-0.5,0.5-0.6
							c21.9-11.8,38.8-32.2,46.5-55.8c7.7-23.7,5.9-50.1-4.9-72.5l0,0c-8.2-17.1-25.8-33.8-44.8-29.7c-0.4,0.1-0.8-0.1-1-0.4
							c-0.2-0.3-0.2-0.8,0.1-1.1c10.1-13,9-33.4-2.6-46.5c-10.8-12.2-29.4-17.4-46.5-12.9c-15.7,4.1-29.7,15.6-38.3,31.6
							c-7.5,13.8-11,31-10.3,49.6c0,0.3-0.1,0.6-0.4,0.8c-0.3,0.2-0.6,0.2-0.9,0.1c-4.2-1.5-9.3,0.1-12,3.7
							c-2.7,3.5-2.7,8.9-0.1,12.5c0.3,0.4,0.2,1-0.2,1.3c-0.4,0.3-1,0.3-1.3-0.1c-23.1-23.9-64.1-27.9-91.4-9.1
							c-27.3,18.8-38.1,58.6-24.1,88.7c0.2,0.4,0.1,0.8-0.2,1.1c-0.3,0.3-0.7,0.4-1.1,0.2c-7.1-3.1-16-1.2-21.3,4.4
							c-5.2,5.7-6.4,14.7-2.8,21.5c0.2,0.4,0.1,0.8-0.1,1.1c-0.3,0.3-0.7,0.4-1.1,0.3C1055.8,723.3,1052.2,722.7,1048.5,722.7z"/>
					</g>
					<g>
						<path fill="#FFFFFF" d="M390.8,771.6c-14.1-8.5-22.7-25.4-21.5-41.8s12.4-31.7,27.6-38c-15.2-9.7-31.9-21.8-33.7-39.7
							c-1.5-14.6,8.7-29.1,22.5-34.4s29.9-2.2,42,6.2c12.1,8.4,20.4,21.5,25,35.4c6.6-12.5,25.4-16.2,36.2-7.1
							c6.1-19.8,23.3-35.7,43.5-40.4c20.2-4.6,42.6,2.2,56.8,17.3c14.2,15.1,19.5,37.9,13.6,57.8c12.4-3.5,26.8,1.2,34.7,11.4
							s8.8,25.3,2.2,36.5c11.4,5.7,22.8,12.1,31.2,21.7c8.4,9.6,13.3,23,9.9,35.3s-16.7,21.9-29,18.6c1.1,12.2-6.2,24.7-17.4,29.8
							c-11.2,5.1-25.4,2.4-33.9-6.4c-4.8,22.1-21.6,41.3-43,48.9c-21.3,7.7-46.5,3.6-64.3-10.3c-17.2,13.4-41.6,16.8-61.8,8.7
							s-35.4-27.6-38.5-49.2c-10.5-5.9-17.5-17.5-17.9-29.6C374.5,790.3,380.7,778.3,390.8,771.6z"/>
						<path d="M535.2,887.5c-15,0-30.1-4.8-42-13.9c-17.5,13.3-41.8,16.6-62.2,8.4c-20.5-8.3-35.8-27.6-39-49.5
							c-10.5-6.2-17.6-17.9-18-30.1c-0.4-11.9,5.5-23.7,15-30.7c-13.7-9-21.9-25.6-20.7-41.9c1.2-16.2,11.8-31.3,26.5-38.1
							c-15.1-9.8-30.8-21.7-32.6-39.5c-1.5-14.5,8.4-29.7,23.1-35.4c13.4-5.2,29.8-2.8,42.9,6.3c10.8,7.5,19.5,19.5,24.7,33.9
							c3.5-5.2,9.2-8.9,16.1-10.3c7.1-1.4,14.1,0,19.4,3.8c6.6-19.6,23.6-35,43.8-39.7c20.6-4.7,43.2,2.2,57.7,17.6
							c14.1,15,19.6,37.2,14.3,57.1c12.5-2.8,26.2,2.1,34.1,12.2c8,10.3,9,25.2,2.8,36.6c11,5.5,22.2,12,30.5,21.5
							c9.4,10.8,13.3,24.7,10.2,36.2c-3.2,11.7-16,22.2-28.9,19.6c0.5,12.2-7,24.4-18,29.4c-11,5-24.9,2.7-33.8-5.4
							c-5.4,21.7-22.2,40.4-43.2,48C550.6,886.2,542.9,887.5,535.2,887.5z M493.2,871.4c0.2,0,0.4,0.1,0.6,0.2
							c17.5,13.7,42.4,17.7,63.4,10.2c21-7.5,37.6-26.5,42.3-48.2c0.1-0.4,0.3-0.6,0.7-0.7c0.3-0.1,0.7,0,1,0.3
							c8.2,8.5,22,11.1,32.8,6.2c10.8-4.9,17.8-17,16.8-28.8c0-0.3,0.1-0.6,0.3-0.8c0.2-0.2,0.6-0.3,0.9-0.2
							c12.2,3.3,24.7-6.7,27.8-17.9c3-10.9-0.8-24.1-9.7-34.4c-8.3-9.5-19.7-16-30.9-21.5c-0.2-0.1-0.4-0.3-0.5-0.6
							c-0.1-0.3,0-0.5,0.1-0.8c6.4-10.8,5.6-25.4-2.1-35.4c-7.7-10-21.5-14.5-33.6-11.1c-0.3,0.1-0.7,0-1-0.3
							c-0.3-0.3-0.3-0.6-0.2-1c5.9-19.6,0.6-41.9-13.4-56.8c-14-14.9-35.9-21.6-55.8-17c-19.9,4.6-36.7,20.2-42.8,39.7
							c-0.1,0.3-0.3,0.6-0.7,0.6c-0.3,0.1-0.7,0-0.9-0.2c-4.9-4.1-11.9-5.7-18.9-4.3c-7,1.4-12.9,5.5-15.9,11.1
							c-0.2,0.3-0.5,0.6-0.9,0.5c-0.4,0-0.7-0.3-0.8-0.7c-5-14.9-13.7-27.3-24.7-34.9c-12.5-8.7-28.3-11-41-6.1
							c-13.8,5.3-23.2,19.7-21.8,33.4c1.8,17.5,18.1,29.3,33.3,39c0.3,0.2,0.5,0.5,0.4,0.9s-0.3,0.7-0.6,0.8
							c-14.9,6.2-25.8,21.1-27,37.2c-1.2,16.1,7.2,32.5,21,40.9c0.3,0.2,0.5,0.5,0.5,0.8c0,0.3-0.2,0.7-0.4,0.8
							c-9.8,6.5-15.8,18.2-15.4,29.9c0.4,11.7,7.2,23,17.4,28.7c0.3,0.2,0.4,0.4,0.5,0.7c3,21.3,17.9,40.3,37.9,48.4
							c20,8.1,43.9,4.7,60.9-8.6C492.8,871.5,493,871.4,493.2,871.4z"/>
					</g>
				</g>
				<g>
					<path fill="#FFFFFF" d="M854.6,670.6l8.6,7.2c0.4,0.3,1,0.5,1.5,0.3l10.8-3c1.3-0.4,2.5,0.9,2,2.2l-4.2,10.4
						c-0.2,0.5-0.1,1.1,0.1,1.5l6.2,9.4c0.7,1.1-0.1,2.6-1.5,2.5l-11.2-0.8c-0.5,0-1.1,0.2-1.4,0.6l-7,8.8c-0.9,1.1-2.6,0.7-2.9-0.6
						l-2.7-10.9c-0.1-0.5-0.5-1-1-1.1l-10.5-4c-1.3-0.5-1.4-2.2-0.3-2.9l9.5-5.9c0.5-0.3,0.8-0.8,0.8-1.3l0.5-11.2
						C852,670.4,853.6,669.7,854.6,670.6z"/>
					<path d="M857.2,711.4c-0.2,0-0.4,0-0.6-0.1c-1-0.2-1.7-1-2-1.9l-2.7-10.9c-0.1-0.2-0.2-0.4-0.4-0.5l-10.5-4
						c-0.9-0.4-1.6-1.2-1.7-2.2c-0.1-1,0.4-2,1.2-2.5l9.5-5.9c0.2-0.1,0.3-0.3,0.3-0.5l0.5-11.2c0-1,0.6-1.9,1.6-2.3
						c0.9-0.4,2-0.2,2.7,0.4l8.6,7.2c0.2,0.1,0.4,0.2,0.6,0.1l10.8-3c1-0.3,2,0,2.7,0.8c0.7,0.8,0.8,1.8,0.5,2.7l-4.2,10.4
						c-0.1,0.2-0.1,0.4,0.1,0.6l6.2,9.4c0.6,0.8,0.6,1.9,0.1,2.8c-0.5,0.9-1.4,1.4-2.5,1.3l-11.2-0.8c-0.2,0-0.4,0.1-0.6,0.2l-7,8.8
						C858.7,711.1,858,711.4,857.2,711.4z M853.6,671.2c-0.1,0-0.2,0-0.3,0.1c-0.1,0-0.4,0.2-0.4,0.6l-0.5,11.2
						c0,0.9-0.5,1.6-1.2,2.1l-9.5,5.9c-0.3,0.2-0.3,0.5-0.3,0.6c0,0.1,0.1,0.4,0.4,0.6l10.5,4c0.8,0.3,1.4,1,1.6,1.8l2.7,10.9
						c0.1,0.4,0.4,0.5,0.5,0.5c0.1,0,0.4,0.1,0.7-0.2l7-8.8c0.5-0.7,1.4-1,2.2-1l11.2,0.8c0.4,0,0.6-0.2,0.6-0.3
						c0.1-0.1,0.2-0.4,0-0.7l-6.2-9.4c-0.5-0.7-0.6-1.6-0.2-2.4l4.2-10.4c0.1-0.3,0-0.6-0.1-0.7c-0.1-0.1-0.3-0.3-0.7-0.2l-10.8,3
						c-0.8,0.2-1.7,0-2.4-0.5l-8.6-7.2l0,0C853.9,671.2,853.7,671.2,853.6,671.2z"/>
				</g>
				<g>
					<circle fill="#FFFFFF" cx="772.1" cy="686" r="3.5"/>
					<path d="M772.1,690.5c-2.5,0-4.5-2-4.5-4.5c0-2.5,2-4.5,4.5-4.5c2.5,0,4.5,2,4.5,4.5C776.6,688.4,774.5,690.5,772.1,690.5z
						 M772.1,683.4c-1.4,0-2.5,1.1-2.5,2.5c0,1.4,1.1,2.5,2.5,2.5s2.5-1.1,2.5-2.5C774.6,684.5,773.5,683.4,772.1,683.4z"/>
				</g>
				<g>
					<circle fill="#FFFFFF" cx="987.3" cy="732.2" r="4"/>
					<path d="M987.3,737.1c-2.7,0-4.9-2.2-4.9-4.9s2.2-4.9,4.9-4.9c2.7,0,4.9,2.2,4.9,4.9S990,737.1,987.3,737.1z M987.3,729.2
						c-1.6,0-3,1.3-3,3s1.3,3,3,3s3-1.3,3-3S989,729.2,987.3,729.2z"/>
				</g>
				<g>
					<circle fill="#FFFFFF" cx="1207.4" cy="357.1" r="5.7"/>
					<path d="M1207.4,363.8c-3.7,0-6.7-3-6.7-6.7s3-6.7,6.7-6.7c3.7,0,6.7,3,6.7,6.7S1211.1,363.8,1207.4,363.8z M1207.4,352.4
						c-2.6,0-4.7,2.1-4.7,4.7c0,2.6,2.1,4.7,4.7,4.7s4.7-2.1,4.7-4.7C1212.2,354.5,1210,352.4,1207.4,352.4z"/>
				</g>
				<g>
					<circle fill="#FFFFFF" cx="1209.2" cy="211" r="2.2"/>
					<path d="M1209.2,214.2c-1.8,0-3.2-1.4-3.2-3.2s1.4-3.2,3.2-3.2c1.8,0,3.2,1.4,3.2,3.2S1210.9,214.2,1209.2,214.2z
						 M1209.2,209.8c-0.7,0-1.2,0.5-1.2,1.2s0.5,1.2,1.2,1.2s1.2-0.5,1.2-1.2S1209.9,209.8,1209.2,209.8z"/>
				</g>
				<g>
					<path fill="#FFFFFF" d="M944.8,682.4c1.5-3,2.4-6.5,1.4-9.7c-1-3.2-4.3-5.8-7.6-5.1c-2.1,0.5-3.7,2.1-4.6,4
						c-1,1.9-1.3,4-1.7,6.1c-1.8-2-3.8-4.1-6.4-4.8c-2.6-0.7-6,0.8-6.2,3.5c-0.2,1.6,0.7,3,1.6,4.3c3.1,4.8,6.2,9.7,9.3,14.5
						C936.6,693,941.9,688.3,944.8,682.4z"/>
					<path d="M930.5,696.2c-0.3,0-0.6-0.2-0.8-0.5l-9.3-14.5c-0.8-1.3-1.9-3-1.7-5c0.1-1.3,0.9-2.5,2.1-3.4c1.5-1.1,3.6-1.4,5.4-1
						c2.3,0.6,4.1,2.1,5.6,3.6c0.3-1.5,0.7-3,1.4-4.4c1.2-2.4,3.1-4,5.3-4.5c3.9-0.9,7.7,2.3,8.7,5.7c1.2,3.8-0.1,7.8-1.4,10.4l0,0
						c-3,6.1-8.4,11-14.9,13.3C930.7,696.2,930.6,696.2,930.5,696.2z M924.5,673.8c-1,0-1.9,0.3-2.7,0.8c-0.5,0.4-1.1,1-1.2,1.9
						c-0.1,1.2,0.6,2.4,1.4,3.7l8.9,13.8c5.6-2.3,10.4-6.6,13-12.1c1.1-2.3,2.3-5.8,1.3-9c-0.8-2.6-3.6-5-6.4-4.4
						c-1.6,0.4-3,1.6-4,3.5c-0.9,1.8-1.3,3.8-1.6,5.8c-0.1,0.4-0.3,0.7-0.7,0.8c-0.4,0.1-0.7,0-1-0.3c-1.6-1.7-3.5-3.8-6-4.5
						C925.2,673.8,924.9,673.8,924.5,673.8z"/>
				</g>
				<g>
					<path fill="#FFFFFF" d="M726.6,756c-1.4-2.3-2.3-5-1.8-7.7c0.6-2.6,3.1-4.9,5.7-4.6c1.7,0.2,3.1,1.4,4,2.9
						c0.9,1.4,1.3,3.1,1.8,4.7c1.3-1.7,2.8-3.5,4.8-4.2s4.8,0.2,5.2,2.4c0.2,1.2-0.4,2.5-1,3.6c-2.2,4.1-4.3,8.2-6.5,12.2
						C733.8,764,729.3,760.5,726.6,756z"/>
					<path d="M738.9,766.3c-0.1,0-0.2,0-0.3,0c-5.4-1.5-10.1-5-12.9-9.8c-1.8-3-2.4-5.9-1.9-8.4c0.6-2.9,3.5-5.8,6.8-5.3
						c1.8,0.3,3.5,1.5,4.7,3.3c0.6,1,1,2.1,1.4,3.2c1.1-1.3,2.4-2.5,4.1-3.1c1.5-0.5,3.2-0.3,4.5,0.4c1.1,0.6,1.8,1.6,2,2.7
						c0.3,1.6-0.5,3.1-1.1,4.2l-6.5,12.2C739.6,766.1,739.2,766.3,738.9,766.3z M730,744.7c-2,0-3.8,1.9-4.2,3.8
						c-0.6,2.6,0.6,5.2,1.6,7l0,0c2.5,4.1,6.4,7.2,11,8.7l6.1-11.5c0.6-1.1,1-2.1,0.9-2.9c-0.1-0.7-0.6-1.1-1-1.3
						c-0.8-0.5-2-0.6-2.9-0.3c-1.8,0.6-3.3,2.5-4.4,3.9c-0.2,0.3-0.6,0.4-1,0.4c-0.4-0.1-0.7-0.3-0.8-0.7c-0.4-1.5-0.8-3.1-1.7-4.5
						c-0.8-1.4-2.1-2.3-3.3-2.4C730.3,744.7,730.1,744.7,730,744.7z"/>
				</g>
			</g>
			<g>
				<g>
					<g>
						<ellipse cx="484.9" cy="752.5" rx="10.7" ry="14.7"/>
					</g>
					<g>
						<ellipse cx="581.4" cy="737.7" rx="10.7" ry="14.7"/>
					</g>
					<g>
						<path d="M516.6,757.9c0,0,12.1,9.3,34.1-4.7c0.5,1.9,5.6,26.1-5.1,34.1C534.9,795.2,518,790.1,516.6,757.9z"/>
					</g>
					<g>
						<path fill="#FFFFFF" d="M537.1,783c1.9-1,3.8-2.2,5.3-3.8c1.5-1.6,2.5-3.8,2.3-5.9c-0.2-2.2-1.7-4.3-3.8-4.8
							c-2.1-0.5-4.6,1.1-4.7,3.3c-0.2-1.7-1.8-3.2-3.5-3.1c-1.7,0-3.3,1.5-3.4,3.2C528.9,776.6,537.4,778.3,537.1,783z"/>
					</g>
				</g>
				<path fill="none" stroke="#000000" stroke-linecap="round" stroke-linejoin="round" stroke-miterlimit="10" d="M524.6,789.6
					c2.9,3.1,7.1,5,11.4,5.2c4.3,0.2,8.6-1.4,11.8-4.3"/>
			</g>
			<g>
				<ellipse cx="1131.3" cy="716.6" rx="8.6" ry="11.9"/>
				<ellipse cx="1212.1" cy="734.1" rx="8.6" ry="12.6"/>
				<path d="M1178.2,750.5c2.7-2.1,4.2-5.4,5.1-8.6c1.5-5.5,1.3-11.4-0.4-16.8c-6.9,4.2-17,3-22.4-2.8c-3.1,4.4-5.2,9.5-5.2,14.8
					c0,5.3,2.5,10.6,7.1,13.6C1167,753.7,1173.8,753.9,1178.2,750.5z"/>
				<path fill="none" stroke="#000000" stroke-linecap="round" stroke-linejoin="round" stroke-miterlimit="10" d="M1155,748.7
					c2,4,5.6,7.2,9.9,8.6s9.1,1,13-1.1"/>
				<path fill="#FFFFFF" d="M1168.3,736.7c0,0,0.8-3.5-3.5-3.2c-4.3,0.3,0.9,10.2,1.7,10.9c0-0.3,7-2.4,6.6-6.5
					C1172.8,733.7,1169.3,734.7,1168.3,736.7z"/>
			</g>
			<g>
				<g>
					<g>
						<path fill="#FFFFFF" d="M602.1,174.4c39.7,23.4,20.7,42.4-2.7,2.7c-23.4,39.7-42.4,20.7-2.7-2.7C557,151,576,132,599.4,171.7
							C622.8,132,641.7,151,602.1,174.4z"/>
					</g>
					<g>
						<path d="M622.5,201.1c-4.9,0-13.8-6.7-23.1-22c-9.9,16.3-19.3,22.8-23.9,22c-1.4-0.3-2.4-1.2-2.6-2.6c-0.8-4.7,5.7-14,22-23.9
							c-16.3-9.9-22.8-19.3-22-23.9c0.3-1.4,1.2-2.4,2.6-2.6c4.6-0.8,14,5.7,23.9,22c9.9-16.3,19.3-22.8,23.9-22
							c1.4,0.3,2.4,1.2,2.6,2.6c0.8,4.7-5.7,14-22,23.9c16.3,9.9,22.8,19.3,22,23.9c-0.3,1.4-1.2,2.4-2.6,2.6
							C623,201,622.8,201.1,622.5,201.1z M599.4,176.1c0.3,0,0.7,0.2,0.8,0.5c10.3,17.5,19.4,23.1,22.7,22.4c0.6-0.1,1-0.4,1.1-1.1
							c0.6-3.3-5-12.4-22.4-22.7c-0.3-0.2-0.5-0.5-0.5-0.8c0-0.3,0.2-0.7,0.5-0.8c17.5-10.3,23-19.4,22.4-22.7
							c-0.1-0.6-0.4-1-1.1-1.1c-3.3-0.6-12.4,5-22.7,22.4c-0.4,0.6-1.3,0.6-1.7,0c-10.3-17.5-19.4-23-22.7-22.4
							c-0.6,0.1-1,0.4-1.1,1.1c-0.6,3.3,5,12.4,22.4,22.7c0.3,0.2,0.5,0.5,0.5,0.8c0,0.3-0.2,0.7-0.5,0.8
							c-17.5,10.3-23,19.4-22.4,22.7c0.1,0.6,0.4,1,1.1,1.1c3.3,0.6,12.4-5,22.7-22.4C598.7,176.3,599,176.1,599.4,176.1z"/>
					</g>
				</g>
				<g>
					<g>
						<path fill="#FFFFFF" d="M600.6,175.6c7.2,27.8-9.6,27.8-2.4,0c-27.8,7.2-27.8-9.6,0-2.4c-7.2-27.8,9.6-27.8,2.4,0
							C628.4,166,628.4,182.8,600.6,175.6z"/>
					</g>
					<g>
						<path d="M599.4,197.4c-0.5,0-0.9-0.2-1.4-0.5c-2.5-1.7-3.8-8.7-1.2-20c-11.3,2.7-18.3,1.3-20-1.2c-0.6-0.9-0.6-1.9,0-2.8
							c1.7-2.5,8.7-3.8,20-1.2c-2.7-11.3-1.3-18.3,1.2-20c0.9-0.6,1.9-0.6,2.8,0c2.5,1.7,3.8,8.7,1.2,20c11.3-2.7,18.3-1.3,20,1.2
							c0.6,0.9,0.6,1.9,0,2.8c-1.7,2.5-8.7,3.8-20,1.2c2.7,11.3,1.3,18.3-1.2,20C600.3,197.3,599.8,197.4,599.4,197.4z M598.2,174.6
							c0.3,0,0.5,0.1,0.7,0.3c0.2,0.2,0.3,0.6,0.3,0.9c-3.2,12.5-1.4,18.6,0,19.5c0.2,0.1,0.3,0.1,0.5,0c1.4-1,3.2-7,0-19.5
							c-0.1-0.3,0-0.7,0.3-0.9c0.2-0.2,0.6-0.3,0.9-0.3c12.5,3.2,18.6,1.4,19.5,0c0.1-0.2,0.1-0.3,0-0.5c-1-1.4-7-3.2-19.5,0
							c-0.3,0.1-0.7,0-0.9-0.3c-0.2-0.2-0.3-0.6-0.3-0.9c3.2-12.5,1.4-18.6,0-19.5c-0.2-0.1-0.3-0.1-0.5,0c-1.4,1-3.2,7,0,19.5
							c0.1,0.3,0,0.7-0.3,0.9s-0.6,0.3-0.9,0.3c-12.5-3.2-18.6-1.4-19.5,0c-0.1,0.2-0.1,0.3,0,0.5c1,1.4,7,3.2,19.5,0
							C598,174.6,598.1,174.6,598.2,174.6z"/>
					</g>
				</g>
			</g>
			<circle cx="441.6" cy="436" r="2.9"/>
			<circle cx="516.6" cy="351.2" r="2.9"/>
			<circle cx="591.6" cy="464.9" r="3.7"/>
			<circle cx="1070.1" cy="497.5" r="3.3"/>
			<circle cx="851.3" cy="113.8" r="2.9"/>
			<circle cx="810.5" cy="41.7" r="4.1"/>
			<circle cx="1157.1" cy="40.4" r="2.9"/>
			<circle cx="783.3" cy="735.7" r="3.3"/>
			<circle cx="1012" cy="688.3" r="2.9"/>
			<path fill="none" stroke="#000000" stroke-miterlimit="10" d="M1137.4,539.9c-2.7,0.8-5.1,2.4-6.9,4.5c-1.1,1.3-2,3.2-1.2,4.7
				c0.8,1.5,2.8,1.8,4.5,1.7c2.8-0.2,5.6-1.1,8-2.6c1.9-1.2,3.7-3.2,3.3-5.4c-0.3-1.5-1.6-2.7-3.1-3.1
				C1140.4,539.3,1138.8,539.5,1137.4,539.9z"/>
			<path fill="none" stroke="#000000" stroke-miterlimit="10" d="M1216.7,464.9c3.4-0.3,6.7-1.9,9.2-4.3c1.6-1.5,2.9-3.6,2.7-5.8
				c-0.2-2.3-2.3-4.3-4.5-4.8c-2.3-0.5-4.7,0.2-6.7,1.5c-1.9,1.3-3.4,3.2-4.7,5.2c-0.6,1-1.2,2.1-1.5,3.2c-0.3,1.2-0.1,2.5,0.6,3.4
				C1212.8,464.8,1214.9,465.1,1216.7,464.9z"/>
		</g>
	</g>
	<g>
		<path fill="none" stroke="#000000" stroke-width="1.5" stroke-miterlimit="10" d="M719.4,841.6c0,5.6-2.5,10.4-7.5,14.4
			c-4.8,3.8-10.3,5.6-16.6,5.6c-1.8,0-3.9-0.3-6.2-0.9c-2.3-0.6-3.5-1.4-3.5-2.3c0-0.4,0.2-0.8,0.6-1.1c0.4-0.3,1.1-0.5,2.3-0.5
			c1,0.1,1.8,0.1,2.3,0.1c2.7,0,4.9-1,6.5-3.1c1.4-1.8,2.2-4.2,2.2-7.1c0-2.9-0.4-5.4-1.1-7.4c-1.3-3.4-3.4-5.2-6.3-5.2
			c-3.6,0-6.1,1.6-7.5,4.9c-1,2.4-1.5,6.1-1.5,11.1v18.2c0,7.9,0.5,13.5,1.4,16.9c1.1,2.1,2.2,4.3,3.3,6.4c0,0.5-0.3,0.9-0.8,1.3
			c-0.5,0.4-1.1,0.6-1.6,0.6h-14.9c-1.8,0-2.9-0.6-3.5-1.8c-0.6-1.2-0.9-3.3-0.9-6.3v-42c0-3.6-0.4-6.3-1.2-8.1c-1-1.6-2-3.3-2.9-5
			c0-0.7,0.4-1.2,1.1-1.5c0.7-0.3,1.4-0.4,2.1-0.4c10.3,0,17.9-0.1,22.8-0.2c4.9-0.2,9.6-0.3,14.1-0.5c4.8,0,8.6,0.8,11.4,2.3
			C717.4,832.1,719.4,836,719.4,841.6z"/>
		<path fill="none" stroke="#000000" stroke-width="1.5" stroke-miterlimit="10" d="M786.6,854.1c0,10-2.5,18.8-7.5,26.2
			c-5.8,8.7-13.8,13.1-23.9,13.1c-10.4,0-18.6-4.4-24.5-13.3c-4.8-7.1-7.2-15.1-7.2-23.9c0-11.6,2.9-19.5,8.8-23.8
			c4.5-3.3,12.2-4.9,22.9-4.9c11,0,18.7,1.5,23.1,4.6C783.9,836,786.6,843.3,786.6,854.1z M766.9,857c0-6.4-0.4-11.1-1.2-14.2
			c-1.8-6.6-5.2-9.9-10.3-9.9c-4.1,0-7.2,2.1-9.3,6.3c-2.1,4.2-3.1,9.9-3.1,17.2c0,7.2,0.6,13.2,1.7,18c2,8.6,5.5,12.9,10.4,12.9
			c4.3,0,7.6-4.3,9.7-12.9C766.2,868.7,766.9,862.8,766.9,857z"/>
		<path fill="none" stroke="#000000" stroke-width="1.5" stroke-miterlimit="10" d="M851,861.3c0,0.2-0.1,3.5-0.4,10.1
			c-0.3,6.5-0.4,12.1-0.4,16.8c0,1.9-0.5,3.4-1.5,4.2c-1,0.9-2.5,1.3-4.4,1.3c-2.9,0-4.3-0.8-4.3-2.4c0-0.5,0.7-1.8,2.2-3.9
			c0.7-1,1-2,1-2.9c0-1.6-0.8-3.5-2.3-5.6s-3.8-4.6-6.8-7.5c-3.6-3.3-7.1-6.6-10.6-10l-18.6-17c-0.8-0.8-1.4-1.1-1.9-1.1
			c-0.5,0-0.8,0.5-0.8,1.6c0,4.8,0,7.4-0.1,7.8c-0.1,0.4-0.1,1.8-0.1,3.9c0,12.8,0.7,21.8,2,26.9c1.5,2.7,3,5.4,4.5,8.1
			c0,0.9-0.5,1.5-1.5,1.8c-1,0.2-2.3,0.4-4.1,0.4c-3.8,0-6.1-1.4-7-4.1c-0.6-1.9-0.8-7.9-0.8-17.8c0-2.6,0.1-6.3,0.3-11.3
			c0.4-11.5,0.7-18.5,0.7-20.8c0-2.8-1.2-5.2-3.5-7c-1.1-0.9-1.7-1.8-1.7-2.8c0-0.8,0.4-1.3,1.2-1.7c0.8-0.4,1.7-0.6,2.5-0.6h12.8
			c2.5,0,4.7,0.7,6.7,2.1c0.6,0.4,2,1.6,4.1,3.6c3.3,3,7.5,6.9,12.6,11.8c3,2.8,6.9,6.5,11.7,11.1c0.4,0.4,0.7,0.6,0.8,0.6
			c0.5,0,0.8-0.7,0.8-2.2c0-7.7-0.7-13.5-2.1-17.3c-1.6-2.5-3.1-5-4.6-7.5c0-0.8,0.5-1.4,1.6-1.8c1.1-0.4,2.6-0.6,4.7-0.6
			c3.6,0,5.7,1.9,6.4,5.6C850.8,835.9,851,845.3,851,861.3z"/>
		<path fill="none" stroke="#000000" stroke-width="1.5" stroke-miterlimit="10" d="M914.5,831.1c-4.4,7.5-8.7,15-13.1,22.6
			c-4.5,9-6.8,17.3-6.8,25.1c0,1.6,0.1,3.2,0.3,4.8c0,1.3,0.3,2.4,0.9,3.5c0.6,1.1,1.5,2.2,2.6,3.3c0.2,0.3,0.3,0.7,0.3,1
			c0,0.4-0.1,0.9-0.4,1.4c-0.3,0.5-0.7,0.7-1.2,0.7h-21.9c-0.8,0-1.3-0.5-1.8-1.5c-0.1-0.9,0.2-1.8,1.1-2.7c1.2-1.2,1.8-2,2-2.3
			c0.4-2.6,0.7-5.5,0.7-8.6c0-3.4-0.3-6.6-0.9-9.8c-0.6-3.1-1.6-6-3-8.7c-1.9-4-4.4-8.5-7.4-13.4c-2.8-4.4-5.5-8.8-8.2-13.2
			c-0.2-0.9-0.4-1.9-0.6-2.8c0-0.2,0.1-0.6,0.3-1.2c0.2-0.6,0.6-1,1.2-1.2c0.6-0.2,1.4-0.3,2.4-0.3c1,0.1,1.7,0.1,2.2,0.1h19.9
			c0.3,0,0.7,0,1,0c0.3,0.2,0.5,1,0.5,2.4c0,0.9-0.4,2.1-1.1,3.6c-0.7,1.4-1.1,2.5-1.1,3.3s0.2,1.4,0.5,2.1l8.1,20
			c0.8,0.3,1.2,0.4,1.3,0.4c1.4-2.9,3-6.3,4.7-10.2c1.9-4.7,3.4-8.2,4.3-10.5c0.2-0.7,0.4-1.5,0.4-2.4c0-2.2-0.7-4-2.2-5.5
			c-0.1-0.7,0.1-1.4,0.7-2.3c0.4-0.2,0.8-0.4,1.1-0.7c1.1,0,2.1,0,3.2,0c1.1,0,2.2,0,3.3-0.1c2.1,0,3.9,0.1,5.5,0.4
			c0.9,0.5,1.3,1.2,1.3,2.1C914.6,830.4,914.6,830.7,914.5,831.1z"/>
		<path fill="none" stroke="#000000" stroke-width="1.5" stroke-miterlimit="10" d="M969.8,839.2c0,1.4-0.3,2.3-0.8,2.7
			c-0.3,0.3-0.8,0.4-1.6,0.4c-1.9-2-4-3.8-6.4-5.3c-2.7-1.7-6.1-2.5-10.2-2.5c-3.1,0-5.5,0.7-7.1,2.1c-1.9,1.8-2.9,4.8-2.9,9
			c0,0.8,0,1.5,0,2.1c0,0.6,0,1.1,0,1.4c0,2,0.2,3,0.6,3c1.6-2.3,3.3-4.4,5.3-6.2c2-1.8,4.4-2.7,7.3-2.7c3.4,0,6.2,1.3,8.2,3.9
			c1.6,2.1,2.3,4.3,2.3,6.7c0,2.9-1.2,5.5-3.5,7.8c-2.1,2.1-4,3.1-5.9,3.1c-0.3,0-0.8-0.2-1.3-0.5c-0.6-0.3-0.8-0.7-0.8-1.1
			c0-0.3,0.2-0.8,0.5-1.4c0.3-0.6,0.5-1.4,0.5-2.3c0-1.1-0.5-2.1-1.5-2.8c-1-0.7-2-1.1-3-1.1c-3.6,0-6.1,1.9-7.5,5.6
			c-0.9,2.4-1.3,5.5-1.3,9.2c0,1,0,1.6,0,1.9v9.1c0,3.1,0.6,5.3,1.9,6.8c1.3,1.4,1.9,2.5,1.9,3.1c0,0.4-0.3,0.9-0.9,1.4
			c-0.6,0.5-1.2,0.7-1.7,0.7h-18.4c-1.1,0-2-0.2-2.7-0.6s-1.1-0.9-1.1-1.5c0-0.7,0.6-1.9,1.9-3.5c1.3-1.7,1.9-3.8,1.9-6.3V844
			c0-4.8-0.6-7.9-1.9-9.5c-1.3-1.6-1.9-2.8-1.9-3.5c0-1.5,1.5-2.3,4.6-2.3l24.1,0.1c4.4,0,7.8-0.1,10.2-0.3c2.3-0.2,4.6-0.4,6.8-0.7
			c1.5,0,2.7,1.3,3.6,4C969.5,834.1,969.8,836.5,969.8,839.2z"/>
		<path fill="none" stroke="#000000" stroke-width="1.5" stroke-miterlimit="10" d="M999.2,891.3c0,0.6-0.4,1.1-1.1,1.5
			c-0.7,0.4-1.3,0.6-1.8,0.6h-19.6c-0.4,0-1.1-0.2-1.9-0.7c-0.8-0.5-1.2-1-1.2-1.6c1-1.6,1.9-3.5,2.7-5.5c0.8-2,1.2-4.9,1.2-8.5
			v-36.6c0-2.5-0.4-4.5-1.2-6.1c-0.8-1.6-1.7-3.2-2.5-4.8c0-0.7,0.2-1.2,0.6-1.6c0.4-0.3,1.4-0.5,3-0.5h18.2c1,0,1.8,0.2,2.4,0.6
			c0.6,0.4,0.9,1,0.9,1.8c0,0.6-0.6,1.8-1.9,3.6c-1.3,1.8-1.9,4.1-1.9,7l-0.1,36.8c0,4.8,0.9,8.4,2.8,11
			C998.8,889.5,999.2,890.5,999.2,891.3z"/>
		<path fill="none" stroke="#000000" stroke-width="1.5" stroke-miterlimit="10" d="M1057.7,883.7c0,2.4-0.7,4.5-2.1,6.2
			c-1.8,2.3-4.4,3.5-7.7,3.5h-39.2c-0.6,0-1.3-0.1-2.1-0.4c-0.8-0.2-1.1-0.7-1.1-1.4c0-0.5,0.5-1.8,1.6-3.8c1.1-2,1.6-4.8,1.6-8.5
			c0-2.5-0.1-8.3-0.3-17.3c-0.2-9-0.3-14.8-0.3-17.4c0-4.3-0.4-7.5-1.2-9.6c-0.9-1.8-1.9-3.5-2.8-5.4c0-0.8,0.4-1.4,1.1-1.7
			c0.8-0.3,1.8-0.5,3-0.5h18c1,0,1.6,0,1.8,0.1c1,0.3,1.5,1,1.5,2.1c0,0.4-0.7,1.5-2,3.2c-1.3,1.7-2,3.7-2,6v25.8c0,0.8,0,1.6,0,2.4
			c0,0.8,0,1.7,0,2.6c0,5.5,0.4,9.5,1.2,12.1c1.3,4.3,3.7,6.4,7.2,6.4c2.1,0,3.8-0.7,5.1-2.2c1.3-1.4,2-3,2-4.6
			c0-1.8-0.7-3.3-2.1-4.5c-1.6-1.3-3.2-2.7-4.8-4c0-1.1,0.9-2.1,2.8-3c1.8-0.9,3.6-1.3,5.4-1.3c3.4,0,6.7,1.3,9.9,4
			C1055.9,875.8,1057.7,879.5,1057.7,883.7z"/>
		<path fill="none" stroke="#000000" stroke-width="1.5" stroke-miterlimit="10" d="M1088.4,829.8c0,0.4-0.7,1.5-2,3.2
			c-1.3,1.7-2,3.7-2,6v25.8c0,0.8,0,1.6,0,2.4c0,0.8,0,1.7,0,2.6c0,5.5,0.4,9.5,1.2,12.1c1.3,4.3,3.7,6.4,7.2,6.4
			c2.1,0,3.8-0.7,5.1-2.2c1.3-1.4,2-3,2-4.6c0-1.8-0.7-3.3-2.1-4.5c-1.6-1.3-3.2-2.7-4.8-4c0-1.1,0.9-2.1,2.8-3
			c1.8-0.9,3.6-1.3,5.4-1.3c3.4,0,6.7,1.3,9.9,4c3.6,3.1,5.5,6.7,5.5,11c0,2.4-0.7,4.5-2.1,6.2c-1.8,2.3-4.4,3.5-7.7,3.5h-39.2
			c-0.6,0-1.3-0.1-2.1-0.4c-0.8-0.2-1.1-0.7-1.1-1.4c0-0.5,0.5-1.8,1.6-3.8c1.1-2,1.6-4.8,1.6-8.5c0-2.5-0.1-8.3-0.3-17.3
			c-0.2-9-0.3-14.8-0.3-17.4c0-4.3-1.4-10.5-2.2-12.6"/>
	</g>
</g>
</svg>
