<svg xmlns="http://www.w3.org/2000/svg" viewBox="0 0 1800 1132.1"><path fill="#FFF" d="M613 756.1s199.3-225 509.7-39.5c-21.7 21.5-83.7 147.5-83.7 147.5s-288 90-426-108z"/><path d="M898 1035.8c-.6 0-1.2-.3-1.6-.8L656 699.4c-.6-.9-.4-2.1.5-2.7.9-.6 2.1-.4 2.7.5l240.3 335.5c.6.9.4 2.1-.5 2.7-.3.2-.7.4-1 .4z"/><path d="M898 1034.8c-.4 0-.7-.2-.9-.6L699 608.9c-.2-.5 0-1.1.5-1.3.5-.2 1.1 0 1.3.5l198.1 425.3c.2.5 0 1.1-.5 1.3-.2 0-.3.1-.4.1z"/><path d="M899.7 1035.8c-.9 0-1.7-.6-1.9-1.6l-97.7-468.5c-.2-1.1.5-2.1 1.5-2.3 1.1-.2 2.1.5 2.3 1.5l97.7 468.5c.2 1.1-.5 2.1-1.5 2.3-.1 0-.3.1-.4.1z"/><path d="M898 1034.8c-.6 0-1-.4-1-1l4.4-444.7c0-.5.4-1 1-1 .5 0 1 .4 1 1l-4.4 444.7c-.1.5-.5 1-1 1z"/><path d="M898 1035.8h-.3c-1.1-.2-1.8-1.2-1.6-2.3l78.4-425.3c.2-1.1 1.2-1.8 2.3-1.6 1.1.2 1.8 1.2 1.6 2.3L900 1034.2c-.3.9-1.1 1.6-2 1.6z"/><path d="M898 1037.4c-.1 0-.2 0-.4-.1-.5-.2-.8-.8-.6-2.3l162.9-400.7c.2.5.8.2 1.3.4s.8.8.6.3l-162.9 400.7c-.2 1.5-.6 1.7-.9 1.7zm219.6-736.7c-.9-1.3-2.9-1.3-3.7.1-1.7 3.3-5.7 5.6-9.6 5.4-5.2-.3-9.7-4.1-12.2-8.7s-3.2-9.9-3.7-15.1c-1.5-16.1-.8-32.6-4.6-48.3-7.7-31.6-35-57.5-66.9-63.6-31.9-6.1-66.8 8-85.6 34.5a85.4 85.4 0 0 0-6.6 11.3c-19-45.7-52.9-26.3-52.9-26.3-8.8-15.7-21-26.6-35.9-33.7-3.6-1.7-7.5-3.3-11.6-2.3-1.3.3-2.5.9-3.5 1.9-2.4 2.4-2.5 5.4-1.7 8.3-4-2.7-8.2-4.9-12.7-6.5-3.1-1.1-6.8-1.9-9.5 0-3.1 2.1-3.4 6.5-3.3 10.2v2.8c-3.7-8.3-7.9-16.4-13.8-23.4-3-3.6-6.7-7-11.3-8.1-4.6-1.1-10.2.8-11.9 5.2-8.6-7.6-21.8-9.6-32.3-5-10.5 4.7-17.9 15.7-18 27.2-5.6-3.3-13-.5-17.2 4.7-1.6-.6-3.3-1.2-4.9-1.9-3-1.1-6.4-2.2-9.3-.8-2.1 1.1-3.4 3.4-3.7 5.8-.4 2.4 0 4.7.5 7.1 1 5.3 2.3 10.6 3.9 15.8-26.1-6.9-59.9-15.4-73.3-18.8-1.6-.4-2.7 1.6-1.5 2.7l73 72.1c-21.2 52-32.4 123.3-5.2 153 13.2 14.4 36.1 13.5 61.2 4.9.8 3.6 2.9 11.9 7.3 22.2-10.6 6.3-28.8 13.3-56.2 11.6-48.5-2.9-40.2 15.2-33.3 28.4 6.3 12.2 17.3 45.3 65.3 32.9 10.3 9 27.1 14.8 56.2-1.6 7.7-4.4 14-9 19.1-13.7 8.7 4.6 18.6 8.4 29.9 10.8 34.6 7.4 74.3-3.2 107.3-21.2 4.6 3.9 10 7.7 16.4 11.3 38.5 21.7 55.5 4.7 64.4-7.5 45.9 10.7 56.6-21.5 62.9-33.5 6.9-13.2 15.2-31.4-33.3-28.4-18.8 1.1-33.3-1.8-44-5.8 2-5.1 3.1-10.1 3.2-14.8.2-22.1-12.5-42.4-31.4-56.1.7-6.1 7.1-11.6 13.6-11.7 8.1-.1 15.2 5.6 19.8 12.3 4.6 6.6 7.5 14.4 11.8 21.2 12.1 19.1 36.4 29.5 58.6 25.3 21.6-4.2 39.3-20.9 49.1-40.6 4.4-8.8 7.5-18.4 7.7-28.2 0-8.1-2.1-16.6-6.6-23.4z"/><path d="M735.9 519.3c-9.1 0-17.2-2.8-24.2-8.4-6.9 1.7-13.2 2.4-18.7 2.4-30.9 0-41.7-22.5-47.4-34.4-.6-1.2-1.1-2.4-1.7-3.4-3.5-6.7-8.7-16.8-3.5-24.9 5-7.7 17.9-10.6 40.5-9.2 24.1 1.5 40.7-4 51-9.4-2.5-6.2-4.1-11.5-5.1-15.4-28.1 8.8-48.7 6.3-61.2-7.3-27.9-30.5-17.8-101 3.5-154.7L598 184.3c-1.8-1.8-2.2-4.4-.9-6.6 1.2-2.2 3.7-3.3 6.2-2.7 18.8 4.7 44.8 11.3 66.7 17.1-.8-3.2-1.5-6.4-2.1-9.6-.5-2.6-.9-5.5-.5-8.4.6-3.9 2.8-7.1 5.8-8.6 4.6-2.4 9.7-.4 12.4.6l2.5.9c3.9-3.6 9.4-6 14.8-5.3 2-11.1 9.5-21 19.9-25.6 10.6-4.7 23.4-3.5 33 2.9 3.6-3.4 9.1-4.5 13.7-3.4 6.1 1.5 10.6 6.1 13.4 9.4 3.5 4.2 6.4 8.7 8.8 13 .7-1.3 1.7-2.4 3.1-3.4 4.9-3.4 11.1-1.2 13.1-.4 2.6.9 5.2 2.1 7.7 3.4.5-1.6 1.5-3.1 2.7-4.3 1.4-1.4 3.2-2.4 5.3-2.9 5.4-1.3 10.2.6 14.2 2.5 15 7.1 27 17.9 35.8 32.2 5.2-2.1 15.4-4.9 26.6-1.1 10.1 3.4 18.5 11.4 25 23.7 1-1.7 2.1-3.3 3.2-4.9 19.5-27.6 56.3-42.5 89.5-36.1 33.2 6.3 62 33.7 70 66.5 2.7 11 3.2 22.3 3.7 33.2.2 5.2.5 10.5 1 15.6.5 5.5 1.2 9.9 3.2 13.6 2.1 3.8 5.6 6.4 8.9 6.6 2.4.1 4.9-1.3 5.9-3.3 1-1.9 2.8-3.1 5-3.2 2.2-.1 4.3.9 5.5 2.7 4.8 7.2 7.3 16.4 7.1 25.9-.2 9.4-2.9 19.5-8.1 29.9-11.3 22.6-30.7 38.6-51.9 42.7-23.8 4.6-49.6-6.5-62.6-27-2.1-3.3-3.8-6.7-5.5-10.1-2-3.9-3.9-7.6-6.2-11-4.7-6.7-10.9-10.6-16.5-10.6-3.8 0-7.8 2.9-9.2 6.2 19.9 15.3 31.1 36.2 30.8 57.7 0 3.9-.7 8.1-2.1 12.4 11.5 3.7 24.5 5.1 38.7 4.3 22.7-1.4 35.5 1.6 40.5 9.2 5.2 8 0 18.2-3.5 24.9l-1.7 3.4c-6.5 13.6-20 41.5-63 32.7-7.4 9.7-26.4 30-67.9 6.6-5.4-3-10.4-6.4-15-10-37 19.6-76.1 27.1-107.7 20.3-10.1-2.2-19.7-5.5-28.5-9.9-5.2 4.5-11.2 8.6-17.8 12.3-13.1 7.4-24.7 11-35.1 11zm-23.2-16.5c.9 0 1.9.3 2.6 1 12.6 11.1 29.6 10.4 51.7-2.1 7-3.9 13.1-8.3 18.4-13.1 1.2-1.1 3-1.3 4.5-.6 8.8 4.7 18.6 8.2 28.9 10.4 30.4 6.5 68.5-1.1 104.6-20.8 1.4-.8 3.2-.6 4.4.4 4.7 3.9 10 7.6 15.8 10.9 34.3 19.3 49.7 6.7 59.3-6.4.9-1.3 2.5-1.9 4.1-1.5 38.9 9.1 50.1-14.1 56.7-27.9.6-1.3 1.2-2.5 1.8-3.6 3.4-6.5 6.4-13.1 3.9-17-1.8-2.8-8.6-7.2-33.5-5.7-16.8 1-32.2-1-45.6-6-1-.4-1.8-1.1-2.2-2.1-.4-1-.5-2.1-.1-3 1.9-4.7 2.8-9.3 2.9-13.4.2-19.7-10.6-39-29.7-52.9-1.1-.8-1.7-2.2-1.6-3.6.9-8.1 8.9-15.1 17.4-15.2h.3c8.3 0 16.6 5.1 22.8 14 2.7 3.8 4.7 7.9 6.8 11.9 1.7 3.3 3.3 6.4 5.1 9.4 11.2 17.6 34.1 27.4 54.5 23.5 18.8-3.6 36.1-18 46.4-38.5 4.7-9.3 7.1-18.3 7.3-26.5.1-6.9-1.4-13.6-4.5-19.2-2.8 3.3-7.2 5.2-11.6 5-6.1-.3-12.1-4.5-15.4-10.7-2.8-5.2-3.6-11-4.1-16.6-.5-5.3-.7-10.8-1-16-.5-11.1-1-21.5-3.5-31.7-7.3-29.9-33.6-54.9-63.8-60.6-30.3-5.8-63.8 7.8-81.6 33-2.3 3.2-4.4 6.9-6.3 10.8-.7 1.4-2.1 2.3-3.6 2.2-1.5 0-2.9-1-3.5-2.4-5.9-14.3-13.9-23.2-23.6-26.5-12.4-4.2-23.6 2.1-23.7 2.1-.9.5-2 .7-3 .4-1-.3-1.9-.9-2.4-1.9-8.2-14.5-19.3-25-34.1-32-3.6-1.7-6.3-2.6-9-2-.7.2-1.2.5-1.7.9-.8.7-1.3 1.8-.7 4.6.4 1.6-.2 3.2-1.6 4.2-1.3.9-3.1.9-4.4 0-3.8-2.6-7.8-4.6-11.9-6.1-3.6-1.3-5.3-1-6-.5-1.5 1-1.7 4.5-1.6 7v2.8c0 1.9-1.3 3.5-3.1 3.9-1.8.4-3.7-.5-4.4-2.2-2.9-6.6-7.1-15.2-13.2-22.5-3.3-3.9-6.2-6.1-9.2-6.9-2.7-.7-6.3.3-7.3 2.8-.5 1.2-1.5 2.1-2.7 2.4-1.2.3-2.6 0-3.5-.9-7.5-6.6-19-8.3-28.1-4.3-9.1 4-15.6 13.8-15.7 23.7 0 1.4-.8 2.7-2 3.4-1.2.7-2.7.7-3.9 0-3.9-2.3-9.2.1-12.1 3.7-1.1 1.3-2.8 1.8-4.4 1.2l-4.9-1.9c-1.6-.6-4.6-1.7-6.1-1-.8.4-1.5 1.5-1.7 2.9-.3 1.7.1 3.7.4 5.7 1 5.1 2.2 10.3 3.8 15.4.4 1.4 0 2.8-.9 3.8-1 1-2.4 1.4-3.8 1.1-20.2-5.3-45.3-11.7-65.1-16.7l67 66.2c1.1 1.1 1.5 2.8.9 4.3-21.8 53.4-30.8 121.7-5.9 148.9 10.8 11.8 30 13.1 57 3.9 1.1-.4 2.2-.3 3.2.3s1.7 1.5 1.9 2.6c.8 3.8 2.8 11.7 7 21.4.8 1.8.1 3.9-1.6 4.9-10.9 6.5-29.9 13.9-58.4 12.1-24.9-1.5-31.7 2.9-33.5 5.7-2.5 3.9.5 10.5 3.9 17 .5 1.1 1.1 2.3 1.8 3.6 6.8 14.2 18.2 37.9 59.1 27.3-.1-.2.3-.2.6-.2z"/><path fill="#FFF" d="M1116.3 352.5c4.4-8.8 7.5-18.4 7.7-28.2.2-8.3-1.9-16.8-6.5-23.6-.9-1.3-2.9-1.3-3.7.1-1.7 3.3-5.7 5.6-9.6 5.4-5.2-.3-9.7-4.1-12.2-8.7s-3.2-9.9-3.7-15.1c-1.5-16.1-.8-32.6-4.6-48.3-7.7-31.6-35-57.5-66.9-63.6-31.9-6.1-66.8 8-85.6 34.5-17.9 25.3-20.2 60.7-6.2 88.2.7 1.4-.3 3.1-2 3.1-4.7 0-9.4 3-11.5 7.3-2.8 5.6-1.7 12.5 1.4 17.9 3.1 5.4 8.1 9.5 13.3 12.9 10.4 7 22.1 12.2 34.3 15.2 1.4.3 2.7-.7 2.7-2.1-.3-6.7 6.6-13.1 13.7-13.2 8.1-.1 15.2 5.6 19.8 12.3s7.5 14.4 11.8 21.2c12.1 19.1 36.4 29.5 58.6 25.3 21.7-4.2 39.4-20.9 49.2-40.6z"/><path d="M1057 395c-19.5 0-38.7-10.1-49.2-26.7-2-3.2-3.7-6.5-5.4-9.8-1.9-3.8-3.9-7.8-6.4-11.3-2.5-3.6-9.3-11.9-18.8-11.9h-.2c-3.4 0-6.9 1.7-9.4 4.4-2.2 2.3-3.4 5.1-3.3 7.8 0 1-.4 1.9-1.1 2.5-.8.6-1.8.9-2.8.6-12.4-3-24.1-8.2-34.6-15.3-4.5-3-10.1-7.3-13.6-13.3-3.6-6.2-4.2-13.4-1.5-18.8 2.3-4.6 7.4-7.8 12.4-7.8.4 0 .8-.2 1-.6.2-.3.2-.7 0-1.1-14.2-28-11.7-63.8 6.2-89.3 18.9-26.7 54.5-41.1 86.6-34.9 32.1 6.1 59.9 32.5 67.7 64.3 2.6 10.7 3.1 21.9 3.7 32.7.2 5.2.5 10.5 1 15.8.4 4.7 1.1 10.1 3.6 14.7 2 3.8 6.1 7.9 11.4 8.2 3.5.2 7.1-1.9 8.7-4.9.5-.9 1.4-1.5 2.5-1.6 1.1-.1 2.2.5 2.8 1.4 4.4 6.7 6.8 15.3 6.6 24.2-.2 9-2.8 18.6-7.8 28.6-10.9 21.8-29.6 37.2-49.8 41.1-3.3.7-6.8 1-10.3 1zm-79.8-61.6c7.4 0 14.8 4.6 20.4 12.7 2.5 3.7 4.6 7.7 6.5 11.6 1.6 3.2 3.3 6.6 5.3 9.6 12 18.8 35.6 29 57.6 24.8 19.7-3.8 37.8-18.8 48.4-40l.9.4-.9-.4c4.9-9.7 7.4-19.1 7.6-27.8.2-8.5-2.1-16.7-6.3-23.1-.3-.4-.8-.6-1.1-.6-.2 0-.6.1-.9.5-1.9 3.7-6.3 6.2-10.6 5.9-5.1-.3-10.1-3.8-13-9.2-2.7-4.9-3.4-10.6-3.8-15.5-.5-5.3-.7-10.7-1-15.9-.5-10.7-1-21.8-3.6-32.3-7.6-31-34.8-56.9-66.1-62.8-31.4-6-66.2 8.1-84.6 34.2-17.6 24.8-20 59.9-6.1 87.2.5 1 .4 2.1-.1 3-.6.9-1.6 1.5-2.7 1.5-4.3 0-8.7 2.8-10.7 6.8-2.4 4.9-1.9 11.4 1.4 17s8.7 9.7 13 12.6c10.4 7 21.8 12.1 34 15 .4.1.8 0 1.1-.2.2-.1.4-.4.4-.9-.1-3.2 1.2-6.5 3.8-9.2 2.9-3.1 7-4.9 10.8-5 .2.1.3.1.3.1z"/><path fill="#FFF" d="M778.3 436.4S765 459 724.1 462.9s-31.6 17.9-24.2 28.1 22.6 40.1 69 14c46.3-26.1 40.8-61.8 40.8-61.8l-31.4-6.8z"/><path d="M735.9 516.4c-19.7 0-29.4-14.1-34.9-22.1-.7-1-1.3-1.9-1.9-2.7-3.5-4.7-8.7-11.9-5.9-18 2.8-6.1 12.8-10 30.8-11.6 39.9-3.8 53.4-25.8 53.5-26 .2-.4.6-.6 1.1-.5l31.3 6.9c.4.1.7.4.8.8.1.4 5.1 36.6-41.3 62.8-13.6 7.5-24.6 10.4-33.5 10.4zm42.9-78.9c-2.5 3.8-16.9 22.8-54.6 26.4-17 1.6-26.8 5.1-29.2 10.5-2.1 4.7 1.7 10.5 5.7 16.1.6.8 1.2 1.7 1.9 2.7 8.3 12.1 23.8 34.7 65.8 11 41.7-23.5 40.8-55.2 40.4-60.1l-30-6.6z"/><path fill="#FFF" d="M932.2 423.6s13.3 22.6 54.2 26.5c41 3.9 31.6 17.9 24.2 28.1s-22.6 40.1-69 14-40.8-61.8-40.8-61.8l31.4-6.8z"/><path d="M974.6 503.7c-8.9 0-19.9-2.9-33.4-10.5-46.4-26.1-41.3-62.4-41.3-62.8.1-.4.4-.7.8-.8l31.3-6.9c.4-.1.8.1 1.1.5.1.2 13.6 22.3 53.5 26 18 1.7 28 5.5 30.8 11.6 2.8 6.2-2.5 13.3-5.9 18-.6.8-1.2 1.7-1.9 2.7-5.7 8.1-15.4 22.2-35 22.2zm-72.8-72.4c-.4 4.9-1.4 36.6 40.4 60.1 41.9 23.6 57.4 1.1 65.8-11 .7-1 1.3-1.9 1.9-2.7 4.1-5.5 7.8-11.3 5.7-16.1-2.4-5.4-12.2-8.9-29.2-10.5-37.7-3.6-52.1-22.6-54.6-26.4l-30 6.6z"/><path fill="#FFF" d="M1068.9 451.2c-6.9 13.2-19.1 51-77.9 28.9-15.1-5.6-26.3-12.6-34.6-19.9-36.3 29.5-92 51.9-138.5 42-22-4.7-38.7-14.4-51.4-25.9-8.7 9.5-21.7 19.1-41.2 26.4-58.8 22-71-15.7-77.9-28.9-6.9-13.2-15.2-31.4 33.3-28.4 27.4 1.7 45.5-5.3 56.2-11.6-6-13.9-7.7-24.2-7.7-24.2 38.7-102.4 160.7-78.9 160.7-78.9 49.5-12.7 105.3 25.5 104.9 71.5-.1 4.7-1.2 9.7-3.2 14.8 10.7 4 25.1 6.9 44 5.8 48.5-2.9 40.1 15.2 33.3 28.4z"/><path d="M693.1 510.4c-29.2 0-39.3-21.1-44.9-32.7-.6-1.3-1.2-2.5-1.7-3.5-3.2-6.1-7.9-15.3-3.7-21.9 4.3-6.6 16.7-9.2 37.9-7.9 26.6 1.6 44.4-5 54.9-11-5.7-13.4-7.4-23.5-7.4-23.6v-.5c20.2-53.3 63.1-72.1 95.6-78.5 33.6-6.6 63.2-1.6 66-1.1 25.3-6.4 54.7.3 76.6 17.5 18.8 14.7 29.4 34.8 29.2 55.1-.1 4.5-1 9.3-2.9 14.2 12.5 4.5 26.9 6.3 42.6 5.4 21.2-1.3 33.6 1.3 37.9 7.9 4.3 6.6-.5 15.8-3.7 21.9-.5 1-1.1 2.2-1.7 3.5-7.3 15.1-22.4 46.5-77.4 25.9-13.5-5.1-25.1-11.7-34.3-19.6-35 28.1-91.2 51.8-138.7 41.7-19.7-4.2-36.8-12.8-51.1-25.5-10.1 10.8-23.9 19.6-41 26-12.6 4.7-23.3 6.7-32.2 6.7zM671 446c-14.4 0-23.4 2.5-26.5 7.3-3.4 5.2 0 12.7 3.8 20 .5 1 1.1 2.2 1.7 3.5 7.5 15.7 21.6 44.9 74.9 24.9 17.2-6.5 30.9-15.3 40.9-26.2.2-.2.4-.3.7-.3.3 0 .5.1.7.3 14.1 12.9 31.3 21.5 50.9 25.7 47.1 10 103.1-13.8 137.7-41.8.4-.3.9-.3 1.3 0 9.1 8 20.7 14.6 34.3 19.8 53.4 20 67.4-9.2 74.9-24.9.6-1.3 1.2-2.5 1.7-3.5 3.8-7.2 7.1-14.8 3.8-20-3.8-5.9-16-8.2-36.1-7-16.4 1-31.4-1-44.4-5.8-.2-.1-.4-.3-.6-.5-.1-.2-.1-.5 0-.8 2-5.1 3-9.9 3.1-14.5.2-19.6-10.2-39.1-28.5-53.5-21.6-16.9-50.4-23.5-75.2-17.1h-.4c-.3-.1-30.8-5.8-65.5 1.1-31.9 6.3-74.1 24.7-94 77 .3 1.7 2.2 11.3 7.6 23.7.2.5 0 1-.4 1.2-10.6 6.3-29 13.4-56.7 11.7-3.5-.2-6.7-.3-9.7-.3z"/><path fill="#FFF" d="M827 325.3c-5.9 5-8.5 12.8-10.8 20.2-1.5 4.8-3 9.8-2 14.6s5.5 9.4 10.4 8.6c-7.5 4-11.3 13.8-8.4 21.8 2.9 8 12.1 13.1 20.4 11.3-5.5 9.2-3 22.3 5.5 28.8s21.7 5.6 29.2-2c3.5 8.6 13.7 14 22.8 11.9 9.1-2 16-11.2 15.5-20.5 6.6 5.1 16.5 5.5 23.4.9 6.9-4.6 10.4-13.9 8.1-22 7.9 3.4 18.3-1 21.2-9.1 3-8.1-2.1-18.2-10.3-20.7 5.4-2.7 8-9.8 5.9-15.4-2.2-5.6-8.9-9-14.7-7.5 1.4-5.7-.6-12.2-5.1-16-4.5-3.8-11.2-4.9-16.6-2.6-5.6-10-20.2-13.6-29.8-7.3-5.9 3.9-10.1 10.9-17 12.5-5.1 1.1-10.3-1.1-14.8-3.8s-8.6-6.1-13.6-7.6c-6.5-2.1-14.1-.6-19.3 3.9z"/><path d="M890.2 441.9c-7.8 0-15.7-4.6-19.2-11.7-7.9 7-21.1 7.6-29.5 1.1-8.2-6.4-11.1-18.9-6.7-28.3-8.2.8-16.7-4.4-19.6-12.2-2.7-7.5.1-16.4 6.2-21.3-4.1-1-7.4-5-8.3-9.3-1.1-5.2.6-10.7 2-15.1 2.1-6.8 4.8-15.3 11.1-20.7 5.5-4.6 13.5-6.3 20.3-4.1 3.8 1.2 7.2 3.4 10.5 5.6 1.1.7 2.2 1.5 3.3 2.1 5.5 3.4 10.1 4.6 14 3.7 4.1-.9 7.2-3.9 10.4-7 2-1.9 4-3.8 6.3-5.3 4.8-3.2 11-4.1 17.2-2.6 5.8 1.4 10.7 4.9 13.6 9.5 5.6-2 12.3-.9 16.8 3 4.4 3.7 6.6 9.8 5.7 15.5 5.9-.8 12.2 2.8 14.4 8.3 2.1 5.4 0 12.1-4.6 15.5 3.4 1.6 6.3 4.4 8.1 8 2.1 4.3 2.5 9.1 1 13.2s-4.9 7.6-9.3 9.5c-3.8 1.6-7.9 1.9-11.5.9 1.5 8-2.1 16.7-8.9 21.3-6.8 4.5-16.1 4.5-23 .2-.5 9-7.4 17.6-16.3 19.6-1.3.5-2.6.6-4 .6zm-18.9-14.3h.2c.3.1.6.3.7.6 3.3 8.2 13.1 13.3 21.7 11.3 8.6-1.9 15.2-10.7 14.8-19.5 0-.4.2-.7.5-.9.3-.2.8-.1 1.1.1 6.3 4.9 15.6 5.3 22.3.8 6.6-4.4 9.9-13.2 7.7-20.9-.1-.4 0-.8.3-1 .3-.2.7-.3 1-.2 3.5 1.5 7.8 1.4 11.7-.3 3.9-1.7 6.9-4.7 8.2-8.3 1.3-3.6 1-7.9-.9-11.7-1.9-3.8-5.1-6.6-8.8-7.8-.4-.1-.7-.5-.7-.9s.2-.8.5-1c4.9-2.5 7.4-9 5.4-14.2-2-5.2-8.2-8.3-13.5-6.9-.3.1-.7 0-.9-.2-.2-.2-.3-.6-.3-.9 1.3-5.4-.6-11.4-4.8-15-4.2-3.6-10.5-4.6-15.6-2.4-.5.2-1 0-1.2-.4-2.5-4.5-7.2-7.9-12.8-9.3-5.6-1.4-11.3-.5-15.6 2.3-2.1 1.4-4.1 3.3-6 5.1-3.3 3.2-6.7 6.5-11.4 7.5-4.5 1-9.6-.3-15.5-3.9-1.1-.7-2.3-1.4-3.4-2.2-3.2-2.1-6.4-4.2-10-5.3-6.2-1.9-13.5-.5-18.5 3.7-5.9 5-8.5 13.2-10.5 19.8-1.4 4.4-2.9 9.4-2 14.1.9 4.3 4.9 8.6 9.3 7.8.5-.1.9.2 1.1.7.2.5 0 1-.5 1.2-7.1 3.8-10.7 13-7.9 20.6 2.8 7.6 11.4 12.4 19.3 10.7.4-.1.8.1 1 .4.2.3.2.7 0 1.1-5.2 8.7-2.8 21.3 5.3 27.5 8 6.2 20.8 5.3 27.9-1.9.3-.1.5-.2.8-.2z"/><path fill="#FFF" d="M866.7 353c-3 2.7-3.5 7.3-2.4 11.1s3.7 7 6.2 10.2c5.1 6.4 10.2 12.9 15.3 19.3 8.4-6 15.3-14 20.1-23.1 2.5-4.8 4.5-10.2 3.1-15.4-1.4-5.5-6.8-9.6-12.5-9.6s-11 4.2-12.5 9.6c-2.6-1.8-5.4-3.4-8.5-4s-6.4-.2-8.8 1.9z"/><path d="M885.8 394.6c-.3 0-.6-.1-.8-.4l-15.3-19.3c-2.4-3-5.1-6.5-6.3-10.5-1.4-4.7-.4-9.4 2.6-12.1 2.4-2.1 6-3 9.7-2.2 2.9.6 5.5 2 7.7 3.5 2-5.2 7.4-9.1 13-9.1 6.1 0 11.9 4.4 13.4 10.3 1.2 4.6.2 9.7-3.2 16.1-4.9 9.3-12 17.4-20.4 23.5 0 .1-.2.2-.4.2zm-12.7-42.9c-2.3 0-4.3.7-5.8 2-2.8 2.5-3 6.9-2.1 10.1 1.1 3.7 3.6 6.8 6 9.9l14.7 18.6c7.9-5.9 14.5-13.5 19.1-22.3 3.1-6 4.1-10.6 3-14.7-1.3-5.1-6.3-8.9-11.5-8.9s-10.2 3.8-11.5 8.9c-.1.3-.3.6-.6.7-.3.1-.6.1-.9-.1-2.3-1.6-5-3.3-8.1-3.9-.8-.2-1.5-.3-2.3-.3z"/><path d="M902.8 384c-.2 0-.5-.1-.7-.3l-10.8-10.3c-.4-.4-.4-1 0-1.4.4-.4 1-.4 1.4 0l10.8 10.3c.4.4.4 1 0 1.4-.2.2-.5.3-.7.3zm8.2-4.8c-.2 0-.4-.1-.6-.2l-13.3-10.7c-.4-.3-.5-1-.1-1.4.3-.4 1-.5 1.4-.1l13.3 10.7c.4.3.5 1 .1 1.4-.2.1-.5.3-.8.3z"/><path d="M890.2 408.2c-12.7 0-25.9-7.2-34.8-19.3-9.2-12.5-13.2-27.7-16-42.3-.1-.5.2-1 .8-1.2.5-.1 1 .2 1.2.8 2.8 14.4 6.7 29.4 15.7 41.5 9.7 13.1 24.5 20.2 37.9 18.1 14.2-2.2 26.7-15.1 30.5-31.3 3-13.2 1.1-28.6-5.8-45.9-.2-.5 0-1.1.5-1.3.5-.2 1.1 0 1.3.5 7.1 17.6 9.1 33.5 5.9 47-3.9 17-17.1 30.5-32.1 32.8-1.8.5-3.4.6-5.1.6z"/><path d="M890 417.3c-2.9 0-5.8-.3-8.7-.8-14.7-2.7-28.3-12.1-37.2-25.7-8.1-12.3-12.3-27.5-12.1-43.9 0-.5.4-1 1-1 .5 0 1 .4 1 1-.2 16.1 3.9 30.9 11.8 42.8 8.7 13.1 21.8 22.2 35.9 24.8 15.1 2.8 31.1-2.2 40.8-12.9 7.9-8.6 12.3-21.4 12.4-35.9.1-13.1-2.9-26.2-5.9-38.8-.1-.5.2-1.1.7-1.2.5-.1 1.1.2 1.2.7 3 12.7 6.1 25.8 6 39.2-.2 15-4.8 28.2-12.9 37.2-8.4 9.3-21.1 14.5-34 14.5z"/><path fill="#FFF" d="M684.2 169.7c-3-1.1-6.4-2.2-9.3-.8-2.1 1.1-3.4 3.4-3.7 5.8-.4 2.4 0 4.7.5 7.1 1.9 10.1 4.8 20 8.6 29.6 6.2 1.9 13.2 1.1 18.9-2.1 5.6-3.3 9.8-8.9 11.3-15.3.8-3.6.7-7.6-1-10.8-2.6-4.7-8-7-13.1-8.9-4.2-1.6-8.2-3.1-12.2-4.6z"/><path d="M687.1 213.3c-2.4 0-4.9-.4-7.2-1.1-.3-.1-.5-.3-.6-.6-3.8-9.6-6.8-19.6-8.7-29.7-.5-2.5-.9-4.9-.5-7.4.5-2.9 2.1-5.4 4.3-6.5 3.2-1.6 6.9-.5 10.1.7l12.1 4.5c5.6 2.1 10.9 4.4 13.6 9.3 1.7 3.1 2.1 7.2 1.1 11.5-1.5 6.6-5.9 12.5-11.7 15.9-3.8 2.3-8.1 3.4-12.5 3.4zm-6.1-2.8c5.8 1.7 12.4.9 17.7-2.2 5.4-3.1 9.4-8.6 10.8-14.7.9-3.8.5-7.4-.9-10.1-2.3-4.3-7.3-6.4-12.6-8.4l-12.1-4.5c-2.9-1.1-6-2.1-8.5-.8-1.7.8-2.9 2.7-3.2 5-.3 2.2 0 4.4.5 6.8 1.7 9.8 4.6 19.6 8.3 28.9z"/><path fill="#FFF" d="M836.2 343.6c-35.8 35.8-133.7 100.2-167.7 63.1-27.2-29.7-16-101 5.2-153l-73-72.1c-1.2-1.2-.1-3.1 1.5-2.7 18.8 4.7 78.2 19.8 99.6 25.9 22.9-25.2 59.4-30.3 91.9-18.8 0-5.9-.1-11.9-.1-17.8 0-3.7.3-8.1 3.3-10.2 2.7-1.9 6.4-1.1 9.5 0 19.4 7 33.8 24.3 41.1 43.6 1.8 4.7 3.2 9.8 2.6 14.8-.5 3.6-2.1 7.2-4.8 9.5 24.9 37 22.2 86.4-9.1 117.7z"/><path d="M697.5 418.8h-1.4c-12.1-.3-21.6-4.1-28.3-11.5-27.3-29.9-16.7-100.3 4.8-153.4L600 182.2c-.8-.8-1-2.1-.4-3.1s1.7-1.5 2.9-1.3c28.6 7.2 79.1 20.1 99 25.7 21.5-23.3 57.1-30.7 91.2-19.1l-.1-16.4c0-4.2.4-8.7 3.8-11.1 3.3-2.3 7.5-1.1 10.4-.1 18.2 6.5 33.7 23 41.7 44.1 1.6 4.2 3.3 9.7 2.7 15.3-.5 3.7-2.1 7.1-4.5 9.6 25.1 38 21 87.6-9.7 118.3-26.3 26.4-93.7 74.7-139.5 74.7zm-95.7-239.1c-.3 0-.5.2-.5.3-.1.1-.2.5.1.8l73 72.1c.3.3.4.7.2 1.1-21.4 52.6-32.2 122.6-5.4 152 6.4 6.9 15.4 10.6 26.9 10.8 41.2.9 108.6-43.2 139.4-74 30.2-30.2 34-79.3 9-116.6-.3-.4-.2-1 .2-1.3 2.4-2.1 4.1-5.4 4.5-8.9.6-5.1-1-10.3-2.6-14.3-7.7-20.6-22.9-36.7-40.5-43-4-1.4-6.7-1.5-8.7-.1-2.6 1.8-2.9 5.8-2.9 9.4l.1 17.8c0 .3-.2.6-.4.8-.3.2-.6.2-.9.1-34.5-12.3-69.3-5.2-90.8 18.5-.3.3-.6.4-1 .3C682 200 630.8 187 602 179.7h-.2z"/><path fill="#FFF" d="M805.6 179.3v-3.8c4-.1 7.5 2.5 10.3 5.3 10.2 10.2 16 24.7 15.5 39.1"/><path d="M831.4 221c-.6 0-1-.5-1-1 .4-14.1-5.3-28.5-15.2-38.4-3.1-3.1-5.9-4.7-8.6-5v2.8c0 .5-.4 1-1 1-.5 0-1-.4-1-1v-3.8c0-.5.4-1 1-1 3.5-.1 7.1 1.7 11 5.6 10.4 10.3 16.3 25.2 15.8 39.9 0 .4-.5.9-1 .9z"/><path fill="#FFF" d="M762.8 247.2c15 14.5 33.1 25.8 52.8 32.7 4.2-16.3 3-33.5-.7-49.9-3.8-16.4-10.1-32-16.4-47.6-5-12.3-10.1-24.8-18.6-34.9-3-3.6-6.7-7-11.3-8.1-4.6-1.1-10.2.8-11.9 5.2-8.6-7.6-21.8-9.6-32.3-5-10.5 4.7-17.9 15.7-18 27.2-6.4-3.7-15.1.4-18.6 6.8s-3.2 14.3-2.2 21.6c3.4 23.3 13.5 45.5 28.8 63.4 15.3 17.8 35.8 31.2 58.3 38 1.9-16.9-1.6-34.5-9.9-49.4z"/><path d="M772.6 297.6h-.3c-22.5-6.9-43.4-20.5-58.8-38.3-15.4-17.9-25.7-40.5-29.1-63.9-1-6.7-1.6-15.2 2.3-22.2 2.1-3.9 6.1-7 10.4-8.2 2.9-.8 5.7-.7 8.1.3.8-11.4 8.1-22 18.6-26.6 10.6-4.7 23.4-2.9 32.4 4.3 2.4-4.2 8.1-5.6 12.4-4.6 5.3 1.3 9.3 5.5 11.8 8.5 8.7 10.4 13.8 23 18.8 35.2 6.2 15.4 12.7 31.3 16.5 47.7 4.3 18.6 4.5 35.5.7 50.4-.1.3-.2.5-.5.6-.2.1-.5.2-.8.1-18-6.3-34.8-16.4-49-29.1 6.5 13.9 9.1 29.7 7.4 45 0 .3-.2.5-.4.7-.1.1-.3.1-.5.1zM701 166.4c-1.2 0-2.3.2-3.2.5-3.8 1-7.3 3.8-9.2 7.3-3.6 6.5-3 14.6-2.1 21 3.3 23 13.5 45.3 28.6 62.9 14.9 17.3 35 30.5 56.7 37.4 1.6-16.4-1.8-33.3-9.8-47.7-.2-.4-.1-1 .3-1.3.4-.3.9-.3 1.3.1 14.5 14.1 32.3 25.2 51.4 32.1 3.4-14.3 3.1-30.6-1-48.4-3.8-16.3-10.2-32.2-16.4-47.4-4.9-12.1-10-24.5-18.5-34.7-2.4-2.8-6-6.7-10.8-7.8-3.9-1-9.2.5-10.7 4.6-.1.3-.4.5-.7.6-.3.1-.6 0-.9-.2-8.3-7.3-21.1-9.3-31.3-4.8-10.1 4.5-17.3 15.3-17.5 26.4 0 .3-.2.7-.5.8-.3.2-.7.2-1 0-1.5-1.1-3.2-1.4-4.7-1.4z"/><path fill="#FFF" d="M835.9 156.4c14.9 7.1 27.1 18 35.9 33.7 0 0 43.6-25 59.6 48.5 5-1 10.1 2.5 12.3 7.1 2.2 4.6 2.2 9.9 1.8 15-2.2 24.6-14.5 48.2-33.3 64.2-18.9 16-44.2 24.2-68.8 22.3-4-.3-8.2-.9-11.6-3-3.5-2-6.2-5.8-6-9.8 5 2.6 11.2 2.8 16.3.4-1.6-.6-3.2-1.1-4.9-1.7 12.5-11.3 19.7-28.2 19.2-45-.3-10.3-3.3-20.3-6.2-30.1-1.4-4.8-2.9-9.6-4.3-14.4-2.4-8-4.8-16-7.3-24-5.4-17.2-11.4-34.3-18-51.1-1.6-4-3.2-8.8.4-12.3.9-.9 2.2-1.6 3.5-1.9 4-1.1 7.8.4 11.4 2.1z"/><path d="M850.5 348.3c-2.4 0-4.8-.1-7.2-.3-3.9-.3-8.3-.9-12.1-3.1-4.2-2.4-6.7-6.6-6.5-10.7 0-.3.2-.6.5-.8.3-.2.6-.2.9 0 3.9 2 8.6 2.5 12.9 1.3l-2.2-.8c-.3-.1-.6-.4-.6-.7-.1-.3 0-.7.3-.9 12.3-11.1 19.4-27.7 18.9-44.3-.3-10.2-3.3-20.2-6.2-29.9l-4.3-14.4c-2.4-7.9-4.8-16-7.3-24-5.4-17.1-11.5-34.3-18-51-1.3-3.5-3.6-9.2.6-13.4 1-1 2.4-1.7 3.9-2.1 4.5-1.1 8.7.6 12.2 2.3 15.5 7.3 27.2 18.2 35.8 33.2 3.4-1.7 16-7 29.5-1 14.3 6.3 24.5 23.1 30.5 49.7 5.4-.6 10.3 3.3 12.4 7.7 2.4 5 2.3 10.6 1.9 15.5-2.2 25-14.5 48.6-33.7 64.9-17.2 14.7-39.6 22.8-62.2 22.8zm-23.8-12.5c.4 2.9 2.4 5.6 5.5 7.4 3.4 2 7.6 2.5 11.2 2.8 24.5 1.9 49.4-6.1 68.1-22 18.8-15.9 30.8-39 33-63.5.4-4.6.5-9.9-1.7-14.4-1.9-3.9-6.5-7.5-11.2-6.5-.5.1-1-.2-1.2-.8-5.8-26.5-15.7-43-29.6-49.2-14.6-6.5-28.5 1.3-28.6 1.4-.2.1-.5.2-.7.1-.3-.1-.5-.2-.6-.5-8.5-15.1-20.1-26-35.4-33.3-3.4-1.6-7.1-3.1-10.9-2.2-1.2.3-2.2.8-3 1.6-3 3-1.8 7.2-.2 11.2 6.5 16.8 12.6 34 18 51.1 2.5 8 5 16.1 7.3 24l4.3 14.4c2.9 9.8 6 19.9 6.2 30.4.5 16.6-6.4 33.2-18.3 44.7l3.3 1.1c.4.1.6.5.7.9 0 .4-.2.8-.6.9-4.8 2.4-10.6 2.5-15.6.4z"/><ellipse transform="rotate(-73.482 764.553 346.14)" cx="764.5" cy="346.1" rx="30.6" ry="21.1"/><path d="M792.8 328.9L777 337c-.9.5-2 .1-2.4-.8l-1.6-3.1c-.5-.9-.1-2 .8-2.4l15.8-8.1c.9-.5 2-.1 2.4.8l1.6 3.1c.4.9.1 1.9-.8 2.4z"/><path d="M793.1 339.7l-17.7.2c-1 0-1.8-.8-1.8-1.8v-3.5c0-1 .8-1.8 1.8-1.8l17.7-.2c1 0 1.8.8 1.8 1.8v3.5c0 .9-.8 1.8-1.8 1.8z"/><path fill="#FFF" d="M762.1 330.4c-1.9-1.1-4.4-.4-6.2.9-1.1.8-2.1 1.8-2.7 3s-.7 2.7-.2 4c.7 1.5 2.4 2.5 4.1 2.6 1.7.1 3.4-.6 4.7-1.7 1.3-1.1 2.3-2.7 2.5-4.4s-.8-3.5-2.2-4.4zm10 25.6c1.8-2 3.3-4.9 2.1-7.4-.9-1.9-3.3-2.8-5.3-2.4-2 .4-3.7 1.9-4.8 3.7-1.5-1.3-3.1-2.7-5.1-3.2-2-.4-4.4.5-4.9 2.5-.3 1.2.2 2.5.7 3.7 1.8 4.1 3.5 8.1 5.3 12.2 4.3-2.6 8.6-5.3 12-9.1z"/><path d="M627 206.1l-1.8-.8c6.5-14.7-5.6-21.3-6.2-21.5l.9-1.7c.2 0 14.4 7.5 7.1 24zm22.3 22.6l-1.5-1.2c5.7-7.3 8.1-14.4 7-21.2-1.5-9.8-9.7-15.6-9.8-15.6l1.1-1.6c.4.3 8.9 6.3 10.6 16.9 1.1 7.3-1.3 15-7.4 22.7zm24.8 25.6l-1.1-1.6c1-.7 24.6-16.9 2.3-54.2l1.7-1c23.3 38.9-2.7 56.6-2.9 56.8zm97.3 42.7c-.7-.3-74.5-27.2-70.5-130.7l2 .1c-4 102.1 68.5 128.6 69.2 128.8l-.7 1.8zm-6.8-47c-22-32-9.5-102.9-9-105.9l1.9.3c-.1.7-12.9 73.1 8.7 104.4l-1.6 1.2z"/><path d="M814.3 280.8c-.7-.4-68.8-37.5-57.1-138.9l1.9.2c-11.6 100 55.4 136.5 56.1 136.9l-.9 1.8zm-51.4-32.2h-.2c-1.6-.4-38.3-9.4-57.7-81.6-.1-.5.2-1.1.7-1.2.5-.1 1.1.2 1.2.7 12 44.6 31 64.8 43.6 73.6-33.3-30.7-26.8-99.9-26.7-100.7.1-.5.5-.9 1.1-.9.5.1.9.5.9 1.1-.1.8-7.8 84.2 37.7 107.1.4.2.6.7.5 1.2-.3.4-.7.7-1.1.7zm76 84.7c-.8 0-1.2-.1-1.4-.2-.5-.2-.8-.8-.6-1.3.2-.5.8-.8 1.3-.6.1 0 10.2 2.8 33-33.8 23.4-37.4.1-106.6-.1-107.3-.2-.5.1-1.1.6-1.2.5-.2 1.1.1 1.2.6.2.7 23.8 70.7-.1 108.9-19.5 31.5-30.2 34.9-33.9 34.9z"/><path d="M847.2 344.5c-16.5 0-22-7.7-22.3-8.2-.3-.4-.2-1.1.3-1.4.5-.3 1.1-.2 1.4.3.1.2 13.2 18.1 61.3-3.3 40.5-18 43.5-71 43.4-88.3-31.2 92.8-89.5 92.1-90 92.1s-1-.5-.9-1c0-.5.5-1 1-1 .6 0 59.6.6 89.8-96 .1-.4.6-.7 1-.7.5.1.8.4.9.9.1.7 5.4 73.7-44.3 95.8-18.5 8.2-31.9 10.8-41.6 10.8zm-16.5-123.7c-.2 0-.5-.1-.7-.3l-14.7-14c-.4-.4-.4-1 0-1.4.4-.4 1-.4 1.4 0l14.7 14c.4.4.4 1 0 1.4-.2.2-.5.3-.7.3z"/><path d="M1083.5 331.8c-3.1 0-6.2-.4-9.2-1.1-13.6-3.4-25.1-14.8-28.6-28.3-1.9-7.4-1.7-15.2-1.4-22.7.1-2.6.2-5.2.2-7.8 0-21.3-6.5-40.6-18.4-54.2-13.5-15.6-33.9-23-52-18.9-17.7 4-33.4 19.1-40.9 39.4-.2.5-.8.8-1.3.6-.5-.2-.8-.8-.6-1.3 7.8-21 24-36.6 42.4-40.7 18.8-4.2 40 3.5 54 19.6 12.2 14 18.9 33.7 18.9 55.5 0 2.6-.1 5.3-.2 7.9-.3 7.4-.5 15 1.4 22.1 3.4 12.9 14.3 23.7 27.2 26.9 12.9 3.2 27.7-1.1 36.7-10.9 2.7-2.9 4.3-5.6 4.9-8.3.8-3.3.1-6.6-1.8-8.7-.4-.4-.3-1 .1-1.4.4-.4 1-.3 1.4.1 2.4 2.6 3.3 6.6 2.3 10.5-.8 3-2.5 6-5.4 9.1-7.7 8-18.7 12.6-29.7 12.6zm-69.4 43.5c-.3 0-.6-.1-.8-.4-3.4-4.6-4.8-10.9-4.1-18.7.2-2.9.7-5.7 1.2-8.5.5-3.3 1.1-6.8 1.3-10.2.7-14.5-6.5-29.4-18.4-37.9-11.8-8.5-28.2-10.5-41.8-5.2-13.5 5.3-24.2 18-27.1 32.3-.1.5-.6.9-1.2.8-.5-.1-.9-.6-.8-1.2 3-14.9 14.1-28.1 28.3-33.7 14.1-5.6 31.3-3.5 43.7 5.4 12.4 8.8 19.9 24.4 19.2 39.6-.2 3.5-.7 7-1.3 10.4-.4 2.7-.9 5.6-1.1 8.4-.6 7.4.6 13.2 3.8 17.4.3.4.2 1-.2 1.4-.3.1-.5.1-.7.1z"/><path d="M995.6 344.6c-.6 0-1-.5-1-1 .4-12.5-9.2-24.4-21.5-26.7-12.3-2.2-25.5 5.6-29.5 17.4-.2.5-.7.8-1.2.6-.5-.2-.8-.7-.6-1.2 4.3-12.7 18.5-21.1 31.7-18.7 13.2 2.4 23.6 15.3 23.1 28.7 0 .4-.5.9-1 .9zm77.3 11.2c-3 0-6-.3-8.9-.8-14.1-2.5-27.5-10.5-37.6-22.6-7-8.3-12-18.1-17-27.5-1.1-2.2-2.3-4.4-3.5-6.6-6.1-11.3-13.1-22.8-23.9-30.6-11.6-8.3-25.8-10.1-36.3-4.5-.5.3-1.1.1-1.3-.4-.3-.5-.1-1.1.4-1.3 11.1-5.9 26.1-4.1 38.3 4.7 11.1 8 18.6 20.3 24.5 31.2 1.2 2.2 2.3 4.4 3.5 6.6 4.9 9.3 9.9 19 16.7 27.1 9.8 11.7 22.8 19.5 36.5 21.9 14.6 2.6 30.1-1.6 40.3-10.9 11-9.9 15.7-25.6 11.8-39.1-.2-.5.1-1.1.7-1.2.5-.2 1.1.1 1.2.7 4.1 14.1-.9 30.6-12.4 41.1-8.6 7.9-20.7 12.2-33 12.2z"/><path d="M1078.6 338.7c-11 0-22.1-4.2-30.1-11.7-12.4-11.7-16.7-29-20-45.8l-.3-1.5c-3.1-16-6.4-32.5-16.7-44.7-9.1-10.7-23.4-16.9-37.5-16.1-14 .8-27.6 8.5-35.5 20.1-.3.4-.9.6-1.4.3-.4-.3-.6-.9-.3-1.4 8.2-12.1 22.4-20.2 37-20.9 14.6-.8 29.6 5.7 39.1 16.8 10.7 12.6 14 29.3 17.2 45.5l.3 1.5c3.3 16.5 7.4 33.5 19.4 44.8 10.1 9.5 25.4 13.4 38.9 9.9s24.9-14.4 29-27.7c.2-.5.7-.8 1.2-.6.5.2.8.7.6 1.2-4.4 13.9-16.3 25.3-30.4 29-3.4.9-6.9 1.3-10.5 1.3z"/><path d="M1066.8 371.5c-11.5 0-23.1-3.4-32.2-10.2-14.2-10.6-22.9-28.9-26.3-42.5-.1-.5.2-1.1.7-1.2.5-.1 1.1.2 1.2.7 3.3 13.3 11.7 31.2 25.5 41.4 17.7 13.1 44.3 13.1 62 .1 17.7-13.1 25.5-38.6 18.2-59.3-.2-.5.1-1.1.6-1.2.5-.2 1.1.1 1.2.6 7.6 21.5-.5 48-18.9 61.5-9.1 6.7-20.6 10.1-32 10.1z"/><g><animate attributeName="opacity" values="0.3;0.6;1;0.3" dur="1.8s" repeatCount="indefinite"/><path fill="none" stroke="#C33" stroke-miterlimit="10" d="M662.3 68.2c-.4 3.7 3.1 6.5 6.2 8.5l12.6 8.4c4.4-5.2 7.3-11.6 8.4-18.3.5-3.1.3-7.1-2.6-8.6-1.9-1-4.4-.4-6.1.9-1.7 1.3-2.9 3.2-3.9 5.1-2.7-1-5.6-1.9-8.5-1.5-2.9.5-5.8 2.6-6.1 5.5z"/><path fill="none" stroke="#C33" stroke-miterlimit="10" d="M681.1 86.1c-.2 0-.4-.1-.5-.2L668 77.5c-3.3-2.2-7.1-5.3-6.6-9.5.4-3.5 3.8-5.8 6.9-6.3 2.9-.4 5.7.4 8.2 1.3 1-1.7 2.1-3.4 3.8-4.7 2.2-1.7 5-2.1 7.1-1 3.9 2 3.4 7.4 3.1 9.6-1.1 6.9-4.1 13.4-8.6 18.8-.2.3-.5.4-.8.4zm-17.8-17.8c-.4 3.2 2.9 5.7 5.7 7.6l11.9 7.9c4-5 6.6-10.9 7.6-17.1.2-1.4.8-6.1-2-7.5-1.6-.9-3.7-.2-5 .8-1.6 1.2-2.7 3.1-3.7 4.8-.2.4-.7.6-1.2.4-2.5-.9-5.3-1.9-8.1-1.5-2.3.4-4.9 2.1-5.2 4.6z"/></g><circle fill="#FFF" cx="596.4" cy="248.7" r="5.5"/><path d="M596.4 255.2c-3.6 0-6.5-2.9-6.5-6.5s2.9-6.5 6.5-6.5 6.5 2.9 6.5 6.5-2.9 6.5-6.5 6.5zm0-11c-2.5 0-4.5 2-4.5 4.5s2 4.5 4.5 4.5 4.5-2 4.5-4.5c0-2.4-2-4.5-4.5-4.5z"/><circle fill="#FFF" cx="632.2" cy="384" r="3.3"/><path d="M632.2 388.3c-2.4 0-4.3-1.9-4.3-4.3s1.9-4.3 4.3-4.3 4.3 1.9 4.3 4.3-1.9 4.3-4.3 4.3zm0-6.6c-1.3 0-2.3 1-2.3 2.3 0 1.3 1 2.3 2.3 2.3 1.3 0 2.3-1 2.3-2.3.1-1.2-1-2.3-2.3-2.3z"/><circle fill="#FFF" cx="1041" cy="163.2" r="4.8"/><path d="M1041 168.9c-3.2 0-5.7-2.6-5.7-5.7 0-3.2 2.6-5.7 5.7-5.7 3.2 0 5.7 2.6 5.7 5.7.1 3.1-2.5 5.7-5.7 5.7zm0-9.5c-2.1 0-3.8 1.7-3.8 3.8 0 2.1 1.7 3.8 3.8 3.8 2.1 0 3.8-1.7 3.8-3.8 0-2.1-1.7-3.8-3.8-3.8z"/><circle fill="#FFF" cx="760.2" cy="130.3" r="3.3"/><path d="M760.2 134.6c-2.4 0-4.3-1.9-4.3-4.3s1.9-4.3 4.3-4.3 4.3 1.9 4.3 4.3c0 2.3-1.9 4.3-4.3 4.3zm0-6.6c-1.3 0-2.3 1-2.3 2.3s1 2.3 2.3 2.3c1.3 0 2.3-1 2.3-2.3s-1-2.3-2.3-2.3z"/><circle fill="#FFF" cx="478.3" cy="330.3" r="3.7"/><path d="M478.3 334.9c-2.6 0-4.6-2.1-4.6-4.6s2.1-4.6 4.6-4.6 4.6 2.1 4.6 4.6-2 4.6-4.6 4.6zm0-7.3c-1.5 0-2.7 1.2-2.7 2.7s1.2 2.7 2.7 2.7 2.7-1.2 2.7-2.7-1.2-2.7-2.7-2.7z"/><path fill="#FFF" d="M607.9 332.3l1.3 10.3c.1 1.1.8 2.1 1.8 2.6l9.2 4.8c2.5 1.3 2.4 4.9-.1 6.1l-9.4 4.4c-1 .5-1.7 1.4-1.9 2.5l-1.7 10.3c-.5 2.8-3.9 3.8-5.8 1.8l-7.1-7.6c-.8-.8-1.9-1.2-3-1l-10.3 1.5c-2.8.4-4.8-2.5-3.5-5l5-9.1c.5-1 .6-2.2.1-3.2l-4.6-9.3c-1.3-2.5.9-5.4 3.7-4.8l10.2 2c1.1.2 2.2-.1 3-.9l7.4-7.3c2-2.1 5.3-.9 5.7 1.9z"/><path d="M603.7 377c-1.2 0-2.3-.5-3.2-1.4l-7.1-7.6c-.5-.6-1.3-.9-2.1-.7l-10.3 1.5c-1.7.2-3.3-.5-4.2-1.8-1-1.4-1-3.1-.2-4.6l5-9.1c.4-.7.4-1.5 0-2.2l-4.6-9.3c-.7-1.5-.6-3.3.4-4.6 1-1.3 2.7-2 4.3-1.6l10.2 2c.8.2 1.6-.1 2.1-.6l7.4-7.3c1.2-1.2 2.9-1.6 4.5-1 1.6.6 2.7 1.9 2.9 3.6l1.3 10.3c.1.8.6 1.5 1.3 1.8l9.2 4.8c1.5.8 2.4 2.3 2.4 4 0 1.7-1 3.2-2.5 3.9l-9.4 4.4c-.7.3-1.2 1-1.4 1.8l-1.7 10.2c-.3 1.7-1.4 3-3 3.5h-1.3zm-12.1-11.7c1.2 0 2.4.5 3.2 1.4l7.1 7.6c.6.7 1.6.9 2.5.7.9-.3 1.5-1 1.7-1.9l1.7-10.3c.2-1.4 1.2-2.6 2.5-3.2l9.4-4.4c.9-.4 1.4-1.2 1.4-2.1 0-.9-.5-1.8-1.3-2.2l-9.2-4.8c-1.3-.7-2.1-1.9-2.3-3.3l-1.3-10.3c-.1-.9-.7-1.7-1.6-2-.9-.3-1.8-.1-2.5.6l-7.4 7.3c-1 1-2.5 1.4-3.9 1.2l-10.2-2c-.9-.2-1.8.2-2.4.9-.6.7-.7 1.7-.2 2.5l4.6 9.3c.6 1.3.6 2.8-.1 4.1l-5 9.1c-.5.8-.4 1.8.1 2.5.5.8 1.4 1.1 2.3 1l10.3-1.5c.2-.2.4-.2.6-.2z"/><path fill="#FFF" d="M1103.6 149.1l3.7 6c.4.6 1.1 1.1 1.8 1.1l7.1.4c1.9.1 2.9 2.3 1.6 3.8l-4.6 5.4c-.5.6-.7 1.4-.5 2.1l1.8 6.8c.5 1.8-1.3 3.5-3.1 2.7l-6.5-2.7c-.7-.3-1.5-.2-2.1.2l-5.9 3.8c-1.6 1-3.7-.2-3.5-2.1l.6-7c.1-.8-.3-1.5-.8-2l-5.5-4.5c-1.5-1.2-.9-3.6.9-4l6.9-1.6c.7-.2 1.3-.7 1.6-1.4l2.5-6.6c.6-1.8 3-2 4-.4z"/><path d="M1095.6 180.1c-.6 0-1.2-.2-1.7-.5-1.1-.6-1.7-1.8-1.6-3.1l.6-7c0-.4-.1-.9-.5-1.1l-5.5-4.5c-1-.8-1.4-2-1.1-3.3.3-1.2 1.2-2.2 2.4-2.5l6.9-1.6c.4-.1.8-.4.9-.8l2.5-6.6c.5-1.2 1.5-2 2.8-2.1 1.2-.1 2.4.5 3.1 1.6l3.7 6c.2.4.6.6 1.1.6l7 .4c1.3.1 2.3.8 2.8 2s.3 2.5-.5 3.4l-4.6 5.4c-.3.3-.4.8-.3 1.2l1.8 6.8c.3 1.2-.1 2.5-1 3.3-.9.8-2.3 1-3.4.6l-6.5-2.7c-.4-.2-.9-.1-1.2.1l-5.9 3.8c-.6.4-1.2.6-1.8.6zm6-31.1h-.1c-.5 0-.9.4-1.1.8l-2.5 6.6c-.4 1-1.2 1.8-2.3 2l-6.9 1.6c-.5.1-.9.5-1 1-.1.5.1 1 .5 1.3l5.5 4.5c.8.7 1.3 1.7 1.2 2.8l-.6 7c0 .5.2 1 .6 1.2.4.3 1 .3 1.4 0l5.9-3.8c.9-.6 2-.7 3-.3l6.5 2.7c.5.2 1 .1 1.4-.2.4-.3.5-.8.4-1.3l-1.8-6.8c-.3-1 0-2.2.7-3l4.6-5.4c.3-.4.4-.9.2-1.4-.2-.5-.6-.8-1.1-.8l-7.1-.4c-1.1-.1-2.1-.6-2.6-1.6l-3.7-6c-.2-.2-.6-.5-1.1-.5z"/><path fill="#FFF" d="M492.9 457.9l3.2 5.2c.2.3.4.4.7.4l6.1.3c.7 0 1.1.9.6 1.5l-4 4.6c-.2.2-.3.5-.2.8l1.6 5.9c.2.7-.5 1.4-1.2 1.1l-5.6-2.3c-.3-.1-.6-.1-.8.1l-5.1 3.3c-.6.4-1.4-.1-1.4-.8l.5-6.1c0-.3-.1-.6-.3-.8l-4.7-3.8c-.6-.5-.4-1.4.4-1.6l5.9-1.4c.3-.1.5-.3.6-.6l2.2-5.7c.1-.7 1.1-.8 1.5-.1z"/><path d="M487.6 479.9c-.3 0-.7-.1-1-.3-.6-.4-1-1-.9-1.8l.5-6.1-4.7-3.8c-.6-.5-.8-1.2-.6-1.9.2-.7.7-1.2 1.4-1.4l5.9-1.4 2.1-5.6c.3-.7.9-1.1 1.6-1.2.7-.1 1.4.3 1.8.9l3.2 5.2 6 .3c.7 0 1.3.5 1.6 1.1.3.7.2 1.4-.3 2l-4 4.6 1.6 5.8c.2.7 0 1.4-.6 1.9-.5.5-1.3.6-2 .3l-5.6-2.3-5 3.3c-.2.3-.6.4-1 .4zm4.5-21.4l-2.1 5.6c-.2.6-.7 1-1.3 1.2l-5.9 1.4 4.8 3.7c.5.4.7 1 .7 1.6l-.5 6.1 5-3.4c.5-.3 1.2-.4 1.7-.2l5.6 2.3-1.7-5.8c-.2-.6 0-1.2.4-1.7l4-4.6-6-.2c-.6 0-1.2-.4-1.5-.9l-3.2-5.1z"/><path fill="#FFF" d="M536.8 439h2.1c4.9-5.1 10.3-9.8 14.5-15.6 3-4.2 5.3-9 5.8-14.1s-.9-10.6-4.4-14.3-9.4-5.4-14.1-3.4c-3.7 1.6-6.3 5.6-6.4 9.5 0 1.1-1.2 1.8-2.1 1.2-2.6-1.8-5.4-3.4-8.5-4.1-4.2-.9-9.2.5-11.1 4.4-1.3 2.6-1 5.9.3 8.6 1.2 2.7 3.3 4.9 5.3 7.1 6.1 6.9 12.4 13.8 18.6 20.7z"/><path d="M538.9 440h-2.1c-.3 0-.5-.1-.7-.3L517.3 419c-2-2.2-4.1-4.5-5.4-7.4-1.5-3.3-1.6-6.8-.3-9.4 2.2-4.4 7.8-5.8 12.2-4.9 3.5.7 6.6 2.7 8.8 4.2 0 0 .2.1.4 0 .1 0 .2-.1.2-.4 0-4.4 2.9-8.7 7-10.4 4.9-2.1 11.2-.6 15.2 3.6 3.5 3.7 5.3 9.3 4.7 15.1-.5 4.8-2.5 9.7-6 14.6-3 4.3-6.8 8-10.5 11.6l-4.1 4.1c0 .2-.3.3-.6.3zm-1.6-2h1.3c1.2-1.3 2.5-2.5 3.8-3.8 3.6-3.6 7.3-7.2 10.3-11.4 3.3-4.6 5.2-9.2 5.6-13.7.5-5.2-1-10.2-4.2-13.5-3.4-3.6-8.9-4.9-13-3.2-3.3 1.4-5.7 5-5.8 8.6 0 .9-.5 1.7-1.3 2.2-.8.4-1.7.3-2.4-.2-2.1-1.5-5-3.3-8.1-3.9-3.6-.8-8.3.3-10.1 3.8-1.1 2.1-1 5 .3 7.7 1.2 2.6 3.2 4.8 5.1 6.9l18.5 20.5z"/><path fill="#FFF" d="M1149.8 408.6c1.5-3 2.4-6.5 1.4-9.7-1-3.2-4.3-5.8-7.6-5.1-2.1.5-3.7 2.1-4.6 4-1 1.9-1.3 4-1.7 6.1-1.8-2-3.8-4.1-6.4-4.8s-6 .8-6.2 3.5c-.2 1.6.7 3 1.6 4.3 3.1 4.8 6.2 9.7 9.3 14.5 6-2.2 11.3-6.9 14.2-12.8z"/><path d="M1135.5 422.4c-.3 0-.6-.2-.8-.5l-9.3-14.5c-.8-1.3-1.9-3-1.7-5 .1-1.3.9-2.5 2.1-3.4 1.5-1.1 3.6-1.4 5.4-1 2.3.6 4.1 2.1 5.6 3.6.3-1.5.7-3 1.4-4.4 1.2-2.4 3.1-4 5.3-4.5 3.9-.9 7.6 2.3 8.7 5.7 1.2 3.8-.1 7.8-1.5 10.4-3 6.1-8.4 11-14.9 13.3-.1.3-.2.3-.3.3zm-6-22.5c-1 0-1.9.3-2.7.8-.5.4-1.1 1-1.2 1.9-.1 1.2.6 2.4 1.4 3.7l8.9 13.8c5.6-2.3 10.4-6.6 13-12.1 1.1-2.3 2.3-5.8 1.3-9-.8-2.6-3.6-5-6.4-4.4-1.6.4-3 1.6-4 3.5-.9 1.8-1.3 3.8-1.6 5.8-.1.4-.3.7-.7.8-.4.1-.7 0-1-.3-1.6-1.7-3.5-3.8-6-4.5-.3.1-.6 0-1 0z"/><path fill="#FFF" d="M1098.5 235.6c.8-2.4 2.2-4.5 3.5-6.8 1.2-2.2 2.2-4.7 2.1-7.2-.2-2.5-1.8-5.1-4.3-5.6s-5.3 2-4.5 4.4c-.5-1.8-3.2-2.3-4.7-1.2s-2 3.2-1.8 5.1c.5 5.1 5.3 8.5 9.7 11.3z"/><path d="M1098.5 236.5c-.2 0-.4-.1-.5-.1-4.6-2.9-9.6-6.4-10.3-12-.3-2 .2-4.6 2.2-6 1.1-.8 2.6-1 3.9-.5.2.1.4.1.6.2.2-.5.5-.9.9-1.4 1.2-1.3 3-2 4.7-1.7 3.1.6 4.9 3.7 5.1 6.5.2 3-1.1 5.7-2.2 7.7-.3.6-.7 1.2-1 1.7-.9 1.6-1.8 3.2-2.4 4.9-.1.3-.3.5-.6.6-.2.1-.3.1-.4.1zm-6.2-16.9c-.5 0-1 .1-1.3.4-1.3.9-1.6 2.9-1.4 4.2.5 4.3 4.5 7.4 8.4 9.9.6-1.4 1.4-2.8 2.1-4.1.3-.6.7-1.1 1-1.7 1-1.8 2.1-4.2 2-6.7-.1-2-1.4-4.3-3.5-4.7-.9-.2-2.1.2-2.8 1.1-.3.3-.9 1.1-.6 2.1.2.5-.1 1.1-.7 1.2-.5.2-1.1-.1-1.2-.7-.2-.6-.7-.9-1-1h-1z"/><path fill="#FFF" d="M979.1 134.1c.3-2.7.3-5.4-.6-7.9-.9-2.5-2.9-4.8-5.5-5.4-3.6-.9-7.3 1.6-9.1 4.9s-2.1 7.1-2.3 10.8c-2.1-1.4-4.2-2.9-6.7-3.3s-5.4.4-6.5 2.7c-.8 1.7-.5 3.7.4 5.4.9 1.6 2.2 3 3.6 4.3l15.6 15c6.2-7.6 10.1-16.9 11.1-26.5z"/><path d="M967.9 161.4c-.3 0-.5-.1-.7-.3l-15.6-15c-1.3-1.3-2.8-2.7-3.8-4.5-1.1-2.1-1.3-4.5-.4-6.3 1.4-2.9 4.9-3.7 7.5-3.2 2.1.4 4 1.4 5.7 2.5.2-3.2.7-6.5 2.3-9.5 1.9-3.4 6-6.4 10.2-5.3 2.7.7 5.1 3 6.2 6 1 2.9.9 6 .7 8.4-1 9.8-5 19.3-11.4 26.8-.1.2-.3.4-.7.4.1 0 .1 0 0 0zM953.7 134c-1.7 0-3.6.7-4.4 2.3-.6 1.2-.5 2.9.3 4.5.8 1.5 2.1 2.8 3.4 4l14.8 14.3c5.7-7.1 9.4-15.9 10.3-25 .2-2.2.3-5-.6-7.5-.9-2.4-2.7-4.3-4.8-4.8-3.2-.8-6.5 1.7-8 4.4-1.7 3.1-2 7-2.2 10.4 0 .4-.2.7-.5.8-.3.2-.7.1-1-.1-1.9-1.3-4-2.7-6.3-3.1-.3-.2-.7-.2-1-.2zM673.5 412.2c-.4 0-.8-.3-.9-.7-.1-.2-1.3-4.3-2.6-11.6-.1-.5.3-1 .8-1.1.5-.1 1 .3 1.1.8 1.3 7.2 2.5 11.3 2.6 11.3.2.5-.1 1.1-.6 1.2-.2.1-.3.1-.4.1zm-5-32.2c-.5 0-.9-.4-1-.9-.2-3.7-.3-7.5-.3-11.2 0-3.2.1-6.5.2-9.8 0-.5.5-1 1-.9.5 0 1 .5.9 1-.2 3.2-.2 6.5-.2 9.7 0 3.7.1 7.5.3 11.1.1.5-.3 1-.9 1zm2.1-41.6h-.2c-.5-.1-.9-.6-.8-1.1 1.1-6.9 2.6-13.8 4.5-20.5.1-.5.7-.8 1.2-.7.5.1.8.7.7 1.2-1.8 6.6-3.3 13.5-4.5 20.3 0 .4-.5.8-.9.8zm11.2-40.2c-.1 0-.2 0-.4-.1-.5-.2-.7-.8-.5-1.3 2.6-6.4 5.6-12.8 9-19 .3-.5.9-.7 1.3-.4.5.3.7.9.4 1.3-3.3 6.1-6.3 12.4-8.9 18.8-.2.4-.5.7-.9.7zm19.9-36.7c-.2 0-.4-.1-.6-.2-.4-.3-.6-.9-.2-1.4 2.2-3.2 4.6-6.4 7-9.5.3-.4.9-.5 1.4-.2.4.3.5 1 .2 1.4-2.4 3.1-4.7 6.2-7 9.4-.2.3-.5.5-.8.5zm149.2 235.6c-.5 0-1-.4-1-1 0-.5.4-1 1-1 1.9 0 3.9-.1 5.8-.3.6 0 1 .4 1 .9s-.4 1-.9 1c-1.9.2-3.9.3-5.9.4.1 0 0 0 0 0zm-9.8-.2c-2-.1-4-.3-6-.5-.5-.1-.9-.5-.9-1.1.1-.5.5-.9 1.1-.9 1.9.2 3.9.4 5.8.5.5 0 1 .5.9 1 .1.6-.3 1-.9 1zm25.4-1.1c-.5 0-.9-.4-1-.8-.1-.5.3-1 .8-1.1 1.9-.3 3.8-.6 5.8-.9.5-.1 1 .3 1.1.8.1.5-.3 1-.8 1.1-1.9.4-3.9.7-5.8.9h-.1zm-40.9-.8h-.2c-1.9-.4-3.9-.8-5.8-1.2-.5-.1-.9-.7-.7-1.2.1-.5.7-.9 1.2-.7l5.7 1.2c.5.1.9.6.8 1.1-.1.5-.5.8-1 .8zm56.3-2.2c-.4 0-.8-.3-.9-.7-.1-.5.2-1.1.7-1.2 1.9-.5 3.8-1 5.6-1.5.5-.1 1.1.1 1.2.7.2.5-.1 1.1-.7 1.2-1.9.6-3.8 1.1-5.7 1.6 0-.2-.1-.1-.2-.1zm-71.5-1.7h-.3c-1.9-.6-3.8-1.3-5.6-2-.5-.2-.8-.8-.6-1.3.2-.5.8-.8 1.3-.6 1.8.7 3.6 1.3 5.5 1.9.5.2.8.7.6 1.2-.1.6-.5.8-.9.8zm86.5-2.9c-.4 0-.8-.2-.9-.6-.2-.5.1-1.1.6-1.3 1.8-.7 3.7-1.4 5.5-2.1.5-.2 1.1 0 1.3.5.2.5 0 1.1-.5 1.3-1.8.7-3.7 1.4-5.5 2.1-.3.1-.4.1-.5.1zm-101-2.9c-.1 0-.3 0-.4-.1-1.8-.9-3.5-1.8-5.3-2.7-.5-.3-.6-.9-.4-1.3.3-.5.9-.6 1.3-.4 1.7.9 3.4 1.8 5.2 2.7.5.2.7.8.5 1.3-.2.3-.5.5-.9.5zm115.5-3.1c-.4 0-.7-.2-.9-.6-.2-.5 0-1.1.5-1.3 1.8-.8 3.5-1.7 5.3-2.6.5-.2 1.1-.1 1.3.4.2.5.1 1.1-.4 1.3-1.8.9-3.5 1.8-5.3 2.6-.2.1-.4.2-.5.2zm-129-4.8c-.2 0-.4-.1-.6-.2-1.6-1.1-3.2-2.3-4.8-3.5-.4-.3-.5-.9-.2-1.4.3-.4.9-.5 1.4-.2 1.5 1.2 3.1 2.3 4.7 3.4.4.3.6.9.3 1.4-.2.4-.5.5-.8.5zm142.9-2.6c-.3 0-.7-.2-.8-.5-.3-.5-.1-1.1.4-1.3 1.7-1 3.4-2 5-3 .5-.3 1.1-.2 1.4.3s.2 1.1-.3 1.4c-1.7 1-3.3 2.1-5.1 3.1h-.6zm-155.2-7.1c-.2 0-.5-.1-.7-.3-1.4-1.3-2.9-2.7-4.3-4.1-.4-.4-.4-1 0-1.4.4-.4 1-.4 1.4 0 1.4 1.4 2.8 2.8 4.2 4.1.4.4.4 1 .1 1.4-.2.2-.4.3-.7.3zm168.3-1.4c-.3 0-.6-.1-.8-.4-.3-.4-.2-1.1.2-1.4 1.6-1.1 3.2-2.3 4.7-3.5.4-.3 1-.2 1.4.2.3.4.2 1-.2 1.4-1.6 1.2-3.1 2.4-4.8 3.5-.1.2-.3.2-.5.2zm12.4-9.7c-.3 0-.5-.1-.7-.3-.4-.4-.3-1 .1-1.4 1.5-1.3 2.9-2.6 4.4-3.9.4-.4 1-.3 1.4.1.4.4.3 1-.1 1.4-1.4 1.3-2.9 2.7-4.4 3.9-.3.2-.5.2-.7.2zm-191.5-.3c-.3 0-.6-.1-.8-.4-1.3-1.5-2.5-3.1-3.7-4.7-.3-.4-.2-1 .2-1.4.4-.3 1-.2 1.4.2 1.2 1.6 2.4 3.1 3.6 4.6.3.4.3 1-.1 1.4-.1.2-.3.3-.6.3zm202.8-10.5c-.2 0-.5-.1-.7-.3-.4-.4-.4-1 0-1.4 1.3-1.4 2.7-2.9 3.9-4.3.4-.4 1-.4 1.4-.1.4.4.5 1 .1 1.4-1.3 1.5-2.6 2.9-4 4.4-.2.2-.4.3-.7.3zm-212-2.2c-.3 0-.6-.2-.8-.5-1-1.7-2.1-3.4-3.1-5.1-.3-.5-.1-1.1.4-1.3.5-.3 1.1-.1 1.3.4 1 1.7 2 3.4 3 5 .3.5.2 1.1-.3 1.4-.1.1-.3.1-.5.1zm222.1-9.8c-.2 0-.4-.1-.6-.2-.4-.3-.5-.9-.2-1.4 1.2-1.6 2.3-3.2 3.4-4.8.3-.4.9-.6 1.4-.3.4.3.6.9.3 1.4-1.1 1.6-2.3 3.2-3.4 4.8-.3.4-.6.5-.9.5zm-229.6-3.9c-.4 0-.7-.2-.9-.6-.8-1.8-1.7-3.6-2.4-5.4-.2-.5 0-1.1.5-1.3.5-.2 1.1 0 1.3.5.8 1.8 1.6 3.6 2.4 5.3.2.5 0 1.1-.5 1.3-.1.1-.3.2-.4.2zm238.2-9.2c-.2 0-.3 0-.5-.1-.5-.3-.6-.9-.4-1.3 1-1.7 1.8-3.5 2.7-5.2.2-.5.8-.7 1.3-.5.5.2.7.8.5 1.3-.8 1.7-1.7 3.5-2.7 5.3-.2.3-.6.5-.9.5zm-244.1-5.4c-.4 0-.8-.3-.9-.7-1.2-3.6-1.6-5.7-1.7-5.8-.1-.5.2-1.1.7-1.2.5-.1 1.1.2 1.2.7 0 0 .5 2.1 1.6 5.6.2.5-.1 1.1-.6 1.2-.1.2-.2.2-.3.2zm250.5-8.9c-.1 0-.2 0-.3-.1-.5-.2-.8-.7-.6-1.2.6-1.9 1.2-3.7 1.7-5.6.1-.5.7-.8 1.2-.7.5.1.8.7.7 1.2-.5 1.9-1.1 3.8-1.7 5.7-.2.5-.6.7-1 .7zm3.4-15.2h-.1c-.5-.1-.9-.5-.9-1.1.2-1.9.3-3.9.3-5.8 0-.5.4-1 1-1 .5 0 1 .4 1 1 0 2-.1 4-.3 6-.1.5-.5.9-1 .9z"/><path d="M1360.5 607c-8.6-17.8-26.5-34.4-45.9-30.3 10.6-13.6 8.8-34.8-2.6-47.7-11.4-12.9-30.7-17.6-47.4-13.2-16.7 4.4-30.7 16.8-38.9 32s-11.1 32.9-10.4 50.2c-4.6-1.6-10.2.1-13.1 4-2.9 3.9-3 9.7-.2 13.7-14.3-14.7-35.1-22-55.6-21.2-183.6-115-400.8-98.8-558.5 33.3-14.2-14.2-35.9-20.5-55.5-16-20.2 4.6-37.4 20.6-43.5 40.4-10.8-9-29.6-5.3-36.2 7.1-4.6-14-12.9-27-25-35.4-12.1-8.4-28.2-11.5-42-6.2-13.7 5.3-23.9 19.8-22.5 34.4 1.8 17.9 18.5 30 33.7 39.7-15.2 6.3-26.3 21.6-27.6 38-1.3 16.4 7.4 33.2 21.5 41.8-10 6.6-16.3 18.7-15.8 30.7.4 12 7.4 23.6 17.9 29.6 3.1 21.6 18.3 41 38.5 49.2 20.2 8.2 44.7 4.7 61.8-8.7 17.8 14 43 18 64.3 10.3 21.3-7.7 38.1-26.8 43-48.9.6.6 1.2 1.2 1.9 1.7l-1.8 3.3c-7.9 15.2-13.1 34.1-4.5 48.8 5.2 9 14.6 14.6 23.6 19.8 18.6 10.8 37.4 21.7 57.7 28.9 49.9 17.8 107.9 11.2 152.6-17.1 26.8 23.8 53.9 33.9 85.7 50.3 31.9 16.4 69.5 23.6 103.9 13.7 34.5-9.9 64-25.7 65.2-61.5 25.2 7.9 54.6 2.9 74.1-14.9 19.5-17.8 26.8-48.6 15-72.2-1.6-3.2-3.5-6.1-5.7-8.9 6.3-2.2 12-5.9 16.4-10.8 7.6 11.6 22.7 17.7 36.2 14.6 13.5-3 24.6-15 26.5-28.7 17.8 14.5 46.2 13.8 63.2-1.6s20.6-43.5 8-62.7c22-11.9 39.2-32.6 47-56.4 7.7-23.7 5.9-50.5-5-73.1zm-298 94c-5.5 6-6.8 15.5-3 22.7-12.2-4.4-26.4-.7-36.6 7.4-16.1 12.8-22.2 35.8-16.8 55.6-12.1-7.8-29.2-6.8-40.2 2.6-13.5-33.4-48.4-56.9-84.4-56.8-36 .1-70.8 23.7-84.2 57.1-11.6-9.8-32.6-3.9-37.3 10.6-18.6-22.7-50.6-31.6-79.6-26.1-1.8-6.4-5.2-12.5-9.6-17.6-6.7-7.7-15.2-13.3-24.2-18.1 121.6-107.3 290.6-125.5 436.2-42.7-7-2.2-15.3-.1-20.3 5.3z"/><path d="M988.2 991.4c-23.9 0-49.4-5.6-74.3-18.4-31.6-16.3-58.5-25.9-84.4-49-45.2 27.5-103.7 33.7-153.5 16-20.7-7.4-39.8-18.5-58.4-29.2-8.5-5-19.1-11.1-25-21.2-4.2-7.2-5.4-15.1-4.9-22.9-7.9 8.8-17.8 15.8-28.9 19.8-21.6 7.8-47 4.1-65.6-9.1-18.1 12.8-42.7 15.8-63.3 7.4-21-8.5-36.8-28.1-40.6-50.4-10.7-6.8-17.8-19.1-18.3-31.8-.4-11.5 4.7-23 13.2-30.7-12.6-9.9-20-26.2-18.8-42.3 1.2-15.5 10.4-30.1 23.7-38.2-14.3-9.7-28-21.6-29.8-38.9-1.6-15.8 9.1-32.3 24.9-38.4 14.3-5.5 31.7-3 45.6 6.6 10.1 7 18.4 17.7 24 30.6 3.8-3.7 8.9-6.3 14.6-7.5 6.6-1.3 13-.4 18.5 2.3 7.7-18.9 24.7-33.6 44.6-38.2 19.6-4.5 41.4 1.2 56.5 14.6 78-64.4 171-101.7 269.1-108 100-6.4 200.3 19.9 290.3 76 17.8-.4 35.3 5 48.8 15 .5-2.1 1.3-4.2 2.7-5.9 2.9-3.8 7.5-6 12.2-6.2 0-17.8 3.7-34.1 11-47.5 9.3-17.1 24.4-29.5 41.4-34 18.8-4.9 39.4.9 51.4 14.4 11.2 12.6 13.7 31.4 7 45.8 18.3.7 34.2 16.7 42.1 33.1 11.3 23.5 13.2 51.3 5.1 76.1-7.6 23.5-24 44-45.3 56.6 11 20.5 6.6 48.5-10.8 64.2-16.9 15.3-44.1 17.2-63.4 5.3-4.1 12.7-15 23-28.1 26-13.7 3.1-28.4-2-37.5-12.5-2.9 2.6-6.3 4.8-9.9 6.6 1.2 1.8 2.2 3.6 3.1 5.4 12.2 24.4 5.4 57.4-15.8 76.8-18.7 17.1-46.9 23.6-73.2 17-3.5 33.6-31.3 49.8-67.7 60.2-10.2 3.1-21.1 4.5-32.3 4.5zm-158.3-76.2c.9 0 1.9.3 2.6 1 26.2 23.3 53.3 33.5 84.9 49.8 34.9 18 70.8 22.1 101 13.4 35.1-10 61.3-25.7 62.4-57.9 0-1.2.7-2.4 1.6-3.1 1-.7 2.3-.9 3.4-.5 24.9 7.8 52.5 2.3 70.3-14 18.7-17.1 24.8-46.2 14.1-67.5-1.4-2.8-3.2-5.6-5.3-8.1-.8-1-1.1-2.3-.7-3.5.3-1.2 1.3-2.2 2.5-2.6 5.8-2 10.9-5.4 14.8-9.7.8-.9 2-1.4 3.2-1.3 1.2.1 2.3.7 3 1.8 6.7 10.2 20.2 15.6 32.1 13 11.9-2.7 21.8-13.4 23.5-25.4.2-1.4 1.1-2.6 2.5-3.1 1.3-.5 2.8-.3 3.9.6 16.4 13.3 42.5 12.7 58.1-1.5 15.7-14.2 19-40 7.4-57.7-.6-.9-.8-2-.5-3.1.3-1.1 1-2 1.9-2.5 21.2-11.5 37.7-31.2 45.1-54.2 7.4-22.9 5.7-48.6-4.7-70.3-7.7-16.1-24.1-31.8-41.5-28.1-1.6.3-3.3-.4-4.1-1.8-.9-1.4-.8-3.2.2-4.5 9.1-11.7 8-30.8-2.5-42.7-10-11.4-27.5-16.2-43.5-12-14.9 3.9-28.2 14.9-36.5 30.1-7.2 13.3-10.7 30-10 48.1.1 1.3-.5 2.5-1.6 3.3-1 .8-2.4 1-3.6.5-3-1-6.8.1-8.7 2.6-1.9 2.5-1.9 6.5-.1 9.1 1.2 1.7.9 4-.7 5.3-1.6 1.3-3.9 1.2-5.3-.3-12.9-13.3-32.6-20.8-52.6-20-.8 0-1.6-.2-2.2-.6-178.8-112-396.3-99-553.9 33-1.6 1.3-3.9 1.2-5.3-.2-13.3-13.3-33.6-19.2-51.8-15-18.9 4.4-34.9 19.2-40.6 37.7-.4 1.3-1.4 2.2-2.6 2.6-1.3.4-2.6.1-3.6-.7-4.2-3.5-10.3-4.9-16.4-3.7-6.1 1.2-11.3 4.8-13.8 9.6-.7 1.4-2.2 2.2-3.8 2.1-1.6-.1-2.9-1.2-3.4-2.7-4.8-14.3-13.1-26.2-23.5-33.4-11.8-8.1-26.4-10.3-38.3-5.8-12.7 4.9-21.2 17.9-20 30.3 1.7 16.2 17.3 27.5 31.9 36.8 1.2.8 1.9 2.2 1.8 3.6-.1 1.5-1.1 2.7-2.4 3.3-13.9 5.7-24 19.7-25.2 34.7-1.2 15 6.7 30.3 19.6 38.1 1.1.7 1.9 1.9 1.9 3.3 0 1.3-.6 2.6-1.8 3.3-8.9 5.9-14.5 16.6-14.1 27.3.4 10.7 6.6 21 15.9 26.3 1.1.6 1.8 1.7 1.9 2.9 2.9 20.3 17.1 38.4 36.1 46.1 19 7.7 41.8 4.5 58-8.2 1.4-1.1 3.4-1.1 4.8 0 16.8 13.1 40.5 16.9 60.5 9.7 20-7.2 35.9-25.3 40.5-46.1.3-1.4 1.4-2.5 2.8-2.9 1.4-.4 2.9 0 3.9 1 .5.5 1 1 1.6 1.5 1.4 1.2 1.8 3.2.9 4.9l-.4.8c-.4.8-.9 1.6-1.3 2.4-5.4 10.5-13.3 30.2-4.6 45.1 4.9 8.3 14.1 13.7 22.2 18.4 18.2 10.6 37 21.5 57 28.6 48.5 17.3 105.7 10.8 149.2-16.8.4-.3 1.2-.5 1.9-.5zM760 804c-1.2 0-2.3-.5-3-1.4-16.8-20.5-46.5-30.2-75.8-24.7-2 .4-4-.8-4.5-2.8-1.6-5.7-4.6-11.3-8.8-16-5.4-6.2-12.5-11.5-23.1-17.2-1.1-.6-1.9-1.7-2-3-.1-1.3.3-2.5 1.3-3.4 60.5-53.4 133.6-85.8 211.3-93.6 78.2-7.9 157.6 9.6 229.5 50.4 1.7 1 2.5 3.1 1.7 5-.8 1.8-2.8 2.8-4.7 2.2-5.7-1.7-12.4.1-16.3 4.3-4.4 4.8-5.4 12.4-2.4 18.2.8 1.4.6 3.2-.5 4.4-1.1 1.2-2.8 1.7-4.3 1.1-10.2-3.7-23.1-1-32.8 6.8-14.3 11.4-20.6 32.6-15.4 51.5.4 1.6-.2 3.2-1.5 4.2s-3.1 1-4.4.1c-10.7-6.9-26-5.9-35.5 2.2-1 .8-2.2 1.1-3.5.8-1.2-.3-2.2-1.2-2.7-2.3-13-32-46.1-54.3-80.7-54.3h-.1c-34.6.1-67.7 22.5-80.6 54.6-.5 1.2-1.5 2-2.7 2.3-1.2.3-2.5 0-3.5-.8-4.5-3.8-11.1-4.9-17.6-3-6.6 1.9-11.6 6.3-13.4 11.9-.4 1.4-1.6 2.4-3 2.6-.6-.1-.8-.1-1-.1zm-62.6-35.5c23.8 0 46.4 8.9 61.6 24.7 3.5-5.3 9.1-9.3 15.9-11.2 7.2-2.1 14.6-1.4 20.6 1.7 15.2-32.6 49.9-55.1 86-55.1h.1c36 0 70.6 22.2 85.9 54.7 9.8-6.1 22.3-7.4 33.2-3.5-2.5-19.7 5.1-40.1 19.7-51.7 9.9-7.9 22.1-11.3 33.2-9.8-1-7.1 1.1-14.6 5.9-19.9 2.5-2.7 5.6-4.7 9.1-6-139.5-73.3-297-56.4-415.4 45.3 8.8 5.2 15.2 10.3 20.4 16.2 4.1 4.7 7.3 10.1 9.3 15.7 5-.8 9.8-1.1 14.5-1.1z"/><path fill="#FFF" d="M760 800.1c4.7-14.5 25.7-20.4 37.3-10.6 13.4-33.4 48.2-57 84.2-57.1 36-.1 70.9 23.4 84.4 56.8 11.5-9.9 29.9-10.4 42-1.3 12-18.2 35.7-27.8 56.9-23.1s38.7 23.4 41.9 45c23.9-11.2 55.2 1.4 67 25 11.8 23.6 4.5 54.4-15 72.2s-48.9 22.7-74.1 14.9c-1.2 35.8-30.8 51.6-65.2 61.5-34.5 9.9-72.1 2.7-103.9-13.7s-59-26.5-85.7-50.3c-44.7 28.4-102.7 34.9-152.6 17.1-20.3-7.2-39.1-18.1-57.7-28.9-9-5.2-18.4-10.8-23.6-19.8-8.6-14.8-3.4-33.7 4.5-48.8 15-28.7 39.9-53.3 71-62.6s68.1-1.4 88.6 23.7z"/><path d="M988.2 988.5c-23.4 0-48.5-5.5-73-18.1-31.9-16.5-59.1-26.6-85.4-50-44.7 28-103.1 34.5-152.8 16.8-20.5-7.3-39.5-18.3-57.9-29-8.2-4.8-18.5-10.7-24-20.2-9.4-16-2.7-35.9 4.5-49.8 16.3-31.4 42.4-54.4 71.5-63.1 32.4-9.7 68.4-.3 88.5 23 2.7-6.3 8.6-11.3 16.1-13.4 7.7-2.2 15.4-1 21.1 3.2 13.9-33.3 48.6-56.4 84.7-56.5h.1c36 0 70.6 23 84.7 56.2 11.6-9.1 29.3-9.6 41.4-1.1 12.3-17.8 36.2-27.4 57.4-22.7 21.4 4.7 38.7 22.9 42.5 44.5 23.8-10.3 54.9 1.6 67.1 25.9 11.6 23.2 5.1 54.8-15.2 73.3-18.8 17.2-47.6 23.2-73.8 15.4-1.8 33.8-29.3 50.7-65.9 61.2-10 3-20.6 4.4-31.6 4.4zm-158.3-70.3c.2 0 .5.1.7.2 26.4 23.5 53.6 33.7 85.5 50.2 35.6 18.3 72.2 22.5 103.2 13.7 36.3-10.4 63.4-27.2 64.5-60.6 0-.3.2-.6.4-.8.3-.2.6-.2.9-.1 25.9 8.1 54.6 2.3 73.1-14.7 19.7-18 26-48.5 14.7-71-11.9-23.8-42.6-35.3-65.7-24.5-.3.1-.6.1-.9 0-.3-.1-.5-.4-.5-.7-3.1-21-20.4-39.6-41.2-44.1-20.7-4.6-44.2 5-55.9 22.7-.1.2-.4.4-.7.4-.3 0-.5 0-.8-.2-11.7-8.9-29.7-8.3-40.8 1.3-.2.2-.6.3-.9.2-.3-.1-.6-.3-.7-.6-13.4-33.1-47.7-56.2-83.4-56.2h-.1c-35.8.1-70 23.3-83.3 56.5-.1.3-.4.5-.7.6-.3.1-.6 0-.9-.2-5.2-4.4-12.8-5.8-20.3-3.6-7.5 2.1-13.3 7.3-15.4 13.8-.1.3-.4.6-.8.7-.4.1-.7-.1-.9-.3-19.3-23.6-55.3-33.3-87.5-23.7-28.6 8.6-54.3 31.3-70.4 62.2-7 13.4-13.5 32.6-4.5 47.9 5.2 9 14.8 14.5 23.3 19.4 18.3 10.6 37.2 21.6 57.5 28.8 49.4 17.6 107.5 11 151.7-17 .4-.3.6-.3.8-.3z"/><path fill="#FFF" d="M1197 661.7C964.5 466.9 649.4 519.1 492.1 778.4c-6.3-5.3-12.6-10.6-18.8-15.9 164.3-270.9 493.6-325.4 736.5-122-4.3 7.1-8.6 14.1-12.8 21.2z"/><path d="M492.1 779.4c-.2 0-.5-.1-.6-.2l-18.8-15.9c-.4-.3-.5-.8-.2-1.3C552 630.7 672.6 545.7 811.8 522.7c139.3-23.1 280.8 18.5 398.5 117.1.4.3.5.8.2 1.3l-12.7 21.1c-.1.2-.4.4-.7.5-.3 0-.6 0-.8-.2-112.2-94-247.1-133.6-379.9-111.7-132.7 22-247.7 103-323.6 228.2-.1.2-.4.4-.7.5.1-.1 0-.1 0-.1zm-17.6-17.1l17.3 14.6C568 651.8 683.2 570.8 816.1 548.8c133-22 268.1 17.5 380.6 111.3l11.7-19.4c-117.1-97.8-257.8-139-396.3-116.1C673.7 547.5 553.8 632 474.5 762.3z"/><path fill="#FFF" d="M1185 681.7C962.3 495.2 660.5 545.2 509.9 793.5c-6.3-5.3-12.6-10.6-18.8-15.9 157.7-259.9 473.6-312.3 706.7-117.1-4.3 7.1-8.6 14.1-12.8 21.2z"/><path d="M509.9 794.5c-.2 0-.5-.1-.6-.2l-18.8-15.9c-.4-.3-.5-.8-.2-1.3 76.4-126 192.1-207.5 325.7-229.7 133.6-22.1 269.4 17.8 382.4 112.4.4.3.5.8.2 1.3l-12.7 21.1c-.1.2-.4.4-.7.5-.3 0-.6 0-.8-.2-107.5-90-236.7-128-363.8-106.9-127.1 21-237.2 98.6-309.9 218.4-.1.2-.4.4-.7.5h-.1zm-17.6-17.1l17.3 14.6c73-119.8 183.3-197.4 310.6-218.5 127.3-21.1 256.7 16.8 364.5 106.6l11.7-19.4C1084 566.9 949.1 527.3 816.3 549.3c-132.9 22-247.9 103-324 228.1z"/><path fill="#FFF" d="M1173 701.7C960.1 523.4 671.7 571.2 527.7 808.6c-6.3-5.3-12.6-10.6-18.8-15.9 151-249 453.6-299.1 676.8-112.1-4.2 7-8.5 14-12.7 21.1z"/><path d="M527.7 809.5c-.2 0-.5-.1-.6-.2l-18.8-15.9c-.4-.3-.5-.8-.2-1.3 73.2-120.7 184-198.8 312-220 128-21.2 258.1 17 366.3 107.6.4.3.5.8.2 1.3l-12.7 21.1c-.1.2-.4.4-.7.5-.3 0-.6 0-.8-.2-102.7-86-226.2-122.3-347.7-102.2-121.5 20.2-226.7 94.3-296.2 208.9-.1.2-.4.4-.7.5 0-.1-.1-.1-.1-.1zm-17.6-17.1l17.3 14.6c69.8-114.5 175.2-188.6 296.9-208.8 121.7-20.2 245.4 16 348.4 101.9l11.7-19.4C1076.8 590.9 947.5 553 820.3 574.1c-127.1 21-237.3 98.6-310.2 218.3z"/><path fill="#FFF" d="M1161 721.7c-203-170-478.1-124.4-615.5 102-6.3-5.3-12.6-10.6-18.8-15.9 144.4-238 433.6-285.9 647-107.2-4.3 7-8.5 14-12.7 21.1z"/><path d="M545.5 824.6c-.2 0-.5-.1-.6-.2l-18.9-16c-.4-.3-.5-.8-.2-1.3 70-115.4 175.9-190 298.3-210.3 122.4-20.3 246.7 16.3 350.2 102.9.4.3.5.8.2 1.3l-12.7 21.1c-.1.2-.4.4-.7.5-.3 0-.6 0-.8-.2-98-82-215.7-116.6-331.6-97.5-115.9 19.2-216.2 89.9-282.4 199.2-.1.2-.4.4-.7.5h-.1zm-17.6-17.1l17.3 14.6C611.8 712.9 712.4 642.3 828.5 623c116.1-19.2 234 15.3 332.3 97.1l11.7-19.4c-102.9-85.9-226.4-122.1-348-101.9-121.6 20.1-226.9 94.2-296.6 208.7z"/><path fill="#FFF" d="M1149 741.7c-193.2-161.8-455-118.4-585.7 97-6.3-5.3-12.6-10.6-18.8-15.9 137.7-227 413.6-272.7 617.2-102.2-4.3 7-8.5 14-12.7 21.1z"/><path d="M563.3 839.7c-.2 0-.5-.1-.6-.2l-18.8-15.9c-.4-.3-.5-.8-.2-1.3 66.8-110 167.8-181.3 284.6-200.6 116.8-19.3 235.4 15.5 334.1 98.2.4.3.5.8.2 1.3l-12.7 21.1c-.1.2-.4.4-.7.5-.3 0-.6 0-.8-.2-93.2-78.1-205.2-111-315.5-92.7-110.2 18.3-205.7 85.6-268.7 189.5-.1.2-.4.4-.7.5-.1-.2-.1-.2-.2-.2zm-17.5-17.2l17.3 14.6c63.4-103.9 159-171.1 269.5-189.4 110.5-18.3 222.7 14.5 316.2 92.4l11.7-19.4c-98.1-81.9-215.9-116.4-331.9-97.2-116 19.2-216.4 89.9-282.8 199z"/><path fill="#FFF" d="M1360.5 607c-8.6-17.8-26.5-34.4-45.9-30.3 10.6-13.6 8.8-34.8-2.6-47.7s-30.7-17.6-47.4-13.2-30.7 16.8-38.9 32-11.1 32.9-10.4 50.2c-4.6-1.6-10.2.1-13.1 4-2.9 3.9-3 9.7-.2 13.7-23.5-24.3-64.9-28.4-92.7-9.2s-38.7 59.3-24.4 89.9c-7.4-3.3-16.8-1.3-22.4 4.7-5.5 6-6.8 15.5-3 22.7-12.2-4.4-26.4-.7-36.6 7.4-17.8 14.1-23.4 40.7-14.8 61.7 8.6 21 30 35.6 52.5 38.2 22.2 2.6 45.4-6 60.6-22.4 6.2 10.7 17.7 18.1 30 19.4 12.3 1.3 25.1-3.7 33.3-12.9 7.6 11.6 22.7 17.7 36.2 14.6 13.5-3 24.6-15 26.5-28.7 17.8 14.5 46.2 13.8 63.2-1.6s20.6-43.5 8-62.7c22-11.9 39.2-32.6 47-56.4s6-50.8-4.9-73.4z"/><path d="M1068.5 832.3c-2.6 0-5.3-.1-7.9-.5-23.8-2.8-44.7-18-53.3-38.8-9-21.9-2.5-48.9 15.1-62.9 10.4-8.3 24.1-11.4 35.4-8.2-2.8-7.2-1.2-16 4.1-21.7 5.3-5.7 13.9-7.9 21.3-5.7-13-30.6-1.8-70.1 25.7-89 26.7-18.4 66.2-15.5 90.4 6-.7-3.5 0-7.3 2.2-10.3 2.9-3.9 8.1-5.8 12.9-4.7-.5-18.5 3.1-35.5 10.6-49.3 8.9-16.4 23.3-28.3 39.5-32.5 17.7-4.6 37.2.8 48.4 13.5 11.6 13.1 13.2 33.3 4.1 47 19.1-2.5 36.4 14.1 44.6 31.2 11 22.9 12.8 49.8 4.9 74-7.7 23.8-24.6 44.3-46.5 56.4 12.2 19.5 8.4 47.6-8.8 63.1-17 15.3-45 16.4-63.2 2.7-2.6 13.3-13.7 24.9-27 27.9-13.4 3-28.6-2.9-36.5-14-8.5 8.8-21.1 13.5-33.3 12.3-12.2-1.2-23.6-8.4-30.1-18.7-13.6 14.1-33.1 22.2-52.6 22.2zm-20-109.6c-8.6 0-17.6 3.2-25 9-16.9 13.5-23.1 39.5-14.5 60.6 8.3 20.1 28.6 34.9 51.7 37.6 21.9 2.5 44.8-5.9 59.7-22.1.2-.2.5-.3.8-.3.3 0 .6.2.7.5 6 10.4 17.3 17.7 29.2 18.9 12 1.2 24.4-3.6 32.5-12.5.2-.2.5-.4.8-.3.3 0 .6.2.7.4 7.3 11.2 22.1 17.2 35.2 14.2 13-2.9 23.9-14.7 25.7-27.9 0-.3.3-.6.6-.8.3-.1.7-.1 1 .2 17.5 14.2 45.2 13.5 61.9-1.6 16.7-15.1 20.2-42.7 7.9-61.5-.2-.2-.2-.5-.1-.8.1-.3.2-.5.5-.6 21.9-11.8 38.8-32.2 46.5-55.8 7.7-23.7 5.9-50.1-4.9-72.5-8.2-17.1-25.8-33.8-44.8-29.7-.4.1-.8-.1-1-.4-.2-.3-.2-.8.1-1.1 10.1-13 9-33.4-2.6-46.5-10.8-12.2-29.4-17.4-46.5-12.9-15.7 4.1-29.7 15.6-38.3 31.6-7.5 13.8-11 31-10.3 49.6 0 .3-.1.6-.4.8-.3.2-.6.2-.9.1-4.2-1.5-9.3.1-12 3.7-2.7 3.5-2.7 8.9-.1 12.5.3.4.2 1-.2 1.3-.4.3-1 .3-1.3-.1-23.1-23.9-64.1-27.9-91.4-9.1-27.3 18.8-38.1 58.6-24.1 88.7.2.4.1.8-.2 1.1-.3.3-.7.4-1.1.2-7.1-3.1-16-1.2-21.3 4.4-5.2 5.7-6.4 14.7-2.8 21.5.2.4.1.8-.1 1.1-.3.3-.7.4-1.1.3-3.2-1.2-6.8-1.8-10.5-1.8z"/><path fill="#FFF" d="M390.8 771.6c-14.1-8.5-22.7-25.4-21.5-41.8s12.4-31.7 27.6-38c-15.2-9.7-31.9-21.8-33.7-39.7-1.5-14.6 8.7-29.1 22.5-34.4s29.9-2.2 42 6.2c12.1 8.4 20.4 21.5 25 35.4 6.6-12.5 25.4-16.2 36.2-7.1 6.1-19.8 23.3-35.7 43.5-40.4 20.2-4.6 42.6 2.2 56.8 17.3 14.2 15.1 19.5 37.9 13.6 57.8 12.4-3.5 26.8 1.2 34.7 11.4s8.8 25.3 2.2 36.5c11.4 5.7 22.8 12.1 31.2 21.7 8.4 9.6 13.3 23 9.9 35.3s-16.7 21.9-29 18.6c1.1 12.2-6.2 24.7-17.4 29.8-11.2 5.1-25.4 2.4-33.9-6.4-4.8 22.1-21.6 41.3-43 48.9-21.3 7.7-46.5 3.6-64.3-10.3-17.2 13.4-41.6 16.8-61.8 8.7s-35.4-27.6-38.5-49.2c-10.5-5.9-17.5-17.5-17.9-29.6-.5-12 5.7-24 15.8-30.7z"/><path d="M535.2 887.5c-15 0-30.1-4.8-42-13.9-17.5 13.3-41.8 16.6-62.2 8.4-20.5-8.3-35.8-27.6-39-49.5-10.5-6.2-17.6-17.9-18-30.1-.4-11.9 5.5-23.7 15-30.7-13.7-9-21.9-25.6-20.7-41.9 1.2-16.2 11.8-31.3 26.5-38.1-15.1-9.8-30.8-21.7-32.6-39.5-1.5-14.5 8.4-29.7 23.1-35.4 13.4-5.2 29.8-2.8 42.9 6.3 10.8 7.5 19.5 19.5 24.7 33.9 3.5-5.2 9.2-8.9 16.1-10.3 7.1-1.4 14.1 0 19.4 3.8 6.6-19.6 23.6-35 43.8-39.7 20.6-4.7 43.2 2.2 57.7 17.6 14.1 15 19.6 37.2 14.3 57.1 12.5-2.8 26.2 2.1 34.1 12.2 8 10.3 9 25.2 2.8 36.6 11 5.5 22.2 12 30.5 21.5 9.4 10.8 13.3 24.7 10.2 36.2-3.2 11.7-16 22.2-28.9 19.6.5 12.2-7 24.4-18 29.4s-24.9 2.7-33.8-5.4c-5.4 21.7-22.2 40.4-43.2 48-7.3 2.6-15 3.9-22.7 3.9zm-42-16.1c.2 0 .4.1.6.2 17.5 13.7 42.4 17.7 63.4 10.2s37.6-26.5 42.3-48.2c.1-.4.3-.6.7-.7.3-.1.7 0 1 .3 8.2 8.5 22 11.1 32.8 6.2 10.8-4.9 17.8-17 16.8-28.8 0-.3.1-.6.3-.8.2-.2.6-.3.9-.2 12.2 3.3 24.7-6.7 27.8-17.9 3-10.9-.8-24.1-9.7-34.4-8.3-9.5-19.7-16-30.9-21.5-.2-.1-.4-.3-.5-.6-.1-.3 0-.5.1-.8 6.4-10.8 5.6-25.4-2.1-35.4-7.7-10-21.5-14.5-33.6-11.1-.3.1-.7 0-1-.3-.3-.3-.3-.6-.2-1 5.9-19.6.6-41.9-13.4-56.8-14-14.9-35.9-21.6-55.8-17-19.9 4.6-36.7 20.2-42.8 39.7-.1.3-.3.6-.7.6-.3.1-.7 0-.9-.2-4.9-4.1-11.9-5.7-18.9-4.3-7 1.4-12.9 5.5-15.9 11.1-.2.3-.5.6-.9.5-.4 0-.7-.3-.8-.7-5-14.9-13.7-27.3-24.7-34.9-12.5-8.7-28.3-11-41-6.1-13.8 5.3-23.2 19.7-21.8 33.4 1.8 17.5 18.1 29.3 33.3 39 .3.2.5.5.4.9s-.3.7-.6.8c-14.9 6.2-25.8 21.1-27 37.2-1.2 16.1 7.2 32.5 21 40.9.3.2.5.5.5.8 0 .3-.2.7-.4.8-9.8 6.5-15.8 18.2-15.4 29.9.4 11.7 7.2 23 17.4 28.7.3.2.4.4.5.7 3 21.3 17.9 40.3 37.9 48.4 20 8.1 43.9 4.7 60.9-8.6 0 .1.2 0 .4 0z"/><path fill="#FFF" d="M854.6 670.6l8.6 7.2c.4.3 1 .5 1.5.3l10.8-3c1.3-.4 2.5.9 2 2.2l-4.2 10.4c-.2.5-.1 1.1.1 1.5l6.2 9.4c.7 1.1-.1 2.6-1.5 2.5l-11.2-.8c-.5 0-1.1.2-1.4.6l-7 8.8c-.9 1.1-2.6.7-2.9-.6l-2.7-10.9c-.1-.5-.5-1-1-1.1l-10.5-4c-1.3-.5-1.4-2.2-.3-2.9l9.5-5.9c.5-.3.8-.8.8-1.3l.5-11.2c.1-1.4 1.7-2.1 2.7-1.2z"/><path d="M857.2 711.4c-.2 0-.4 0-.6-.1-1-.2-1.7-1-2-1.9l-2.7-10.9c-.1-.2-.2-.4-.4-.5l-10.5-4c-.9-.4-1.6-1.2-1.7-2.2-.1-1 .4-2 1.2-2.5l9.5-5.9c.2-.1.3-.3.3-.5l.5-11.2c0-1 .6-1.9 1.6-2.3.9-.4 2-.2 2.7.4l8.6 7.2c.2.1.4.2.6.1l10.8-3c1-.3 2 0 2.7.8.7.8.8 1.8.5 2.7l-4.2 10.4c-.1.2-.1.4.1.6l6.2 9.4c.6.8.6 1.9.1 2.8-.5.9-1.4 1.4-2.5 1.3l-11.2-.8c-.2 0-.4.1-.6.2l-7 8.8c-.5.8-1.2 1.1-2 1.1zm-3.6-40.2c-.1 0-.2 0-.3.1-.1 0-.4.2-.4.6l-.5 11.2c0 .9-.5 1.6-1.2 2.1l-9.5 5.9c-.3.2-.3.5-.3.6 0 .1.1.4.4.6l10.5 4c.8.3 1.4 1 1.6 1.8l2.7 10.9c.1.4.4.5.5.5.1 0 .4.1.7-.2l7-8.8c.5-.7 1.4-1 2.2-1l11.2.8c.4 0 .6-.2.6-.3.1-.1.2-.4 0-.7l-6.2-9.4c-.5-.7-.6-1.6-.2-2.4l4.2-10.4c.1-.3 0-.6-.1-.7-.1-.1-.3-.3-.7-.2l-10.8 3c-.8.2-1.7 0-2.4-.5l-8.6-7.2c-.1-.3-.3-.3-.4-.3z"/><circle fill="#FFF" cx="772.1" cy="686" r="3.5"/><path d="M772.1 690.5c-2.5 0-4.5-2-4.5-4.5s2-4.5 4.5-4.5 4.5 2 4.5 4.5c0 2.4-2.1 4.5-4.5 4.5zm0-7.1c-1.4 0-2.5 1.1-2.5 2.5s1.1 2.5 2.5 2.5 2.5-1.1 2.5-2.5-1.1-2.5-2.5-2.5z"/><circle fill="#FFF" cx="987.3" cy="732.2" r="4"/><path d="M987.3 737.1c-2.7 0-4.9-2.2-4.9-4.9s2.2-4.9 4.9-4.9 4.9 2.2 4.9 4.9-2.2 4.9-4.9 4.9zm0-7.9c-1.6 0-3 1.3-3 3s1.3 3 3 3 3-1.3 3-3-1.3-3-3-3z"/><circle fill="#FFF" cx="1207.4" cy="357.1" r="5.7"/><path d="M1207.4 363.8a6.7 6.7 0 1 1 0-13.4 6.7 6.7 0 0 1 0 13.4zm0-11.4c-2.6 0-4.7 2.1-4.7 4.7s2.1 4.7 4.7 4.7 4.7-2.1 4.7-4.7c.1-2.6-2.1-4.7-4.7-4.7z"/><circle fill="#FFF" cx="1209.2" cy="211" r="2.2"/><path d="M1209.2 214.2c-1.8 0-3.2-1.4-3.2-3.2s1.4-3.2 3.2-3.2c1.8 0 3.2 1.4 3.2 3.2s-1.5 3.2-3.2 3.2zm0-4.4c-.7 0-1.2.5-1.2 1.2s.5 1.2 1.2 1.2 1.2-.5 1.2-1.2-.5-1.2-1.2-1.2z"/><path fill="#FFF" d="M944.8 682.4c1.5-3 2.4-6.5 1.4-9.7-1-3.2-4.3-5.8-7.6-5.1-2.1.5-3.7 2.1-4.6 4-1 1.9-1.3 4-1.7 6.1-1.8-2-3.8-4.1-6.4-4.8-2.6-.7-6 .8-6.2 3.5-.2 1.6.7 3 1.6 4.3 3.1 4.8 6.2 9.7 9.3 14.5 6-2.2 11.3-6.9 14.2-12.8z"/><path d="M930.5 696.2c-.3 0-.6-.2-.8-.5l-9.3-14.5c-.8-1.3-1.9-3-1.7-5 .1-1.3.9-2.5 2.1-3.4 1.5-1.1 3.6-1.4 5.4-1 2.3.6 4.1 2.1 5.6 3.6.3-1.5.7-3 1.4-4.4 1.2-2.4 3.1-4 5.3-4.5 3.9-.9 7.7 2.3 8.7 5.7 1.2 3.8-.1 7.8-1.4 10.4-3 6.1-8.4 11-14.9 13.3-.2.3-.3.3-.4.3zm-6-22.4c-1 0-1.9.3-2.7.8-.5.4-1.1 1-1.2 1.9-.1 1.2.6 2.4 1.4 3.7l8.9 13.8c5.6-2.3 10.4-6.6 13-12.1 1.1-2.3 2.3-5.8 1.3-9-.8-2.6-3.6-5-6.4-4.4-1.6.4-3 1.6-4 3.5-.9 1.8-1.3 3.8-1.6 5.8-.1.4-.3.7-.7.8-.4.1-.7 0-1-.3-1.6-1.7-3.5-3.8-6-4.5h-1z"/><path fill="#FFF" d="M726.6 756c-1.4-2.3-2.3-5-1.8-7.7.6-2.6 3.1-4.9 5.7-4.6 1.7.2 3.1 1.4 4 2.9.9 1.4 1.3 3.1 1.8 4.7 1.3-1.7 2.8-3.5 4.8-4.2s4.8.2 5.2 2.4c.2 1.2-.4 2.5-1 3.6-2.2 4.1-4.3 8.2-6.5 12.2-5-1.3-9.5-4.8-12.2-9.3z"/><path d="M738.9 766.3h-.3c-5.4-1.5-10.1-5-12.9-9.8-1.8-3-2.4-5.9-1.9-8.4.6-2.9 3.5-5.8 6.8-5.3 1.8.3 3.5 1.5 4.7 3.3.6 1 1 2.1 1.4 3.2 1.1-1.3 2.4-2.5 4.1-3.1 1.5-.5 3.2-.3 4.5.4 1.1.6 1.8 1.6 2 2.7.3 1.6-.5 3.1-1.1 4.2l-6.5 12.2c-.1.4-.5.6-.8.6zm-8.9-21.6c-2 0-3.8 1.9-4.2 3.8-.6 2.6.6 5.2 1.6 7 2.5 4.1 6.4 7.2 11 8.7l6.1-11.5c.6-1.1 1-2.1.9-2.9-.1-.7-.6-1.1-1-1.3-.8-.5-2-.6-2.9-.3-1.8.6-3.3 2.5-4.4 3.9-.2.3-.6.4-1 .4-.4-.1-.7-.3-.8-.7-.4-1.5-.8-3.1-1.7-4.5-.8-1.4-2.1-2.3-3.3-2.4 0-.2-.2-.2-.3-.2z"/><ellipse cx="484.9" cy="752.5" rx="10.7" ry="14.7"/><ellipse cx="581.4" cy="737.7" rx="10.7" ry="14.7"/><path d="M516.6 757.9s12.1 9.3 34.1-4.7c.5 1.9 5.6 26.1-5.1 34.1-10.7 7.9-27.6 2.8-29-29.4z"/><path fill="#FFF" d="M537.1 783c1.9-1 3.8-2.2 5.3-3.8 1.5-1.6 2.5-3.8 2.3-5.9-.2-2.2-1.7-4.3-3.8-4.8-2.1-.5-4.6 1.1-4.7 3.3-.2-1.7-1.8-3.2-3.5-3.1-1.7 0-3.3 1.5-3.4 3.2-.4 4.7 8.1 6.4 7.8 11.1z"/><path fill="none" stroke="#000" stroke-linecap="round" stroke-linejoin="round" stroke-miterlimit="10" d="M524.6 789.6c2.9 3.1 7.1 5 11.4 5.2 4.3.2 8.6-1.4 11.8-4.3"/><ellipse cx="1131.3" cy="716.6" rx="8.6" ry="11.9"/><ellipse cx="1212.1" cy="734.1" rx="8.6" ry="12.6"/><path d="M1178.2 750.5c2.7-2.1 4.2-5.4 5.1-8.6 1.5-5.5 1.3-11.4-.4-16.8-6.9 4.2-17 3-22.4-2.8-3.1 4.4-5.2 9.5-5.2 14.8 0 5.3 2.5 10.6 7.1 13.6s11.4 3.2 15.8-.2z"/><path fill="none" stroke="#000" stroke-linecap="round" stroke-linejoin="round" stroke-miterlimit="10" d="M1155 748.7c2 4 5.6 7.2 9.9 8.6s9.1 1 13-1.1"/><path fill="#FFF" d="M1168.3 736.7s.8-3.5-3.5-3.2c-4.3.3.9 10.2 1.7 10.9 0-.3 7-2.4 6.6-6.5-.3-4.2-3.8-3.2-4.8-1.2zM602.1 174.4c39.7 23.4 20.7 42.4-2.7 2.7-23.4 39.7-42.4 20.7-2.7-2.7-39.7-23.4-20.7-42.4 2.7-2.7 23.4-39.7 42.3-20.7 2.7 2.7z"/><path d="M622.5 201.1c-4.9 0-13.8-6.7-23.1-22-9.9 16.3-19.3 22.8-23.9 22-1.4-.3-2.4-1.2-2.6-2.6-.8-4.7 5.7-14 22-23.9-16.3-9.9-22.8-19.3-22-23.9.3-1.4 1.2-2.4 2.6-2.6 4.6-.8 14 5.7 23.9 22 9.9-16.3 19.3-22.8 23.9-22 1.4.3 2.4 1.2 2.6 2.6.8 4.7-5.7 14-22 23.9 16.3 9.9 22.8 19.3 22 23.9-.3 1.4-1.2 2.4-2.6 2.6-.3-.1-.5 0-.8 0zm-23.1-25c.3 0 .7.2.8.5 10.3 17.5 19.4 23.1 22.7 22.4.6-.1 1-.4 1.1-1.1.6-3.3-5-12.4-22.4-22.7-.3-.2-.5-.5-.5-.8 0-.3.2-.7.5-.8 17.5-10.3 23-19.4 22.4-22.7-.1-.6-.4-1-1.1-1.1-3.3-.6-12.4 5-22.7 22.4-.4.6-1.3.6-1.7 0-10.3-17.5-19.4-23-22.7-22.4-.6.1-1 .4-1.1 1.1-.6 3.3 5 12.4 22.4 22.7.3.2.5.5.5.8 0 .3-.2.7-.5.8-17.5 10.3-23 19.4-22.4 22.7.1.6.4 1 1.1 1.1 3.3.6 12.4-5 22.7-22.4.2-.3.5-.5.9-.5z"/><path fill="#FFF" d="M600.6 175.6c7.2 27.8-9.6 27.8-2.4 0-27.8 7.2-27.8-9.6 0-2.4-7.2-27.8 9.6-27.8 2.4 0 27.8-7.2 27.8 9.6 0 2.4z"/><path d="M599.4 197.4c-.5 0-.9-.2-1.4-.5-2.5-1.7-3.8-8.7-1.2-20-11.3 2.7-18.3 1.3-20-1.2-.6-.9-.6-1.9 0-2.8 1.7-2.5 8.7-3.8 20-1.2-2.7-11.3-1.3-18.3 1.2-20 .9-.6 1.9-.6 2.8 0 2.5 1.7 3.8 8.7 1.2 20 11.3-2.7 18.3-1.3 20 1.2.6.9.6 1.9 0 2.8-1.7 2.5-8.7 3.8-20 1.2 2.7 11.3 1.3 18.3-1.2 20-.5.4-1 .5-1.4.5zm-1.2-22.8c.3 0 .5.1.7.3.2.2.3.6.3.9-3.2 12.5-1.4 18.6 0 19.5.2.1.3.1.5 0 1.4-1 3.2-7 0-19.5-.1-.3 0-.7.3-.9.2-.2.6-.3.9-.3 12.5 3.2 18.6 1.4 19.5 0 .1-.2.1-.3 0-.5-1-1.4-7-3.2-19.5 0-.3.1-.7 0-.9-.3-.2-.2-.3-.6-.3-.9 3.2-12.5 1.4-18.6 0-19.5-.2-.1-.3-.1-.5 0-1.4 1-3.2 7 0 19.5.1.3 0 .7-.3.9s-.6.3-.9.3c-12.5-3.2-18.6-1.4-19.5 0-.1.2-.1.3 0 .5 1 1.4 7 3.2 19.5 0h.2z"/><circle cx="441.6" cy="436" r="2.9"/><circle cx="516.6" cy="351.2" r="2.9"/><circle cx="591.6" cy="464.9" r="3.7"/><circle cx="1070.1" cy="497.5" r="3.3"/><circle cx="851.3" cy="113.8" r="2.9"/><circle cx="810.5" cy="41.7" r="4.1"/><circle cx="1157.1" cy="40.4" r="2.9"/><circle cx="783.3" cy="735.7" r="3.3"/><circle cx="1012" cy="688.3" r="2.9"/><path fill="none" stroke="#000" stroke-miterlimit="10" d="M1137.4 539.9c-2.7.8-5.1 2.4-6.9 4.5-1.1 1.3-2 3.2-1.2 4.7s2.8 1.8 4.5 1.7c2.8-.2 5.6-1.1 8-2.6 1.9-1.2 3.7-3.2 3.3-5.4-.3-1.5-1.6-2.7-3.1-3.1-1.6-.4-3.2-.2-4.6.2zm79.3-75c3.4-.3 6.7-1.9 9.2-4.3 1.6-1.5 2.9-3.6 2.7-5.8-.2-2.3-2.3-4.3-4.5-4.8-2.3-.5-4.7.2-6.7 1.5-1.9 1.3-3.4 3.2-4.7 5.2-.6 1-1.2 2.1-1.5 3.2-.3 1.2-.1 2.5.6 3.4 1 1.5 3.1 1.8 4.9 1.6z"/><path d="M719.4 841.6c0 5.6-2.5 10.4-7.5 14.4-4.8 3.8-10.3 5.6-16.6 5.6-1.8 0-3.9-.3-6.2-.9-2.3-.6-3.5-1.4-3.5-2.3 0-.4.2-.8.6-1.1.4-.3 1.1-.5 2.3-.5 1 .1 1.8.1 2.3.1 2.7 0 4.9-1 6.5-3.1 1.4-1.8 2.2-4.2 2.2-7.1 0-2.9-.4-5.4-1.1-7.4-1.3-3.4-3.4-5.2-6.3-5.2-3.6 0-6.1 1.6-7.5 4.9-1 2.4-1.5 6.1-1.5 11.1v18.2c0 7.9.5 13.5 1.4 16.9 1.1 2.1 2.2 4.3 3.3 6.4 0 .5-.3.9-.8 1.3s-1.1.6-1.6.6h-14.9c-1.8 0-2.9-.6-3.5-1.8-.6-1.2-.9-3.3-.9-6.3v-42c0-3.6-.4-6.3-1.2-8.1-1-1.6-2-3.3-2.9-5 0-.7.4-1.2 1.1-1.5.7-.3 1.4-.4 2.1-.4 10.3 0 17.9-.1 22.8-.2 4.9-.2 9.6-.3 14.1-.5 4.8 0 8.6.8 11.4 2.3 3.9 2.1 5.9 6 5.9 11.6zm67.2 12.5c0 10-2.5 18.8-7.5 26.2-5.8 8.7-13.8 13.1-23.9 13.1-10.4 0-18.6-4.4-24.5-13.3-4.8-7.1-7.2-15.1-7.2-23.9 0-11.6 2.9-19.5 8.8-23.8 4.5-3.3 12.2-4.9 22.9-4.9 11 0 18.7 1.5 23.1 4.6 5.6 3.9 8.3 11.2 8.3 22zm-19.7 2.9c0-6.4-.4-11.1-1.2-14.2-1.8-6.6-5.2-9.9-10.3-9.9-4.1 0-7.2 2.1-9.3 6.3-2.1 4.2-3.1 9.9-3.1 17.2 0 7.2.6 13.2 1.7 18 2 8.6 5.5 12.9 10.4 12.9 4.3 0 7.6-4.3 9.7-12.9 1.4-5.7 2.1-11.6 2.1-17.4zm84.1 4.3c0 .2-.1 3.5-.4 10.1-.3 6.5-.4 12.1-.4 16.8 0 1.9-.5 3.4-1.5 4.2-1 .9-2.5 1.3-4.4 1.3-2.9 0-4.3-.8-4.3-2.4 0-.5.7-1.8 2.2-3.9.7-1 1-2 1-2.9 0-1.6-.8-3.5-2.3-5.6s-3.8-4.6-6.8-7.5c-3.6-3.3-7.1-6.6-10.6-10l-18.6-17c-.8-.8-1.4-1.1-1.9-1.1s-.8.5-.8 1.6c0 4.8 0 7.4-.1 7.8-.1.4-.1 1.8-.1 3.9 0 12.8.7 21.8 2 26.9l4.5 8.1c0 .9-.5 1.5-1.5 1.8-1 .2-2.3.4-4.1.4-3.8 0-6.1-1.4-7-4.1-.6-1.9-.8-7.9-.8-17.8 0-2.6.1-6.3.3-11.3.4-11.5.7-18.5.7-20.8 0-2.8-1.2-5.2-3.5-7-1.1-.9-1.7-1.8-1.7-2.8 0-.8.4-1.3 1.2-1.7.8-.4 1.7-.6 2.5-.6h12.8c2.5 0 4.7.7 6.7 2.1.6.4 2 1.6 4.1 3.6 3.3 3 7.5 6.9 12.6 11.8 3 2.8 6.9 6.5 11.7 11.1.4.4.7.6.8.6.5 0 .8-.7.8-2.2 0-7.7-.7-13.5-2.1-17.3-1.6-2.5-3.1-5-4.6-7.5 0-.8.5-1.4 1.6-1.8 1.1-.4 2.6-.6 4.7-.6 3.6 0 5.7 1.9 6.4 5.6.7 2.8.9 12.2.9 28.2zm63.5-30.2c-4.4 7.5-8.7 15-13.1 22.6-4.5 9-6.8 17.3-6.8 25.1 0 1.6.1 3.2.3 4.8 0 1.3.3 2.4.9 3.5.6 1.1 1.5 2.2 2.6 3.3.2.3.3.7.3 1 0 .4-.1.9-.4 1.4-.3.5-.7.7-1.2.7h-21.9c-.8 0-1.3-.5-1.8-1.5-.1-.9.2-1.8 1.1-2.7 1.2-1.2 1.8-2 2-2.3.4-2.6.7-5.5.7-8.6 0-3.4-.3-6.6-.9-9.8-.6-3.1-1.6-6-3-8.7-1.9-4-4.4-8.5-7.4-13.4-2.8-4.4-5.5-8.8-8.2-13.2-.2-.9-.4-1.9-.6-2.8 0-.2.1-.6.3-1.2.2-.6.6-1 1.2-1.2.6-.2 1.4-.3 2.4-.3 1 .1 1.7.1 2.2.1h20.9c.3.2.5 1 .5 2.4 0 .9-.4 2.1-1.1 3.6-.7 1.4-1.1 2.5-1.1 3.3s.2 1.4.5 2.1l8.1 20c.8.3 1.2.4 1.3.4 1.4-2.9 3-6.3 4.7-10.2 1.9-4.7 3.4-8.2 4.3-10.5.2-.7.4-1.5.4-2.4 0-2.2-.7-4-2.2-5.5-.1-.7.1-1.4.7-2.3.4-.2.8-.4 1.1-.7h3.2c1.1 0 2.2 0 3.3-.1 2.1 0 3.9.1 5.5.4.9.5 1.3 1.2 1.3 2.1 0-.1 0 .2-.1.6zm55.3 8.1c0 1.4-.3 2.3-.8 2.7-.3.3-.8.4-1.6.4-1.9-2-4-3.8-6.4-5.3-2.7-1.7-6.1-2.5-10.2-2.5-3.1 0-5.5.7-7.1 2.1-1.9 1.8-2.9 4.8-2.9 9v3.5c0 2 .2 3 .6 3 1.6-2.3 3.3-4.4 5.3-6.2 2-1.8 4.4-2.7 7.3-2.7 3.4 0 6.2 1.3 8.2 3.9 1.6 2.1 2.3 4.3 2.3 6.7 0 2.9-1.2 5.5-3.5 7.8-2.1 2.1-4 3.1-5.9 3.1-.3 0-.8-.2-1.3-.5-.6-.3-.8-.7-.8-1.1 0-.3.2-.8.5-1.4.3-.6.5-1.4.5-2.3 0-1.1-.5-2.1-1.5-2.8-1-.7-2-1.1-3-1.1-3.6 0-6.1 1.9-7.5 5.6-.9 2.4-1.3 5.5-1.3 9.2v11c0 3.1.6 5.3 1.9 6.8 1.3 1.4 1.9 2.5 1.9 3.1 0 .4-.3.9-.9 1.4-.6.5-1.2.7-1.7.7h-18.4c-1.1 0-2-.2-2.7-.6s-1.1-.9-1.1-1.5c0-.7.6-1.9 1.9-3.5 1.3-1.7 1.9-3.8 1.9-6.3V844c0-4.8-.6-7.9-1.9-9.5-1.3-1.6-1.9-2.8-1.9-3.5 0-1.5 1.5-2.3 4.6-2.3l24.1.1c4.4 0 7.8-.1 10.2-.3 2.3-.2 4.6-.4 6.8-.7 1.5 0 2.7 1.3 3.6 4 .5 2.3.8 4.7.8 7.4zm29.4 52.1c0 .6-.4 1.1-1.1 1.5-.7.4-1.3.6-1.8.6h-19.6c-.4 0-1.1-.2-1.9-.7-.8-.5-1.2-1-1.2-1.6 1-1.6 1.9-3.5 2.7-5.5.8-2 1.2-4.9 1.2-8.5v-36.6c0-2.5-.4-4.5-1.2-6.1-.8-1.6-1.7-3.2-2.5-4.8 0-.7.2-1.2.6-1.6.4-.3 1.4-.5 3-.5h18.2c1 0 1.8.2 2.4.6.6.4.9 1 .9 1.8 0 .6-.6 1.8-1.9 3.6-1.3 1.8-1.9 4.1-1.9 7l-.1 36.8c0 4.8.9 8.4 2.8 11 1 1.2 1.4 2.2 1.4 3zm58.5-7.6c0 2.4-.7 4.5-2.1 6.2-1.8 2.3-4.4 3.5-7.7 3.5h-39.2c-.6 0-1.3-.1-2.1-.4-.8-.2-1.1-.7-1.1-1.4 0-.5.5-1.8 1.6-3.8 1.1-2 1.6-4.8 1.6-8.5 0-2.5-.1-8.3-.3-17.3-.2-9-.3-14.8-.3-17.4 0-4.3-.4-7.5-1.2-9.6-.9-1.8-1.9-3.5-2.8-5.4 0-.8.4-1.4 1.1-1.7.8-.3 1.8-.5 3-.5h18c1 0 1.6 0 1.8.1 1 .3 1.5 1 1.5 2.1 0 .4-.7 1.5-2 3.2-1.3 1.7-2 3.7-2 6v30.8c0 5.5.4 9.5 1.2 12.1 1.3 4.3 3.7 6.4 7.2 6.4 2.1 0 3.8-.7 5.1-2.2 1.3-1.4 2-3 2-4.6 0-1.8-.7-3.3-2.1-4.5-1.6-1.3-3.2-2.7-4.8-4 0-1.1.9-2.1 2.8-3 1.8-.9 3.6-1.3 5.4-1.3 3.4 0 6.7 1.3 9.9 4 3.7 3.3 5.5 7 5.5 11.2zm30.7-53.9c0 .4-.7 1.5-2 3.2-1.3 1.7-2 3.7-2 6v30.8c0 5.5.4 9.5 1.2 12.1 1.3 4.3 3.7 6.4 7.2 6.4 2.1 0 3.8-.7 5.1-2.2 1.3-1.4 2-3 2-4.6 0-1.8-.7-3.3-2.1-4.5-1.6-1.3-3.2-2.7-4.8-4 0-1.1.9-2.1 2.8-3 1.8-.9 3.6-1.3 5.4-1.3 3.4 0 6.7 1.3 9.9 4 3.6 3.1 5.5 6.7 5.5 11 0 2.4-.7 4.5-2.1 6.2-1.8 2.3-4.4 3.5-7.7 3.5h-39.2c-.6 0-1.3-.1-2.1-.4-.8-.2-1.1-.7-1.1-1.4 0-.5.5-1.8 1.6-3.8 1.1-2 1.6-4.8 1.6-8.5 0-2.5-.1-8.3-.3-17.3-.2-9-.3-14.8-.3-17.4 0-4.3-1.4-10.5-2.2-12.6" fill="none" stroke="#000" stroke-width="1.5" stroke-miterlimit="10"/></svg>